<?xml version="1.0" standalone="no"?>
<!DOCTYPE svg PUBLIC "-//W3C//DTD SVG 1.1//EN" "http://www.w3.org/Graphics/SVG/1.1/DTD/svg11.dtd" >
<svg xmlns="http://www.w3.org/2000/svg" xmlns:xlink="http://www.w3.org/1999/xlink" version="1.1">
<metadata>
Created by FontForge 20170731 at Fri May  5 14:19:01 2017
 By Aleksey,,,
Copyright (c) 2015, Cadson Demak (info@cadsondemak.com)
</metadata>
<defs>
<font id="Taviraj-Black" horiz-adv-x="0" >
  <font-face 
    font-family="Taviraj Black"
    font-weight="900"
    font-stretch="normal"
    units-per-em="1000"
    panose-1="0 0 10 0 0 0 0 0 0 0"
    ascent="750"
    descent="-250"
    x-height="470"
    cap-height="700"
    bbox="-751 -534 1444 1212"
    underline-thickness="50"
    underline-position="-150"
    unicode-range="U+000D-FB02"
  />
<missing-glyph horiz-adv-x="600" 
d="M86 714h424v-714h-424v714zM469 40v633h-343v-633h343z" />
    <glyph glyph-name="fi" unicode="fi" horiz-adv-x="832" 
d="M21 48h32q54 0 54 40v316h-90v66h90v82q0 90 77 130t227 40q128 0 208 -25t80 -89q0 -42 -23.5 -63.5t-66.5 -21.5q-39 0 -62.5 20t-23.5 62q0 33 -35.5 43t-75.5 10q-41 0 -73 -21.5t-32 -70.5v-96h348l32 10h39v-392q0 -40 54 -40h32v-48h-372v48h32q54 0 54 40v316
h-219v-316q0 -40 54 -40h32v-48h-372v48z" />
    <glyph glyph-name="fl" unicode="fl" horiz-adv-x="842" 
d="M21 48h32q54 0 54 40v316h-90v66h90v78q0 174 219 174q41 0 95 -11t86 -28l190 34h39v-629q0 -40 54 -40h32v-48h-372v48h32q54 0 54 40v524q-18 14 -59 27t-73 13q-46 0 -71.5 -26t-25.5 -78v-78h141v-66h-141v-316q0 -40 54 -40h32v-48h-372v48z" />
    <glyph glyph-name="ru_lakkhangyaothai" unicode="&#xe24;&#xe45;" horiz-adv-x="1025" 
d="M904.5 521.5q66.5 -41.5 66.5 -133.5v-584h-199v586q0 52 -20 75t-62 23q-73 0 -88 -91q2 -16 2 -24v-569h-200v597q0 38 -34.5 62.5t-96.5 24.5q-65 0 -108.5 -31.5t-52.5 -78.5h195v-57q-35 -13 -50 -32t-15 -52v-25q49 -4 75 -34.5t26 -76.5q0 -52 -37.5 -81.5
t-94.5 -29.5q-74 0 -121.5 34t-47.5 96v99q0 34 22 62.5t66 44.5h-105q4 81 45.5 134.5t105.5 78t137 24.5q146 0 223 -56q32 28 76.5 42t97.5 14q128 0 194.5 -41.5zM186 144.5q-17 -17.5 -17 -43.5t17 -43.5t46 -17.5q27 0 44 17.5t17 43.5t-17 43.5t-44 17.5
q-29 0 -46 -17.5z" />
    <glyph glyph-name="lu_lakkhangyaothai" unicode="&#xe26;&#xe45;" horiz-adv-x="1051" 
d="M930.5 521.5q66.5 -41.5 66.5 -133.5v-584h-199v586q0 52 -20 75t-62 23q-67 0 -85 -77q4 -16 4 -38v-569h-200v597q0 38 -34.5 62.5t-96.5 24.5q-65 0 -108.5 -31.5t-52.5 -78.5h205v-57q-30 -12 -37.5 -40.5t-7.5 -85.5v-75q0 -62 -47.5 -96t-121.5 -34
q-57 0 -94.5 29.5t-37.5 81.5q0 45 28.5 77t72.5 34v29q0 63 68 85h-115q4 81 45.5 134.5t105.5 78t137 24.5q142 0 220 -54q32 26 76.5 40t95.5 14q128 0 194.5 -41.5zM159 57.5q17 17.5 17 43.5t-17 43.5t-46 17.5q-27 0 -44 -17.5t-17 -43.5t17 -43.5t44 -17.5
q29 0 46 17.5z" />
    <glyph glyph-name=".notdef" horiz-adv-x="600" 
d="M86 714h424v-714h-424v714zM469 40v633h-343v-633h343z" />
    <glyph glyph-name=".null" horiz-adv-x="510" 
 />
    <glyph glyph-name="nonmarkingreturn" unicode="&#xd;" horiz-adv-x="265" 
 />
    <glyph glyph-name="space" unicode=" " horiz-adv-x="265" 
 />
    <glyph glyph-name="exclam" unicode="!" horiz-adv-x="398" 
d="M98 610q0 1 -0.5 4.5t-0.5 12.5q0 84 102 84t102 -84q0 -9 -0.5 -12.5t-0.5 -4.5l-59 -416h-84zM136 14q-24 24 -24 64q0 41 24 65t64 24t64 -24t24 -65q0 -40 -24 -64t-64 -24t-64 24z" />
    <glyph glyph-name="quotedbl" unicode="&#x22;" horiz-adv-x="506" 
d="M44 621v5q0 41 18 62t71 21q51 0 70.5 -21t19.5 -61v-6l-58 -226h-67zM283 621v5q0 41 18.5 62t70.5 21t71 -21t19 -61v-6l-58 -226h-67z" />
    <glyph glyph-name="numbersign" unicode="#" horiz-adv-x="887" 
d="M697 441l-47 -197h143v-68h-159l-45 -185h-137l45 185h-200l-45 -185h-136l45 185h-137v68h153l47 197h-139v68h156l41 171h137l-41 -171h199l41 171h137l-41 -171h140v-68h-157zM560 441h-199l-48 -197h200z" />
    <glyph glyph-name="dollar" unicode="$" horiz-adv-x="677" 
d="M568 48q-71 -51 -190 -57v-89h-62v88q-116 5 -196 56q-3 3 -9 3q-8 0 -8 -8v-46h-65v219h57q11 -81 67.5 -117t127.5 -36q61 0 99.5 23.5t38.5 80.5q0 34 -23 58t-54 38.5t-81 32.5q-75 27 -118.5 49.5t-75 65t-31.5 110.5q0 93 71.5 141.5t199.5 49.5v69h62v-72
q81 -9 150 -53q3 -3 9 -3q8 0 8 8v46h65v-219h-57q-11 81 -62.5 117t-119.5 36q-48 0 -82 -23.5t-34 -64.5q0 -37 34 -57.5t88 -37.5l21 -7q73 -25 121 -49.5t84 -73t36 -125.5q0 -102 -71 -153z" />
    <glyph glyph-name="percent" unicode="%" horiz-adv-x="984" 
d="M148 -17l621 752l57 -46l-624 -750zM73 353q-51 50 -51 144q0 193 215 193q216 0 216 -193q0 -194 -216 -194q-113 0 -164 50zM271.5 409q11.5 39 11.5 88q0 48 -11.5 87.5t-34.5 39.5t-34.5 -39.5t-11.5 -87.5q0 -49 11.5 -88t34.5 -39t34.5 39zM530 183q0 193 216 193
t216 -193q0 -194 -216 -194t-216 194zM780.5 95q11.5 39 11.5 88t-11.5 88.5t-34.5 39.5t-34.5 -39.5t-11.5 -88.5t11.5 -88t34.5 -39t34.5 39z" />
    <glyph glyph-name="ampersand" unicode="&#x26;" horiz-adv-x="784" 
d="M165.5 13.5q-64.5 22.5 -100.5 64.5t-36 100q0 76 45 125.5t125 90.5q-71 106 -71 163q0 77 56.5 113t143.5 36q92 0 137 -29t49 -95q-1 -48 -37.5 -84.5t-92.5 -69.5q67 -87 217 -247q28 37 44 78.5t19 82.5h73q-5 -56 -29 -109t-64 -97l131 -136h-233l-34 34
q-94 -43 -194 -43q-84 0 -148.5 22.5zM412.5 519.5q20.5 25.5 20.5 58.5q0 61 -59 61q-25 0 -42 -14t-17 -48q0 -43 39 -105q38 22 58.5 47.5zM462 80q-117 123 -199 228q-34 -55 -34 -127q0 -39 16.5 -66t41.5 -40.5t51 -13.5q67 0 124 19z" />
    <glyph glyph-name="quotesingle" unicode="'" horiz-adv-x="267" 
d="M44 621v5q0 41 18 62t71 21q51 0 70.5 -21t19.5 -61v-6l-58 -226h-68z" />
    <glyph glyph-name="parenleft" unicode="(" horiz-adv-x="336" 
d="M93 70.5q-58 121.5 -58 252.5t58 252.5t178 204.5l32 -25q-55 -73 -82 -147t-34.5 -139.5t-7.5 -145.5q0 -79 7.5 -144.5t34.5 -140.5t82 -147l-32 -25q-120 83 -178 204.5z" />
    <glyph glyph-name="parenright" unicode=")" horiz-adv-x="336" 
d="M33 -109q55 72 82 147t34.5 140.5t7.5 144.5q0 80 -7.5 145.5t-34.5 139.5t-82 147l32 25q120 -83 178 -204.5t58 -252.5t-58 -252.5t-178 -204.5z" />
    <glyph glyph-name="asterisk" unicode="*" horiz-adv-x="550" 
d="M237 284q-15 16 -15 42q0 14 5.5 26t6.5 14q10 19 15 36.5t6 46.5q-20 -9 -34 -22.5t-30 -33.5q-17 -22 -30.5 -32.5t-32.5 -10.5t-34.5 15.5t-15.5 36.5q0 34 32 51q9 5 19.5 7t20.5 2q21 1 39 5.5t43 19.5q-28 13 -48 19t-42 6q-24 0 -44 18.5t-20 40.5t16 37.5
t36 15.5q23 0 33.5 -8.5t25.5 -28.5q14 -20 27.5 -34.5t37.5 -27.5q-1 37 -6.5 54.5t-14.5 31.5q-6 10 -8.5 17t-2.5 20q0 27 15 43t38 16q24 0 39 -16t15 -43q0 -14 -5.5 -26t-6.5 -14q-10 -18 -15.5 -36t-5.5 -47q24 13 38 28t26 34q14 20 25.5 28.5t34.5 8.5
q20 0 36 -15.5t16 -37.5t-20 -40.5t-44 -18.5t-43.5 -5.5t-46.5 -19.5q25 -15 43 -19.5t39 -5.5q24 0 40 -9q15 -9 23.5 -22.5t8.5 -28.5q0 -21 -15.5 -36.5t-34.5 -15.5q-22 0 -35 11t-29 33q-13 20 -26.5 33.5t-34.5 22.5q1 -37 6 -55t14 -32q6 -10 8.5 -17.5t2.5 -20.5
q0 -26 -14.5 -41.5t-37.5 -15.5q-24 0 -39 16z" />
    <glyph glyph-name="plus" unicode="+" horiz-adv-x="621" 
d="M208 249h-180v97h180v182h199v-182h180v-97h-180v-182h-199v182z" />
    <glyph glyph-name="comma" unicode="," horiz-adv-x="280" 
d="M36 -135q33 34 48 58.5t15 57.5q0 15 -5.5 24.5t-16.5 21.5q-13 13 -20 26.5t-7 36.5q0 34 22.5 60.5t65.5 26.5q46 0 71.5 -31t25.5 -85q0 -62 -44 -116t-113 -108z" />
    <glyph glyph-name="hyphen" unicode="-" horiz-adv-x="495" 
d="M50 337h395v-109h-395v109z" />
    <glyph glyph-name="period" unicode="." horiz-adv-x="280" 
d="M67.5 18.5q-27.5 28.5 -27.5 71.5t27.5 71.5t72.5 28.5t72.5 -28.5t27.5 -71.5t-27.5 -71.5t-72.5 -28.5t-72.5 28.5z" />
    <glyph glyph-name="slash" unicode="/" horiz-adv-x="373" 
d="M277 694h79l-265 -694h-77z" />
    <glyph glyph-name="zero" unicode="0" horiz-adv-x="660" 
d="M26 350q0 360 304 360q158 0 231 -94.5t73 -265.5t-73 -265.5t-231 -94.5q-304 0 -304 360zM424 350q0 290 -94 290t-94 -290q0 -288 94 -288t94 288z" />
    <glyph glyph-name="one" unicode="1" horiz-adv-x="660" 
d="M122 48h62q54 0 54 40v481l-126 -55v89l334 133v-648q0 -40 54 -40h62v-48h-440v48z" />
    <glyph glyph-name="two" unicode="2" horiz-adv-x="660" 
d="M25 73q9 58 46 100t106 97l39 32q61 50 98 84.5t65 75.5t28 80q0 98 -90 98q-52 0 -72.5 -28t-20.5 -90q0 -22 -23.5 -35t-55.5 -13q-36 0 -62.5 17t-26.5 49q0 46 34 85t96.5 62t143.5 23q118 0 194.5 -47t76.5 -144q0 -51 -34.5 -95t-80.5 -76t-122 -77
q-20 -12 -46 -25q-60 -33 -89 -55t-29 -50v-4h276q41 0 59 23.5t29 61.5h44l-15 -222h-568v73z" />
    <glyph glyph-name="three" unicode="3" horiz-adv-x="660" 
d="M165 13q-60 23 -91.5 61.5t-31.5 85.5q0 32 26.5 49t62.5 17q32 0 55.5 -13t23.5 -35q0 -62 20 -89t72 -27q48 0 75.5 34.5t27.5 108.5q0 55 -28.5 92.5t-86.5 37.5h-119v70h119q63 0 91 42t28 95q0 98 -90 98q-52 0 -72.5 -28t-20.5 -90q0 -22 -23.5 -35t-55.5 -13
q-36 0 -62.5 17t-26.5 49q0 46 34 85t96.5 62t143.5 23q118 0 194.5 -47t76.5 -144q0 -49 -37 -89t-94 -55v-4q65 -18 101.5 -60.5t36.5 -102.5q0 -112 -84.5 -165t-220.5 -53q-80 0 -140 23z" />
    <glyph glyph-name="four" unicode="4" horiz-adv-x="660" 
d="M220 48h62q54 0 54 40v54h-315v90l336 478h187v-463h106l-20 -105h-86v-54q0 -40 54 -40h62v-48h-440v48zM336 247v310l-211 -310h211z" />
    <glyph glyph-name="five" unicode="5" horiz-adv-x="660" 
d="M154 13.5q-56 23.5 -78.5 54t-22.5 53.5q0 36 20.5 55.5t47.5 19.5q19 0 35 -10.5t22 -29.5q14 -42 29.5 -62.5t32.5 -26t43 -5.5q47 0 76 40t29 122q0 67 -25 111.5t-78 44.5q-44 0 -82 -22.5t-62 -62.5l-64 12l53 393h350q13 0 21.5 9.5t15.5 26.5h50l-13 -163h-363
l-25 -174q64 50 169 50q141 0 200.5 -63.5t59.5 -163.5q0 -112 -74 -172t-218 -60q-93 0 -149 23.5z" />
    <glyph glyph-name="six" unicode="6" horiz-adv-x="660" 
d="M109 71q-73 81 -73 237q0 127 38.5 217t110 137.5t169.5 47.5q109 0 178.5 -40.5t69.5 -116.5q0 -33 -23 -49.5t-58 -16.5q-37 0 -54 13.5t-17 48.5q0 91 -94 91q-109 0 -113 -230q24 21 66.5 32t83.5 11q113 0 171 -60t58 -159q0 -112 -72.5 -178t-219.5 -66
q-148 0 -221 81zM395 104.5q21 43.5 21 115.5q0 73 -22 117t-62 44q-36 0 -58.5 -42.5t-22.5 -113.5q0 -68 22.5 -116t60.5 -48q40 0 61 43.5z" />
    <glyph glyph-name="seven" unicode="7" horiz-adv-x="660" 
d="M193 14q-28 24 -28 66q0 95 40.5 188.5t103.5 171t133 133.5h-262q-35 0 -54.5 -34.5t-23.5 -70.5h-54v232h575v-70q-68 -59 -125 -147.5t-90.5 -192.5t-33.5 -203q0 -45 -24 -71t-90 -26q-39 0 -67 24z" />
    <glyph glyph-name="eight" unicode="8" horiz-adv-x="660" 
d="M584.5 314q38.5 -47 38.5 -122q0 -103 -82 -152.5t-219 -49.5q-130 0 -207.5 43.5t-77.5 141.5q0 109 115 176q-92 68 -92 168q0 89 71.5 140t196.5 51q117 0 187.5 -44t70.5 -121q0 -54 -27.5 -89.5t-80.5 -60.5q68 -34 106.5 -81zM262 618.5q-30 -21.5 -30 -59.5
q0 -32 21 -54.5t52 -37.5t89 -37q76 43 76 112q0 46 -33 72t-90 26q-55 0 -85 -21.5zM400.5 87q41.5 25 41.5 72q0 34 -34.5 57.5t-108.5 56.5q-49 21 -65 29q-31 -26 -46.5 -60.5t-15.5 -68.5q0 -56 36.5 -83.5t92.5 -27.5q58 0 99.5 25z" />
    <glyph glyph-name="nine" unicode="9" horiz-adv-x="660" 
d="M124.5 30.5q-69.5 40.5 -69.5 116.5q0 33 23 49.5t58 16.5q37 0 54 -13.5t17 -48.5q0 -91 94 -91q109 0 113 230q-24 -21 -66.5 -32t-83.5 -11q-113 0 -171 60t-58 159q0 112 72.5 178t219.5 66q148 0 221 -81t73 -237q0 -127 -38.5 -217t-110 -137.5t-169.5 -47.5
q-109 0 -178.5 40.5zM383.5 361.5q22.5 42.5 22.5 113.5q0 68 -22.5 116t-60.5 48q-40 0 -61 -43.5t-21 -115.5q0 -73 22 -117t62 -44q36 0 58.5 42.5z" />
    <glyph glyph-name="colon" unicode=":" horiz-adv-x="280" 
d="M67.5 325.5q-27.5 28.5 -27.5 71.5t27.5 71.5t72.5 28.5t72.5 -28.5t27.5 -71.5t-27.5 -71.5t-72.5 -28.5t-72.5 28.5zM67.5 18.5q-27.5 28.5 -27.5 71.5t27.5 71.5t72.5 28.5t72.5 -28.5t27.5 -71.5t-27.5 -71.5t-72.5 -28.5t-72.5 28.5z" />
    <glyph glyph-name="semicolon" unicode=";" horiz-adv-x="280" 
d="M67.5 325.5q-27.5 28.5 -27.5 71.5t27.5 71.5t72.5 28.5t72.5 -28.5t27.5 -71.5t-27.5 -71.5t-72.5 -28.5t-72.5 28.5zM36 -135q33 34 48 58.5t15 57.5q0 15 -5.5 24.5t-16.5 21.5q-13 13 -20 26.5t-7 36.5q0 34 22.5 60.5t65.5 26.5q46 0 71.5 -31t25.5 -85
q0 -62 -44 -116t-113 -108z" />
    <glyph glyph-name="less" unicode="&#x3c;" horiz-adv-x="621" 
d="M46 305v51l511 243v-107l-332 -162l332 -161v-107z" />
    <glyph glyph-name="equal" unicode="=" horiz-adv-x="621" 
d="M50 421h521v-97h-521v97zM50 222h521v-97h-521v97z" />
    <glyph glyph-name="greater" unicode="&#x3e;" horiz-adv-x="621" 
d="M64 169l332 161l-332 162v107l511 -243v-51l-511 -243v107z" />
    <glyph glyph-name="question" unicode="?" horiz-adv-x="538" 
d="M192 254q0 59 21.5 98t60.5 81q30 33 44 55.5t14 53.5q0 52 -18.5 75t-62.5 23q-46 0 -63.5 -27.5t-17.5 -90.5q0 -22 -20 -35t-51 -13q-33 0 -56 16.5t-23 49.5q0 47 27.5 86t83.5 61.5t137 22.5q115 0 182.5 -40t67.5 -137q0 -43 -17 -73t-41 -49t-65 -42
q-38 -23 -59.5 -39t-36.5 -41t-15 -61q0 -19 5 -43h-89q-8 39 -8 69zM180 14q-24 24 -24 64q0 41 24 65t64 24t64 -24t24 -65q0 -40 -24 -64t-64 -24t-64 24z" />
    <glyph glyph-name="at" unicode="@" horiz-adv-x="847" 
d="M204.5 -7q-87.5 50 -131 131t-43.5 174q0 95 46.5 180t138 138t219.5 53q103 0 186.5 -41.5t132 -116t48.5 -169.5q0 -61 -23 -113.5t-65.5 -84t-97.5 -31.5q-30 0 -57.5 19.5t-33.5 50.5q-25 -40 -66 -55t-83 -15q-80 0 -127 40.5t-47 117.5q0 53 23.5 105.5t75 87
t129.5 34.5q53 0 97 -10.5t82 -35.5l-19 -228v-7q0 -24 13 -31.5t24 -7.5q25 0 48.5 22t38 60t14.5 84q0 74 -37 133.5t-102.5 93.5t-149.5 34q-102 0 -174 -42t-108.5 -110.5t-36.5 -144.5q0 -127 75.5 -212t243.5 -85q46 0 112 12.5t120 41.5v-75q-59 -22 -127.5 -34.5
t-125.5 -12.5q-125 0 -212.5 50zM433 200.5q16 21.5 20 57.5l19 153q-14 10 -40 10q-37 0 -60.5 -47.5t-23.5 -103.5q0 -42 10 -66.5t38 -24.5q21 0 37 21.5z" />
    <glyph glyph-name="A" unicode="A" horiz-adv-x="827" 
d="M823 48v-48h-361v48h24q35 0 35 25q0 8 -3 18l-30 83h-249l-29 -75q-4 -9 -4 -19q0 -16 12 -24t27 -8h24v-48h-265v48h17q22 0 41 9.5t27 29.5l238 589l155 52l266 -644q15 -36 51 -36h24zM463 242l-97 267l-102 -267h199z" />
    <glyph glyph-name="B" unicode="B" horiz-adv-x="704" 
d="M11 48h32q54 0 54 40v524q0 40 -54 40h-32v48h378q139 0 197.5 -41t58.5 -124q0 -58 -36 -104t-102 -61q94 -16 135.5 -66.5t41.5 -108.5q0 -93 -60 -144t-196 -51h-417v48zM350 401q44 0 65 32.5t21 90.5q0 108 -92 108h-39v-231h45zM372 68q50 0 77 36t27 102
q0 63 -30.5 95.5t-85.5 32.5h-55v-266h67z" />
    <glyph glyph-name="C" unicode="C" horiz-adv-x="740" 
d="M196.5 35q-83.5 45 -124.5 126t-41 189t40.5 189t123 126t203.5 45q126 0 214 -56q3 -3 9 -3q8 0 8 8v46h65v-219h-57q-11 81 -65.5 117t-124.5 36q-61 0 -107.5 -34t-72 -99.5t-25.5 -155.5q0 -139 49 -214t138 -75q154 0 211 115h67q-12 -51 -50.5 -93.5t-103 -67.5
t-149.5 -25q-124 0 -207.5 45z" />
    <glyph glyph-name="D" unicode="D" horiz-adv-x="789" 
d="M10 48h32q54 0 54 40v524q0 40 -54 40h-32v48h370q191 0 279.5 -86t88.5 -264q0 -179 -88.5 -264.5t-280.5 -85.5h-369v48zM378 68q75 0 117 71t42 211q0 139 -41 210.5t-117 71.5h-75v-564h74z" />
    <glyph glyph-name="E" unicode="E" horiz-adv-x="691" 
d="M661 203l-22 -203h-629v48h32q54 0 54 40v524q0 40 -54 40h-32v48h630v-204h-49q-15 136 -116 136h-171v-237h120q30 0 40.5 22.5t14.5 64.5h39v-242h-39q-4 42 -14.5 64.5t-40.5 22.5h-120v-259h201q51 0 74 34.5t33 100.5h49z" />
    <glyph glyph-name="F" unicode="F" horiz-adv-x="686" 
d="M641 700v-204h-49q-15 136 -116 136h-171v-274h122q30 0 40.5 22.5t14.5 64.5h39v-242h-39q-4 42 -14.5 64.5t-40.5 22.5h-122v-202q0 -40 54 -40h32v-48h-380v48h32q54 0 54 40v524q0 40 -54 40h-32v48h630z" />
    <glyph glyph-name="G" unicode="G" horiz-adv-x="791" 
d="M196.5 35q-83.5 45 -124.5 126t-41 189t42 189t125.5 126t204.5 45q70 0 125.5 -16t93.5 -40q3 -3 9 -3q8 0 8 8v46h65v-219h-57q-11 81 -67.5 117t-127.5 36q-61 0 -108.5 -34t-74.5 -99.5t-27 -155.5q0 -139 49 -214t138 -75q49 0 87 11v188q0 49 -60 49h-17v39h346
v-31h-19q-23 0 -36 -12t-13 -29v-212q-80 -46 -150.5 -60t-162.5 -14q-124 0 -207.5 45z" />
    <glyph glyph-name="H" unicode="H" horiz-adv-x="858" 
d="M762 612v-524q0 -40 54 -40h32v-48h-380v48h32q54 0 54 40v233h-250v-233q0 -40 54 -40h32v-48h-380v48h32q54 0 54 40v524q0 40 -54 40h-32v48h380v-48h-32q-54 0 -54 -40v-223h250v223q0 40 -54 40h-32v48h380v-48h-32q-54 0 -54 -40z" />
    <glyph glyph-name="I" unicode="I" horiz-adv-x="412" 
d="M16 48h32q54 0 54 40v524q0 40 -54 40h-32v48h380v-48h-32q-54 0 -54 -40v-524q0 -40 54 -40h32v-48h-380v48z" />
    <glyph glyph-name="J" unicode="J" horiz-adv-x="475" 
d="M49 -83q51 16 76 48.5t32.5 75t7.5 105.5v466q0 40 -54 40h-32v48h380v-48h-32q-54 0 -54 -40v-469q0 -131 -85.5 -194t-232.5 -63z" />
    <glyph glyph-name="K" unicode="K" horiz-adv-x="839" 
d="M834 48v-48h-272l-258 277v-189q0 -40 54 -40h32v-48h-380v48h32q54 0 54 40v524q0 40 -54 40h-32v48h380v-48h-32q-54 0 -54 -40v-221l251 224q10 10 10 19q0 18 -35 18h-16v48h259v-48h-30q-16 0 -30 -5t-23 -13l-260 -234l275 -301q20 -22 46.5 -36.5t50.5 -14.5h32z
" />
    <glyph glyph-name="L" unicode="L" horiz-adv-x="711" 
d="M10 48h32q54 0 54 40v524q0 40 -54 40h-32v48h380v-48h-32q-54 0 -54 -40v-490q0 -54 59 -54h168q46 0 72 51t35 102h53l-22 -221h-659v48z" />
    <glyph glyph-name="M" unicode="M" horiz-adv-x="1000" 
d="M10 48h32q54 0 54 40v524q0 40 -54 40h-32v48h283l192 -465l199 465h306v-48h-32q-54 0 -54 -40v-524q0 -40 54 -40h32v-48h-380v48h32q54 0 54 40v452l-202 -466h-123l-195 463v-449q0 -40 54 -40h32v-48h-252v48z" />
    <glyph glyph-name="N" unicode="N" horiz-adv-x="803" 
d="M10 48h32q54 0 54 40v524q0 40 -54 40h-32v48h283l334 -449v361q0 40 -54 40h-32v48h252v-48h-32q-54 0 -54 -40v-612h-104l-427 581v-493q0 -40 54 -40h32v-48h-252v48z" />
    <glyph glyph-name="O" unicode="O" horiz-adv-x="840" 
d="M126 86.5q-96 96.5 -96 263.5t96 263.5t294 96.5t294 -96.5t96 -263.5t-96 -263.5t-294 -96.5t-294 96.5zM552 137q47 75 47 213t-47 214t-133 76q-84 0 -131 -76t-47 -214q0 -137 47 -212.5t131 -75.5q86 0 133 75z" />
    <glyph glyph-name="P" unicode="P" horiz-adv-x="687" 
d="M10 48h32q54 0 54 40v524q0 40 -54 40h-32v48h412q134 0 189.5 -57t55.5 -161q0 -105 -55.5 -162t-189.5 -57h-118v-175q0 -40 54 -40h32v-48h-380v48zM370 331q47 0 69.5 38t22.5 113t-22.5 112.5t-69.5 37.5h-66v-301h66z" />
    <glyph glyph-name="Q" unicode="Q" horiz-adv-x="840" 
d="M741 -32q3 -15 3 -32q0 -62 -37.5 -103t-117.5 -41q-37 0 -70.5 14.5t-83.5 44.5q-48 29 -82 44t-70 15q-41 0 -77 -21l-21 29q56 58 109 84q-134 29 -199 120t-65 228q0 167 96 263.5t294 96.5t294 -96.5t96 -263.5t-96 -263.5t-294 -96.5q-18 0 -52 2l-32 -24h13
q35 0 64 -8t75 -25q40 -16 68 -24t59 -8q38 0 58.5 15t32.5 50h35zM288 564q-47 -76 -47 -214q0 -137 47 -212.5t131 -75.5q86 0 133 75t47 213t-47 214t-133 76q-84 0 -131 -76z" />
    <glyph glyph-name="R" unicode="R" horiz-adv-x="757" 
d="M653 112.5q11 -25.5 30.5 -44t49.5 -20.5v-48h-146q-49 0 -77.5 9.5t-46 30.5t-29.5 60q-7 20 -15 66t-17.5 73t-30.5 44h-67v-195q0 -40 54 -40h32v-48h-380v48h32q54 0 54 40v524q0 40 -54 40h-32v48h412q135 0 190 -52.5t55 -155.5q0 -77 -29 -125.5t-98 -68.5
q40 -18 57.5 -46t31.5 -72q13 -42 24 -67.5zM304 351h66q48 0 70 33.5t22 107.5t-22 107t-70 33h-66v-281z" />
    <glyph glyph-name="S" unicode="S" horiz-adv-x="677" 
d="M213.5 6q-55.5 16 -93.5 40q-3 3 -9 3q-8 0 -8 -8v-46h-65v219h57q11 -81 67.5 -117t127.5 -36q61 0 99.5 23.5t38.5 80.5q0 34 -23 58t-54 38.5t-81 32.5q-75 27 -118.5 49.5t-75 65t-31.5 110.5q0 94 73.5 142.5t203.5 48.5q69 0 117.5 -15.5t88.5 -40.5q3 -3 9 -3
q8 0 8 8v46h65v-219h-57q-11 81 -62.5 117t-119.5 36q-48 0 -82 -23.5t-34 -64.5q0 -37 34 -57.5t88 -37.5l21 -7q73 -25 121 -49.5t84 -73t36 -125.5q0 -110 -82 -160.5t-218 -50.5q-70 0 -125.5 16z" />
    <glyph glyph-name="T" unicode="T" horiz-adv-x="758" 
d="M189 48h32q54 0 54 40v544h-126q-29 0 -46.5 -36t-25 -80.5t-7.5 -69.5h-50v254h718v-254h-50q0 25 -7.5 69.5t-25 80.5t-46.5 36h-126v-544q0 -40 54 -40h32v-48h-380v48z" />
    <glyph glyph-name="U" unicode="U" horiz-adv-x="830" 
d="M181 49q-85 59 -85 178v385q0 40 -54 40h-32v48h380v-48h-32q-54 0 -54 -40v-401q0 -80 48.5 -115t121.5 -35q74 0 127 36.5t53 113.5v401q0 40 -54 40h-32v48h252v-48h-32q-54 0 -54 -40v-385q0 -113 -79.5 -175t-229.5 -62q-159 0 -244 59z" />
    <glyph glyph-name="V" unicode="V" horiz-adv-x="839" 
d="M85 616q-15 36 -51 36h-24v48h361v-48h-24q-35 0 -35 -25q0 -7 3 -18l152 -418l156 410q4 9 4 19q0 16 -12 24t-27 8h-24v48h265v-48h-17q-22 0 -41 -9.5t-27 -29.5l-248 -613h-156z" />
    <glyph glyph-name="W" unicode="W" horiz-adv-x="1181" 
d="M1171 700v-48h-17q-22 0 -42 -10t-26 -29l-200 -613h-126l-139 392l-165 -392h-156l-215 616q-15 36 -51 36h-24v48h361v-48h-24q-35 0 -35 -26q0 -6 3 -17l112 -418l141 353l-26 72q-13 36 -51 36h-24v48h331v-48h-24q-35 0 -35 -26q0 -8 3 -17l115 -418l108 410
q3 11 3 17q0 18 -11.5 26t-26.5 8h-24v48h265z" />
    <glyph glyph-name="X" unicode="X" horiz-adv-x="826" 
d="M816 48v-48h-367v48h24q17 0 28 7t11 18q0 10 -7 18l-130 171l-159 -163q-10 -10 -10 -20q0 -13 15.5 -22t29.5 -9h24v-48h-265v48h17q18 0 34 10t34 29l233 238l-221 291q-16 20 -26.5 28t-24.5 8h-24v48h367v-48h-24q-17 0 -28 -7t-11 -18q0 -10 7 -18l114 -151
l140 143q10 10 10 20q0 13 -15.5 22t-29.5 9h-24v48h265v-48h-17q-18 0 -34 -10t-34 -29l-213 -218l236 -311q16 -20 26.5 -28t24.5 -8h24z" />
    <glyph glyph-name="Y" unicode="Y" horiz-adv-x="767" 
d="M185 48h32q54 0 54 40v198l-186 330q-11 20 -23 28t-28 8h-24v48h346v-48h-24q-17 0 -27 -6t-10 -18q0 -7 5 -19l120 -240l131 232q6 12 6 20q0 15 -13 23t-28 8h-24v48h265v-48h-17q-20 0 -38.5 -10t-29.5 -29l-193 -329v-196q0 -40 54 -40h32v-48h-380v48z" />
    <glyph glyph-name="Z" unicode="Z" horiz-adv-x="645" 
d="M17 44l380 588h-187q-101 0 -116 -136h-49v204h574v-28l-385 -604h235q51 0 74 34.5t33 100.5h49l-22 -203h-586v44z" />
    <glyph glyph-name="bracketleft" unicode="[" horiz-adv-x="327" 
d="M14 706h303v-66h-157v-691h157v-69h-303v826z" />
    <glyph glyph-name="backslash" unicode="\" horiz-adv-x="373" 
d="M14 694h78l264 -694h-78z" />
    <glyph glyph-name="bracketright" unicode="]" horiz-adv-x="327" 
d="M6 -51h157v691h-157v66h303v-826h-303v69z" />
    <glyph glyph-name="asciicircum" unicode="^" horiz-adv-x="592" 
d="M231 724h124l215 -414h-127l-150 347l-150 -347h-126z" />
    <glyph glyph-name="underscore" unicode="_" horiz-adv-x="493" 
d="M-3 -43h499v-69h-499v69z" />
    <glyph glyph-name="grave" unicode="`" horiz-adv-x="530" 
d="M196 672q-31 18 -46.5 36t-15.5 40q0 21 16.5 38t48.5 17q26 0 46 -14.5t32 -28.5l127 -139l-36 -50z" />
    <glyph glyph-name="a" unicode="a" horiz-adv-x="616" 
d="M58.5 17.5q-45.5 27.5 -45.5 79.5q0 79 80.5 124.5t242.5 67.5v33q0 44 -26.5 66t-68.5 22q-23 0 -41.5 -6.5t-29 -16t-10.5 -17.5q0 -5 3 -16.5t3 -18.5q0 -21 -16 -35t-47 -14q-27 0 -48.5 19.5t-21.5 54.5q0 57 65 88.5t186 31.5q73 0 130.5 -19.5t89.5 -54t32 -78.5
v-239q0 -36 29 -36q9 0 22.5 3.5t20.5 4.5v-33q-24 -18 -61 -28t-78 -10q-47 0 -77.5 13t-47.5 51h-4q-29 -33 -75 -48.5t-94 -15.5q-67 0 -112.5 27.5zM307.5 73q18.5 12 28.5 34v133q-125 -44 -125 -128q0 -23 16 -37t44 -14q18 0 36.5 12z" />
    <glyph glyph-name="b" unicode="b" horiz-adv-x="683" 
d="M212 51l-48 -51h-90v574q0 20 -10 28.5t-25 8.5q-5 0 -19 -3l-10 40l225 69h39v-288q49 51 149 51q65 0 116 -26.5t80 -79.5t29 -128q0 -137 -68 -196.5t-197 -59.5q-124 0 -171 61zM428.5 105q21.5 48 21.5 136q0 90 -22.5 131t-73.5 41q-17 0 -36 -12.5t-31.5 -35.5
t-12.5 -54v-137q0 -49 22.5 -83t61.5 -34q49 0 70.5 48z" />
    <glyph glyph-name="c" unicode="c" horiz-adv-x="604" 
d="M100.5 52q-78.5 62 -78.5 183q0 70 34 125.5t100.5 87.5t159.5 32q126 0 189 -54l9 54h45v-197h-42q-20 133 -140 133q-73 0 -112 -52t-39 -130q0 -80 34.5 -131.5t101.5 -51.5q65 0 103 28.5t51 92.5h48q-8 -79 -67.5 -130.5t-164.5 -51.5q-153 0 -231.5 62z" />
    <glyph glyph-name="d" unicode="d" horiz-adv-x="684" 
d="M30 246q0 75 29 128t80 79.5t116 26.5q99 0 148 -51v145q0 20 -10 28.5t-25 8.5q-5 0 -19 -3l-10 40l225 69h39v-619q0 -21 9 -30t36 -9h32v-48l-240 -21l-6 79q-26 -39 -68.5 -59t-107.5 -20q-228 0 -228 256zM381.5 91q22.5 34 22.5 83v137q0 31 -12.5 54t-31.5 35.5
t-36 12.5q-51 0 -73.5 -41t-22.5 -131q0 -88 21.5 -136t70.5 -48q39 0 61.5 34z" />
    <glyph glyph-name="e" unicode="e" horiz-adv-x="599" 
d="M226 243v-9q0 -80 35.5 -131.5t102.5 -51.5q65 0 104 28.5t52 92.5h48q-8 -79 -68.5 -130.5t-165.5 -51.5q-153 0 -232.5 62t-79.5 183q0 73 34.5 128.5t100.5 86t159 30.5q125 0 189 -57.5t64 -147.5v-32h-343zM264 386q-22 -30 -32 -80h163q0 40 -15 75t-59 35
q-35 0 -57 -30z" />
    <glyph glyph-name="f" unicode="f" horiz-adv-x="506" 
d="M478 689q45 -33 45 -89q0 -66 -67 -66q-26 0 -42 11t-16 32q0 8 4 20t4 18q0 19 -13 31t-36 12q-50 0 -50 -81v-107h141v-66h-141v-316q0 -40 54 -40h32v-48h-372v48h32q54 0 54 40v316h-90v66h90v82q0 82 58.5 126t155.5 44q112 0 157 -33z" />
    <glyph glyph-name="g" unicode="g" horiz-adv-x="608" 
d="M635 461.5q29 -18.5 29 -47.5q0 -28 -15 -43.5t-43 -15.5q-17 0 -25 6.5t-16 20.5t-16.5 21t-25.5 7q-7 0 -25 -5q28 -35 28 -88q0 -79 -64.5 -119.5t-187.5 -40.5q-66 0 -114 12q-16 -15 -16 -30q0 -12 8.5 -18.5t24.5 -6.5h207q79 0 127 -34.5t48 -97.5
q0 -76 -73 -122.5t-219 -46.5q-249 0 -249 123q0 29 19.5 48.5t51.5 29.5q-31 11 -44.5 33t-13.5 49q0 49 69 94q-78 40 -78 127q0 80 64.5 121.5t187.5 41.5q115 0 178 -36q28 21 55 28.5t58 7.5q41 0 70 -18.5zM328 317q0 98 -54 98t-54 -98q0 -97 54 -97t54 97zM151 -59
q0 -33 31 -50.5t87 -17.5q54 0 84.5 18t30.5 51q0 19 -14 32t-43 13h-157q-19 -14 -19 -46z" />
    <glyph glyph-name="h" unicode="h" horiz-adv-x="758" 
d="M748 48v-48h-358v48h22q50 0 50 40v236q0 84 -69 84q-19 0 -41.5 -15t-39 -49t-16.5 -88v-168q0 -40 50 -40h22v-48h-358v48h32q54 0 54 40v486q0 20 -10 28.5t-25 8.5q-5 0 -19 -3l-10 40l225 69h39v-312q25 38 72.5 56.5t97.5 18.5q98 0 147 -38t49 -103v-251
q0 -40 54 -40h32z" />
    <glyph glyph-name="i" unicode="i" horiz-adv-x="392" 
d="M113.5 579.5q-26.5 26.5 -26.5 66.5t26.5 66.5t68.5 26.5t69 -26.5t27 -66.5t-27 -66.5t-69 -26.5t-68.5 26.5zM10 48h32q54 0 54 40v249q0 20 -10 28.5t-25 8.5q-5 0 -19 -3l-10 40l225 69h39v-392q0 -40 54 -40h32v-48h-372v48z" />
    <glyph glyph-name="j" unicode="j" horiz-adv-x="397" 
d="M138.5 579.5q-26.5 26.5 -26.5 66.5t26.5 66.5t68.5 26.5t69 -26.5t27 -66.5t-27 -66.5t-69 -26.5t-68.5 26.5zM-7 -132q73 23 98.5 77t25.5 134v258q0 20 -10 28.5t-25 8.5q-5 0 -19 -3l-10 40l225 69h39v-386q0 -131 -85.5 -194t-232.5 -63z" />
    <glyph glyph-name="k" unicode="k" horiz-adv-x="751" 
d="M731 48v-48h-268l-161 173l-8 -6v-78q0 -41 54 -41h27v-48h-367v48h32q54 0 54 40v486q0 20 -10 28.5t-25 8.5q-5 0 -19 -3l-10 40l225 69h39v-467l165 121q11 8 11 19q0 13 -14 22.5t-32 9.5h-24v48h288v-48h-40q-26 0 -87 -48l-132 -103l165 -178q18 -21 48.5 -33
t56.5 -12h32z" />
    <glyph glyph-name="l" unicode="l" horiz-adv-x="391" 
d="M12 48h32q54 0 54 40v486q0 20 -10 28.5t-25 8.5q-5 0 -19 -3l-10 40l225 69h39v-628q0 -41 54 -41h27v-48h-367v48z" />
    <glyph glyph-name="m" unicode="m" horiz-adv-x="1100" 
d="M1090 48v-48h-367v48h32q54 0 54 40v236q0 44 -17 64t-50 20q-19 0 -41 -14.5t-38 -49t-16 -88.5v-167q0 -41 54 -41h7v-48h-318v48h12q54 0 54 40v236q0 44 -17 64t-50 20q-19 0 -40.5 -14.5t-37 -49t-15.5 -88.5v-167q0 -41 54 -41h27v-48h-367v48h32q54 0 54 40v249
q0 20 -10 28.5t-25 8.5q-5 0 -19 -3l-10 40l225 69h39v-74q24 38 70.5 56t95.5 18q146 0 177 -89q21 46 71 67.5t105 21.5q98 0 146 -38t48 -103v-250q0 -41 54 -41h27z" />
    <glyph glyph-name="n" unicode="n" horiz-adv-x="758" 
d="M748 48v-48h-358v48h22q50 0 50 40v236q0 84 -69 84q-19 0 -41.5 -15t-39 -49t-16.5 -88v-168q0 -40 50 -40h22v-48h-358v48h32q54 0 54 40v249q0 20 -10 28.5t-25 8.5q-5 0 -19 -3l-10 40l225 69h39v-75q25 38 72.5 56.5t97.5 18.5q98 0 147 -38t49 -103v-251
q0 -40 54 -40h32z" />
    <glyph glyph-name="o" unicode="o" horiz-adv-x="662" 
d="M100 52q-78 62 -78 183t78 183t231 62t231 -62t78 -183t-78 -183t-231 -62t-231 62zM409.5 102q28.5 45 28.5 133t-28.5 133t-78.5 45t-78.5 -45t-28.5 -133t28.5 -133t78.5 -45t78.5 45z" />
    <glyph glyph-name="p" unicode="p" horiz-adv-x="692" 
d="M10 -178h32q54 0 54 40v475q0 20 -10 28.5t-25 8.5q-5 0 -19 -3l-10 40l225 69h39v-51q49 51 149 51q65 0 116 -26.5t80 -79.5t29 -128q0 -137 -67 -196.5t-195 -59.5q-34 0 -64.5 11.5t-47.5 31.5v-170q0 -41 54 -41h27v-48h-367v48zM450.5 105q21.5 48 21.5 136
q0 90 -22.5 131t-73.5 41q-17 0 -36 -12.5t-31.5 -35.5t-12.5 -54v-145q0 -48 22 -78.5t62 -30.5q49 0 70.5 48z" />
    <glyph glyph-name="q" unicode="q" horiz-adv-x="697" 
d="M404 34q-50 -44 -146 -44q-228 0 -228 256q0 75 29 128t80 79.5t116 26.5q124 0 171 -61l43 61h135v-614q0 -21 9 -30t36 -9h32v-48l-277 -21v276zM381.5 91q22.5 34 22.5 83v137q0 31 -12.5 54t-31.5 35.5t-36 12.5q-51 0 -73.5 -41t-22.5 -131q0 -88 21.5 -136
t70.5 -48q39 0 61.5 34z" />
    <glyph glyph-name="r" unicode="r" horiz-adv-x="571" 
d="M534 464q31 -16 31 -54q0 -36 -19 -54.5t-50 -18.5q-17 0 -27 5.5t-24 17.5q-12 10 -21 15t-22 5q-15 0 -38.5 -20.5t-43 -57.5t-24.5 -84v-129q0 -41 54 -41h27v-48h-367v48h32q54 0 54 40v249q0 20 -10 28.5t-25 8.5q-5 0 -19 -3l-10 40l225 69h39v-110q29 58 76 84
t90 26q41 0 72 -16z" />
    <glyph glyph-name="s" unicode="s" horiz-adv-x="547" 
d="M169 5q-45 15 -77 47l-9 -54h-45v155h42q13 -41 51.5 -68.5t86.5 -27.5q43 0 69.5 12.5t26.5 40.5q0 18 -21.5 29t-69.5 25q-59 18 -97 35t-66.5 52t-28.5 91q0 65 53.5 101.5t168.5 36.5q52 0 105.5 -13.5t81.5 -40.5l9 54h45v-155h-42q-8 38 -47.5 62.5t-89.5 24.5
q-39 0 -63 -11.5t-24 -33.5q0 -19 21.5 -29.5t70.5 -22.5q58 -14 97.5 -30t68.5 -51t29 -94q0 -81 -67 -115.5t-172 -34.5q-62 0 -107 15z" />
    <glyph glyph-name="t" unicode="t" horiz-adv-x="487" 
d="M461 127q-6 -72 -52.5 -104.5t-130.5 -32.5q-101 0 -159.5 33t-58.5 116v265h-59v66h59v90l161 49h39v-139h137v-66h-137v-265q0 -43 17.5 -65.5t52.5 -22.5q32 0 55 18t28 58h48z" />
    <glyph glyph-name="u" unicode="u" horiz-adv-x="722" 
d="M691.5 56.5q13.5 3.5 20.5 4.5v-33q-24 -18 -61 -28t-78 -10q-47 0 -87 18t-45 58q-25 -39 -73 -57.5t-98 -18.5q-98 0 -147 38t-49 103v206q0 20 -10 28.5t-25 8.5q-5 0 -19 -3l-10 40l225 69h39v-334q0 -84 69 -84q19 0 41.5 15t39 49t16.5 88v123q0 20 -10 28.5
t-25 8.5q-5 0 -19 -3l-10 40l225 69h39v-391q0 -36 29 -36q9 0 22.5 3.5z" />
    <glyph glyph-name="v" unicode="v" horiz-adv-x="659" 
d="M85 386q-15 36 -51 36h-24v48h325v-48h-24q-36 0 -36 -25q0 -9 4 -18l91 -229l89 221q4 9 4 19q0 16 -12.5 24t-26.5 8h-24v48h249v-48h-17q-22 0 -41 -9.5t-27 -29.5l-157 -383h-162z" />
    <glyph glyph-name="w" unicode="w" horiz-adv-x="868" 
d="M858 470v-48h-15q-20 0 -37.5 -10t-23.5 -29l-127 -383h-152l-72 311l-93 -311h-155l-115 386q-8 21 -16 28.5t-21 7.5h-21v48h292v-48h-21q-18 0 -29 -7.5t-11 -22.5q0 -3 2 -13l62 -229l90 320h138l88 -331l66 232q3 11 3 18q0 17 -10.5 25t-23.5 8h-22v48h224z" />
    <glyph glyph-name="x" unicode="x" horiz-adv-x="668" 
d="M658 48v-48h-318v48h22q15 0 26.5 7.5t11.5 18.5q0 9 -8 17l-88 89l-95 -76q-14 -11 -14 -24t10 -22.5t21 -9.5h24v-48h-240v48h17q32 0 75 36l165 134l-164 168q-6 6 -16 16.5t-17 15t-16 4.5h-23v48h304v-48h-19q-13 0 -20.5 -5.5t-7.5 -13.5q0 -12 13 -24l74 -74
l81 66q13 12 13 22q0 11 -10.5 20t-21.5 9h-19v48h220v-48h-16q-13 0 -23.5 -6.5t-22 -16.5t-19.5 -16l-144 -116l183 -183q19 -19 31 -27.5t24 -8.5h7z" />
    <glyph glyph-name="y" unicode="y" horiz-adv-x="668" 
d="M658 470v-48h-17q-22 0 -41 -9.5t-27 -29.5l-218 -482q-52 -115 -170 -115q-47 0 -73 17.5t-26 45.5q0 21 10.5 37t36.5 16q11 0 19 -5.5t17 -15.5q13 -15 24 -15q30 0 48.5 23t35.5 61l25 54l-217 382q-11 20 -23 28t-28 8h-24v48h325v-48h-24q-19 0 -31 -7.5t-12 -20.5
q0 -7 4 -15l109 -200l87 192q5 12 5 19q0 16 -13 24t-27 8h-24v48h249z" />
    <glyph glyph-name="z" unicode="z" horiz-adv-x="539" 
d="M15 31l292 373h-176q-17 0 -27 -24t-16 -60h-45v150h475v-37l-288 -367h163q27 0 44 24t29 60h42l-13 -150h-480v31z" />
    <glyph glyph-name="braceleft" unicode="{" horiz-adv-x="365" 
d="M204 -136.5q-50 13.5 -71.5 46t-21.5 94.5v191q0 52 -24 89t-79 41v35q42 7 64.5 22.5t30.5 40.5t8 66v170q0 67 18.5 103t68 52t144.5 16v-33q-52 -11 -73.5 -40t-21.5 -82v-174q0 -46 -9.5 -76t-39 -50.5t-86.5 -29.5v-5q79 -10 107 -43.5t28 -98.5v-193
q0 -54 21.5 -82t78.5 -41v-32q-93 0 -143 13.5z" />
    <glyph glyph-name="bar" unicode="|" horiz-adv-x="472" 
d="M156 742h160v-946h-160v946z" />
    <glyph glyph-name="braceright" unicode="}" horiz-adv-x="365" 
d="M18 -118q57 13 78.5 41t21.5 82v193q0 65 28 98.5t107 43.5v5q-57 9 -86.5 29.5t-39 50.5t-9.5 76v174q0 53 -21.5 82t-73.5 40v33q95 0 144.5 -16t68 -52t18.5 -103v-170q0 -41 8 -66t30.5 -40.5t64.5 -22.5v-35q-55 -4 -79 -41t-24 -89v-191q0 -62 -21.5 -94.5
t-71.5 -46t-143 -13.5v32z" />
    <glyph glyph-name="asciitilde" unicode="~" horiz-adv-x="623" 
d="M375.5 201q-34.5 7 -81.5 20q-45 12 -69 17t-46 5q-50 0 -83 -33l-32 69q17 23 50.5 38.5t65.5 15.5q27 0 56 -6t76 -18q87 -25 131 -25q50 0 83 33l32 -69q-18 -23 -50 -38.5t-64 -15.5q-34 0 -68.5 7z" />
    <glyph glyph-name="uni00A0" unicode="&#xa0;" horiz-adv-x="265" 
 />
    <glyph glyph-name="exclamdown" unicode="&#xa1;" horiz-adv-x="398" 
d="M134 327q-24 24 -24 65q0 40 24 64t64 24t64 -24t24 -64q0 -41 -24 -65t-64 -24t-64 24zM97 -152q0 9 0.5 12.5t0.5 4.5l59 411h84l59 -411q0 -1 0.5 -4.5t0.5 -12.5q0 -84 -102 -84t-102 84z" />
    <glyph glyph-name="cent" unicode="&#xa2;" horiz-adv-x="604" 
d="M504 47.5q-53 -50.5 -146 -56.5v-78h-62v78q-135 7 -204.5 68.5t-69.5 175.5q0 68 32 122t93.5 86.5t148.5 36.5v98h62v-100q95 -8 147 -52l9 54h45v-197h-42q-20 133 -140 133q-73 0 -112 -52t-39 -130q0 -80 34.5 -131.5t101.5 -51.5q65 0 103 28.5t51 92.5h48
q-7 -74 -60 -124.5z" />
    <glyph glyph-name="sterling" unicode="&#xa3;" horiz-adv-x="649" 
d="M17 66h70q21 20 25.5 33.5t4.5 40.5v177h-91v65h91v117q0 93 59.5 149.5t182.5 56.5q61 0 98 -14t81 -42q3 -3 9 -3q8 0 8 8v46h65v-200h-57q-11 80 -46.5 107.5t-90.5 27.5q-50 0 -81 -34.5t-31 -101.5v-117h192v-65h-192v-158q0 -33 -8.5 -54.5t-30.5 -36.5h176
q51 0 74 34.5t33 100.5h49l-22 -203h-568v66z" />
    <glyph glyph-name="currency" unicode="&#xa4;" horiz-adv-x="622" 
d="M81 114l61 60q-37 55 -37 117t37 117l-64 63l49 50l64 -63q27 20 55 29.5t65 9.5q36 0 64.5 -9.5t55.5 -29.5l64 63l49 -50l-64 -63q37 -55 37 -117t-37 -117l59 -59l-49 -50l-59 59q-27 -20 -55.5 -29.5t-64.5 -9.5q-37 0 -65 9.5t-55 29.5l-61 -60zM378 174
q32 18 50.5 49t18.5 67q0 38 -18.5 69t-50 49t-68.5 18q-36 0 -67 -18t-49.5 -48.5t-18.5 -68.5q0 -36 18.5 -67t49.5 -49.5t67 -18.5t68 18z" />
    <glyph glyph-name="yen" unicode="&#xa5;" horiz-adv-x="767" 
d="M757 705v-48h-17q-20 0 -38.5 -10t-29.5 -29l-127 -217h133v-65h-171l-28 -47v-72h199v-65h-199v-59q0 -40 54 -40h32v-48h-380v48h32q54 0 54 40v59h-180v65h180v74l-25 45h-155v65h118l-124 220q-11 20 -23 28t-28 8h-24v48h346v-48h-24q-17 0 -27 -6t-10 -18
q0 -7 5 -19l107 -213h28l116 205q6 12 6 20q0 15 -13 23t-28 8h-24v48h265z" />
    <glyph glyph-name="brokenbar" unicode="&#xa6;" horiz-adv-x="472" 
d="M156 742h160v-413h-160v413zM156 263h160v-467h-160v467z" />
    <glyph glyph-name="section" unicode="&#xa7;" horiz-adv-x="677" 
d="M639 -31q0 -110 -82 -160.5t-218 -50.5q-65 0 -114 14.5t-93 35.5q-22 9 -24 9t-3.5 -1t-1.5 -5v-48h-65v219h57q11 -81 67.5 -117t127.5 -36q61 0 99.5 23.5t38.5 80.5q0 35 -21 59t-53 38.5t-86 33.5q-72 25 -116 48t-75.5 65.5t-31.5 109.5q0 86 63 134
q-63 55 -63 145q0 94 73.5 142.5t203.5 48.5q50 0 93.5 -13.5t90.5 -33.5q26 -12 31 -12q8 0 8 8v46h65v-219h-57q-11 81 -62.5 117t-119.5 36q-48 0 -82 -23.5t-34 -64.5q0 -33 20.5 -55t50.5 -35.5t85 -32.5q73 -25 118 -47.5t77.5 -66t32.5 -113.5q0 -87 -55 -139
q55 -53 55 -140zM277.5 261.5q22.5 -22.5 52.5 -35.5t96 -35q2 12 2 21q0 36 -22 60t-53 38t-93 36q-5 -13 -5 -27q0 -35 22.5 -57.5z" />
    <glyph glyph-name="dieresis" unicode="&#xa8;" horiz-adv-x="530" 
d="M83 594.5q-21 21.5 -21 53.5t21 54t55 22t55 -22t21 -54t-21 -53.5t-55 -21.5t-55 21.5zM331 594.5q-21 21.5 -21 53.5t21 54t55 22t55 -22t21 -54t-21 -53.5t-55 -21.5t-55 21.5z" />
    <glyph glyph-name="copyright" unicode="&#xa9;" horiz-adv-x="830" 
d="M227 37q-83 47 -130 130t-47 188t47 188t130 130t188 47t188 -47t130 -130t47 -188t-47 -188t-130 -130t-188 -47t-188 47zM567 94.5q67 39.5 104.5 108t37.5 152.5t-37.5 152.5t-104.5 108t-152 39.5q-86 0 -153 -39.5t-104 -108t-37 -152.5q0 -85 37 -153t104 -107.5
t153 -39.5q85 0 152 39.5zM247.5 185.5q-60.5 54.5 -60.5 161.5q0 62 25.5 111t76 77t121.5 28q99 0 149 -48l7 48h34v-174h-33q-15 118 -109 118q-57 0 -90 -46.5t-33 -114.5q0 -70 30 -115.5t83 -45.5q50 0 79.5 25t39.5 81h37q-6 -69 -52 -114.5t-128 -45.5
q-116 0 -176.5 54.5z" />
    <glyph glyph-name="ordfeminine" unicode="&#xaa;" horiz-adv-x="556" 
d="M57.5 284q-37.5 25 -37.5 74q0 66 68 108.5t210 61.5v72q0 50 -73 50q-31 0 -52.5 -14.5t-21.5 -49.5q0 -17 -16 -25t-41 -8q-24 0 -37.5 11.5t-13.5 32.5q0 48 53.5 78.5t161.5 30.5q101 0 158.5 -28.5t57.5 -92.5v-241q0 -31 25 -31q17 0 41 7v-29q-23 -15 -57.5 -23.5
t-72.5 -8.5q-35 0 -58 11t-39 37q-20 -22 -58.5 -35t-74.5 -13q-85 0 -122.5 25zM298 350v130q-57 -13 -81 -36.5t-24 -58.5q0 -26 13.5 -44t36.5 -18q34 0 55 27z" />
    <glyph glyph-name="guillemotleft" unicode="&#xab;" horiz-adv-x="637" 
d="M38 249v26l243 266l35 -54l-128 -225l128 -225l-35 -54zM299 249v26l243 266l35 -54l-128 -225l128 -225l-35 -54z" />
    <glyph glyph-name="logicalnot" unicode="&#xac;" horiz-adv-x="518" 
d="M395 313h-368v66h449v-209h-81v143z" />
    <glyph glyph-name="uni00AD" unicode="&#xad;" horiz-adv-x="495" 
d="M47 337h397v-109h-397v109z" />
    <glyph glyph-name="registered" unicode="&#xae;" horiz-adv-x="830" 
d="M603 673q83 -47 130 -130t47 -188t-47 -188t-130 -130t-188 -47t-188 47t-130 130t-47 188t47 188t130 130t188 47t188 -47zM567 94.5q67 39.5 104.5 108t37.5 152.5t-37.5 152.5t-104.5 108t-152 39.5q-86 0 -153 -39.5t-104 -108t-37 -152.5q0 -85 37 -153t104 -107.5
t153 -39.5q85 0 152 39.5zM600 189.5q11 -3.5 29 -4.5v-32h-149l-82 172h-6v-113q0 -14 7.5 -20.5t25.5 -6.5h19v-32h-231v32h19q34 0 34 27v297q0 27 -34 27h-19v32h252q80 0 111 -30.5t31 -86.5q0 -43 -21 -74.5t-62 -43.5l59 -130q6 -10 17 -13.5zM392 370h32q59 0 59 82
q0 38 -14 55t-45 17h-32v-154z" />
    <glyph glyph-name="macron" unicode="&#xaf;" horiz-adv-x="530" 
d="M25 768h475v-87h-475v87z" />
    <glyph glyph-name="degree" unicode="&#xb0;" horiz-adv-x="380" 
d="M73 468q-45 45 -45 113q0 69 44.5 113.5t117.5 44.5t117.5 -44.5t44.5 -113.5q0 -68 -44.5 -113t-117.5 -45q-72 0 -117 45zM250.5 520.5q23.5 24.5 23.5 60.5t-23.5 61t-60.5 25t-60.5 -25t-23.5 -61t23.5 -60.5t60.5 -24.5t60.5 24.5z" />
    <glyph glyph-name="plusminus" unicode="&#xb1;" horiz-adv-x="621" 
d="M208 310h-180v97h180v163h199v-163h180v-97h-180v-163h-199v163zM51 116h502v-96h-502v96z" />
    <glyph glyph-name="uni00B2" unicode="&#xb2;" horiz-adv-x="500" 
d="M50 305q10 36 35 62.5t73 66.5q53 42 80 75t27 77q0 33 -14.5 46t-39.5 13q-60 0 -60 -71q0 -18 -15.5 -27.5t-38.5 -9.5t-36 12.5t-13 36.5q0 33 24 60.5t68 43.5t101 16q85 0 141 -32.5t56 -100.5q0 -43 -32.5 -75t-96.5 -73q-59 -38 -84 -62h150q14 0 24 17t13 38h25
l-13 -159h-374v46z" />
    <glyph glyph-name="uni00B3" unicode="&#xb3;" horiz-adv-x="500" 
d="M90 279q-48 28 -48 76q0 24 13 36.5t36 12.5q25 0 39.5 -9t14.5 -28q0 -26 16.5 -38.5t40.5 -12.5q73 0 73 68q0 29 -18.5 48.5t-50.5 19.5h-69v63h70q31 0 47.5 23t16.5 48q0 59 -53 59q-28 0 -45 -12.5t-17 -50.5q0 -18 -15.5 -27.5t-38.5 -9.5t-36 12.5t-13 36.5
q0 31 22 56.5t63.5 40.5t98.5 15q88 0 142 -30.5t54 -91.5q0 -72 -64 -98q39 -14 56.5 -39t17.5 -64q0 -69 -60 -100.5t-148 -31.5q-97 0 -145 28z" />
    <glyph glyph-name="acute" unicode="&#xb4;" horiz-adv-x="530" 
d="M133 621l126 139q12 14 32.5 28.5t46.5 14.5q32 0 48.5 -17t16.5 -38q0 -22 -15.5 -40t-46.5 -36l-173 -101z" />
    <glyph glyph-name="paragraph" unicode="&#xb6;" horiz-adv-x="586" 
d="M130 48h32q27 0 36 9.5t9 30.5v216q-88 12 -134 65.5t-46 136.5q0 99 52 144.5t156 45.5h326v-48h-32q-27 0 -36 -9.5t-9 -30.5v-520q0 -21 9 -30.5t36 -9.5h32v-48h-179v635h-72v-635h-180v48zM207 635q-58 -1 -84 -37t-26 -93q0 -42 16.5 -71.5t42 -44.5t51.5 -16v262z
" />
    <glyph glyph-name="periodcentered" unicode="&#xb7;" horiz-adv-x="313" 
d="M99.5 293.5q-20.5 21.5 -20.5 53.5q0 33 20.5 54.5t54.5 21.5q35 0 56 -22t21 -54t-21 -53.5t-56 -21.5q-34 0 -54.5 21.5z" />
    <glyph glyph-name="cedilla" unicode="&#xb8;" horiz-adv-x="530" 
d="M136 -255v41q59 0 93.5 15.5t34.5 53.5q0 30 -28 44t-57 16l-8 12l73 110h69l-46 -68q43 -7 81.5 -31t38.5 -73q0 -74 -59.5 -99t-130.5 -25q-32 0 -61 4z" />
    <glyph glyph-name="uni00B9" unicode="&#xb9;" horiz-adv-x="500" 
d="M64 305h56q48 0 48 38v241l-85 -25v60l271 93v-369q0 -38 48 -38h56v-46h-394v46z" />
    <glyph glyph-name="ordmasculine" unicode="&#xba;" horiz-adv-x="449" 
d="M71.5 318q-51.5 59 -51.5 164t51.5 164.5t152.5 59.5q102 0 153.5 -59t51.5 -165q0 -105 -51.5 -164t-153.5 -59q-101 0 -152.5 59zM266 380.5q14 37.5 14 101.5q0 63 -14 100.5t-40 37.5t-41 -37.5t-15 -100.5q0 -64 15 -101.5t41 -37.5t40 37.5z" />
    <glyph glyph-name="guillemotright" unicode="&#xbb;" horiz-adv-x="637" 
d="M60 37l128 225l-128 225l35 54l243 -266v-26l-243 -266zM321 37l128 225l-128 225l35 54l243 -266v-26l-243 -266z" />
    <glyph glyph-name="onequarter" unicode="&#xbc;" horiz-adv-x="1100" 
d="M41 305h56q48 0 48 38v241l-85 -25v60l271 93v-369q0 -38 48 -38h56v-46h-394v46zM755 694h71l-433 -694h-69zM597 134l202 308h184v-278h74l-15 -66h-59v-14q0 -38 48 -38h36v-46h-354v46h36q48 0 48 38v14h-200v36zM797 164v176l-112 -176h112z" />
    <glyph glyph-name="onehalf" unicode="&#xbd;" horiz-adv-x="1100" 
d="M41 305h56q48 0 48 38v241l-85 -25v60l271 93v-369q0 -38 48 -38h56v-46h-394v46zM736 694h71l-433 -694h-69zM662 46q10 36 35 62.5t73 66.5q53 42 80 75t27 77q0 33 -14.5 46t-39.5 13q-60 0 -60 -71q0 -18 -15.5 -27.5t-38.5 -9.5t-36 12.5t-13 36.5q0 33 24 60.5
t68 43.5t101 16q85 0 141 -32.5t56 -100.5q0 -43 -32.5 -75t-96.5 -73q-59 -38 -84 -62h150q14 0 24 17t13 38h25l-13 -159h-374v46z" />
    <glyph glyph-name="threequarters" unicode="&#xbe;" horiz-adv-x="1100" 
d="M55 391.5q13 12.5 36 12.5q25 0 39.5 -9t14.5 -28q0 -26 16.5 -38.5t40.5 -12.5q73 0 73 68q0 29 -18.5 48.5t-50.5 19.5h-69v63h70q31 0 47.5 23t16.5 48q0 59 -53 59q-28 0 -45 -12.5t-17 -50.5q0 -18 -15.5 -27.5t-38.5 -9.5t-36 12.5t-13 36.5q0 31 22 56.5
t63.5 40.5t98.5 15q88 0 142 -30.5t54 -91.5q0 -72 -64 -98q39 -14 56.5 -39t17.5 -64q0 -69 -60 -100.5t-148 -31.5q-97 0 -145 28t-48 76q0 24 13 36.5zM736 694h71l-433 -694h-69zM583 134l202 308h184v-278h74l-15 -66h-59v-14q0 -38 48 -38h36v-46h-354v46h36
q48 0 48 38v14h-200v36zM783 164v176l-112 -176h112z" />
    <glyph glyph-name="questiondown" unicode="&#xbf;" horiz-adv-x="538" 
d="M230 327q-24 24 -24 65q0 40 24 64t64 24t64 -24t24 -64q0 -41 -24 -65t-64 -24t-64 24zM87.5 -200q-67.5 40 -67.5 137q0 43 17 73t41 49t65 42q38 23 59.5 39t36.5 41t15 61q0 19 -5 43h89q8 -39 8 -69q0 -59 -21.5 -98t-60.5 -81q-30 -33 -44 -55.5t-14 -53.5
q0 -52 18.5 -75t62.5 -23q46 0 63.5 27.5t17.5 90.5q0 22 20 35t51 13q33 0 56 -16.5t23 -49.5q0 -47 -27.5 -86t-83.5 -61.5t-137 -22.5q-115 0 -182.5 40z" />
    <glyph glyph-name="Agrave" unicode="&#xc0;" horiz-adv-x="827" 
d="M300 910q-15 18 -15 40q0 21 16 38t48 17q26 0 46.5 -14.5t32.5 -28.5l126 -139l-35 -50l-173 101q-31 18 -46 36zM823 48v-48h-361v48h24q35 0 35 25q0 8 -3 18l-30 83h-249l-29 -75q-4 -9 -4 -19q0 -16 12 -24t27 -8h24v-48h-265v48h17q22 0 41 9.5t27 29.5l238 589
l155 52l266 -644q15 -36 51 -36h24zM463 242l-97 267l-102 -267h199z" />
    <glyph glyph-name="Aacute" unicode="&#xc1;" horiz-adv-x="827" 
d="M319 773l-36 50l127 139q12 14 32 28.5t46 14.5q32 0 48.5 -17t16.5 -38q0 -22 -15.5 -40t-46.5 -36zM823 48v-48h-361v48h24q35 0 35 25q0 8 -3 18l-30 83h-249l-29 -75q-4 -9 -4 -19q0 -16 12 -24t27 -8h24v-48h-265v48h17q22 0 41 9.5t27 29.5l238 589l155 52
l266 -644q15 -36 51 -36h24zM463 242l-97 267l-102 -267h199z" />
    <glyph glyph-name="Acircumflex" unicode="&#xc2;" horiz-adv-x="827" 
d="M231 775l-27 30l163 185h100l163 -185l-27 -30l-142 103q-30 21 -44 21t-44 -21zM823 48v-48h-361v48h24q35 0 35 25q0 8 -3 18l-30 83h-249l-29 -75q-4 -9 -4 -19q0 -16 12 -24t27 -8h24v-48h-265v48h17q22 0 41 9.5t27 29.5l238 589l155 52l266 -644q15 -36 51 -36h24z
M463 242l-97 267l-102 -267h199z" />
    <glyph glyph-name="Atilde" unicode="&#xc3;" horiz-adv-x="827" 
d="M275 814.5q-16 -12.5 -34 -44.5l-34 19q23 53 54.5 90t86.5 37q21 0 42 -5.5t52 -16.5t52 -16.5t44 -5.5q28 0 44 12.5t34 44.5l33 -19q-21 -52 -52.5 -89.5t-87.5 -37.5q-21 0 -41 5.5t-52 16.5q-30 11 -52 16.5t-45 5.5q-28 0 -44 -12.5zM823 48v-48h-361v48h24
q35 0 35 25q0 8 -3 18l-30 83h-249l-29 -75q-4 -9 -4 -19q0 -16 12 -24t27 -8h24v-48h-265v48h17q22 0 41 9.5t27 29.5l238 589l155 52l266 -644q15 -36 51 -36h24zM463 242l-97 267l-102 -267h199z" />
    <glyph glyph-name="Adieresis" unicode="&#xc4;" horiz-adv-x="827" 
d="M216.5 796.5q-20.5 21.5 -20.5 53.5q0 33 20.5 54.5t54.5 21.5q35 0 56 -22t21 -54t-21 -53.5t-56 -21.5q-34 0 -54.5 21.5zM464.5 796.5q-20.5 21.5 -20.5 53.5q0 33 20.5 54.5t55.5 21.5q34 0 55 -22t21 -54t-21 -53.5t-55 -21.5q-35 0 -55.5 21.5zM823 48v-48h-361v48
h24q35 0 35 25q0 8 -3 18l-30 83h-249l-29 -75q-4 -9 -4 -19q0 -16 12 -24t27 -8h24v-48h-265v48h17q22 0 41 9.5t27 29.5l238 589l155 52l266 -644q15 -36 51 -36h24zM463 242l-97 267l-102 -267h199z" />
    <glyph glyph-name="Aring" unicode="&#xc5;" horiz-adv-x="827" 
d="M326.5 770q-33.5 31 -33.5 82t33.5 82.5t88.5 31.5t88.5 -31.5t33.5 -82.5t-33.5 -82t-88.5 -31t-88.5 31zM377.5 889q-15.5 -14 -15.5 -37q0 -22 15.5 -36.5t37.5 -14.5t37.5 14.5t15.5 36.5q0 23 -15.5 37t-37.5 14t-37.5 -14zM823 48v-48h-361v48h24q35 0 35 25
q0 8 -3 18l-30 83h-249l-29 -75q-4 -9 -4 -19q0 -16 12 -24t27 -8h24v-48h-265v48h17q22 0 41 9.5t27 29.5l238 589l155 52l266 -644q15 -36 51 -36h24zM463 242l-97 267l-102 -267h199z" />
    <glyph glyph-name="AE" unicode="&#xc6;" horiz-adv-x="1066" 
d="M17 48h17q20 0 38.5 10t29.5 29l311 534q4 7 4 14t-4 12t-12 5h-33v48h647v-204h-49q-15 136 -116 136h-171v-237h120q30 0 40.5 22.5t14.5 64.5h39v-242h-39q-4 42 -14.5 64.5t-40.5 22.5h-120v-259h201q51 0 74 34.5t33 100.5h49l-22 -203h-629v48h32q54 0 54 40v86
h-208l-40 -75q-6 -12 -6 -20q0 -15 13 -23t28 -8h24v-48h-265v48zM471 242v298l-169 -298h169z" />
    <glyph glyph-name="Ccedilla" unicode="&#xc7;" horiz-adv-x="740" 
d="M397 -10l-19 -28q43 -7 81.5 -31t38.5 -73q0 -74 -59.5 -99t-130.5 -25q-32 0 -61 4v41q59 0 93.5 15.5t34.5 53.5q0 30 -28 44t-57 16l-8 12l49 74q-149 19 -224.5 113.5t-75.5 242.5q0 108 40.5 189t123 126t203.5 45q126 0 214 -56q3 -3 9 -3q8 0 8 8v46h65v-219h-57
q-11 81 -65.5 117t-124.5 36q-61 0 -107.5 -34t-72 -99.5t-25.5 -155.5q0 -139 49 -214t138 -75q154 0 211 115h67q-12 -51 -50.5 -93.5t-103 -67.5t-149.5 -25h-7z" />
    <glyph glyph-name="Egrave" unicode="&#xc8;" horiz-adv-x="691" 
d="M270 910q-15 18 -15 40q0 21 16 38t48 17q26 0 46.5 -14.5t32.5 -28.5l126 -139l-35 -50l-173 101q-31 18 -46 36zM661 203l-22 -203h-629v48h32q54 0 54 40v524q0 40 -54 40h-32v48h630v-204h-49q-15 136 -116 136h-171v-237h120q30 0 40.5 22.5t14.5 64.5h39v-242h-39
q-4 42 -14.5 64.5t-40.5 22.5h-120v-259h201q51 0 74 34.5t33 100.5h49z" />
    <glyph glyph-name="Eacute" unicode="&#xc9;" horiz-adv-x="691" 
d="M306 773l-36 50l127 139q12 14 32 28.5t46 14.5q32 0 48.5 -17t16.5 -38q0 -22 -15.5 -40t-46.5 -36zM661 203l-22 -203h-629v48h32q54 0 54 40v524q0 40 -54 40h-32v48h630v-204h-49q-15 136 -116 136h-171v-237h120q30 0 40.5 22.5t14.5 64.5h39v-242h-39
q-4 42 -14.5 64.5t-40.5 22.5h-120v-259h201q51 0 74 34.5t33 100.5h49z" />
    <glyph glyph-name="Ecircumflex" unicode="&#xca;" horiz-adv-x="691" 
d="M201 775l-27 30l163 185h100l163 -185l-27 -30l-142 103q-30 21 -44 21t-44 -21zM661 203l-22 -203h-629v48h32q54 0 54 40v524q0 40 -54 40h-32v48h630v-204h-49q-15 136 -116 136h-171v-237h120q30 0 40.5 22.5t14.5 64.5h39v-242h-39q-4 42 -14.5 64.5t-40.5 22.5
h-120v-259h201q51 0 74 34.5t33 100.5h49z" />
    <glyph glyph-name="Edieresis" unicode="&#xcb;" horiz-adv-x="691" 
d="M223.5 796.5q-20.5 21.5 -20.5 53.5q0 33 20.5 54.5t54.5 21.5q35 0 56 -22t21 -54t-21 -53.5t-56 -21.5q-34 0 -54.5 21.5zM471.5 796.5q-20.5 21.5 -20.5 53.5q0 33 20.5 54.5t55.5 21.5q34 0 55 -22t21 -54t-21 -53.5t-55 -21.5q-35 0 -55.5 21.5zM661 203l-22 -203
h-629v48h32q54 0 54 40v524q0 40 -54 40h-32v48h630v-204h-49q-15 136 -116 136h-171v-237h120q30 0 40.5 22.5t14.5 64.5h39v-242h-39q-4 42 -14.5 64.5t-40.5 22.5h-120v-259h201q51 0 74 34.5t33 100.5h49z" />
    <glyph glyph-name="Igrave" unicode="&#xcc;" horiz-adv-x="412" 
d="M132 874q-31 18 -46 36t-15 40q0 21 16 38t48 17q26 0 46.5 -14.5t32.5 -28.5l126 -139l-35 -50zM16 48h32q54 0 54 40v524q0 40 -54 40h-32v48h380v-48h-32q-54 0 -54 -40v-524q0 -40 54 -40h32v-48h-380v48z" />
    <glyph glyph-name="Iacute" unicode="&#xcd;" horiz-adv-x="412" 
d="M71 823l127 139q12 14 32 28.5t46 14.5q32 0 48.5 -17t16.5 -38q0 -22 -15.5 -40t-46.5 -36l-172 -101zM16 48h32q54 0 54 40v524q0 40 -54 40h-32v48h380v-48h-32q-54 0 -54 -40v-524q0 -40 54 -40h32v-48h-380v48z" />
    <glyph glyph-name="Icircumflex" unicode="&#xce;" horiz-adv-x="412" 
d="M-7 805l163 185h100l163 -185l-27 -30l-142 103q-30 21 -44 21t-44 -21l-142 -103zM16 48h32q54 0 54 40v524q0 40 -54 40h-32v48h380v-48h-32q-54 0 -54 -40v-524q0 -40 54 -40h32v-48h-380v48z" />
    <glyph glyph-name="Idieresis" unicode="&#xcf;" horiz-adv-x="412" 
d="M26.5 796.5q-20.5 21.5 -20.5 53.5q0 33 20.5 54.5t54.5 21.5q35 0 56 -22t21 -54t-21 -53.5t-56 -21.5q-34 0 -54.5 21.5zM274.5 796.5q-20.5 21.5 -20.5 53.5q0 33 20.5 54.5t55.5 21.5q34 0 55 -22t21 -54t-21 -53.5t-55 -21.5q-35 0 -55.5 21.5zM16 48h32q54 0 54 40
v524q0 40 -54 40h-32v48h380v-48h-32q-54 0 -54 -40v-524q0 -40 54 -40h32v-48h-380v48z" />
    <glyph glyph-name="Eth" unicode="&#xd0;" horiz-adv-x="789" 
d="M659.5 614q88.5 -86 88.5 -264q0 -179 -88.5 -264.5t-280.5 -85.5h-369v48h32q54 0 54 40v203h-86v87h86v234q0 40 -54 40h-32v48h370q191 0 279.5 -86zM495 139q42 71 42 211q0 139 -41 210.5t-117 71.5h-75v-254h181v-87h-181v-223h74q75 0 117 71z" />
    <glyph glyph-name="Ntilde" unicode="&#xd1;" horiz-adv-x="803" 
d="M196 789q23 53 54.5 90t86.5 37q21 0 42 -5.5t52 -16.5t52 -16.5t44 -5.5q28 0 44 12.5t34 44.5l33 -19q-21 -52 -52.5 -89.5t-87.5 -37.5q-21 0 -41 5.5t-52 16.5q-30 11 -52 16.5t-45 5.5q-28 0 -44 -12.5t-34 -44.5zM10 48h32q54 0 54 40v524q0 40 -54 40h-32v48h283
l334 -449v361q0 40 -54 40h-32v48h252v-48h-32q-54 0 -54 -40v-612h-104l-427 581v-493q0 -40 54 -40h32v-48h-252v48z" />
    <glyph glyph-name="Ograve" unicode="&#xd2;" horiz-adv-x="840" 
d="M346 874q-31 18 -46 36t-15 40q0 21 16 38t48 17q26 0 46.5 -14.5t32.5 -28.5l126 -139l-35 -50zM126 86.5q-96 96.5 -96 263.5t96 263.5t294 96.5t294 -96.5t96 -263.5t-96 -263.5t-294 -96.5t-294 96.5zM552 137q47 75 47 213t-47 214t-133 76q-84 0 -131 -76t-47 -214
q0 -137 47 -212.5t131 -75.5q86 0 133 75z" />
    <glyph glyph-name="Oacute" unicode="&#xd3;" horiz-adv-x="840" 
d="M285 823l127 139q12 14 32 28.5t46 14.5q32 0 48.5 -17t16.5 -38q0 -22 -15.5 -40t-46.5 -36l-172 -101zM126 86.5q-96 96.5 -96 263.5t96 263.5t294 96.5t294 -96.5t96 -263.5t-96 -263.5t-294 -96.5t-294 96.5zM552 137q47 75 47 213t-47 214t-133 76q-84 0 -131 -76
t-47 -214q0 -137 47 -212.5t131 -75.5q86 0 133 75z" />
    <glyph glyph-name="Ocircumflex" unicode="&#xd4;" horiz-adv-x="840" 
d="M207 805l163 185h100l163 -185l-27 -30l-142 103q-30 21 -44 21t-44 -21l-142 -103zM126 86.5q-96 96.5 -96 263.5t96 263.5t294 96.5t294 -96.5t96 -263.5t-96 -263.5t-294 -96.5t-294 96.5zM552 137q47 75 47 213t-47 214t-133 76q-84 0 -131 -76t-47 -214
q0 -137 47 -212.5t131 -75.5q86 0 133 75z" />
    <glyph glyph-name="Otilde" unicode="&#xd5;" horiz-adv-x="840" 
d="M190 789q23 53 54.5 90t86.5 37q21 0 42 -5.5t52 -16.5t52 -16.5t44 -5.5q28 0 44 12.5t34 44.5l33 -19q-21 -52 -52.5 -89.5t-87.5 -37.5q-21 0 -41 5.5t-52 16.5q-30 11 -52 16.5t-45 5.5q-28 0 -44 -12.5t-34 -44.5zM126 86.5q-96 96.5 -96 263.5t96 263.5t294 96.5
t294 -96.5t96 -263.5t-96 -263.5t-294 -96.5t-294 96.5zM552 137q47 75 47 213t-47 214t-133 76q-84 0 -131 -76t-47 -214q0 -137 47 -212.5t131 -75.5q86 0 133 75z" />
    <glyph glyph-name="Odieresis" unicode="&#xd6;" horiz-adv-x="840" 
d="M240.5 796.5q-20.5 21.5 -20.5 53.5q0 33 20.5 54.5t54.5 21.5q35 0 56 -22t21 -54t-21 -53.5t-56 -21.5q-34 0 -54.5 21.5zM488.5 796.5q-20.5 21.5 -20.5 53.5q0 33 20.5 54.5t55.5 21.5q34 0 55 -22t21 -54t-21 -53.5t-55 -21.5q-35 0 -55.5 21.5zM126 86.5
q-96 96.5 -96 263.5t96 263.5t294 96.5t294 -96.5t96 -263.5t-96 -263.5t-294 -96.5t-294 96.5zM552 137q47 75 47 213t-47 214t-133 76q-84 0 -131 -76t-47 -214q0 -137 47 -212.5t131 -75.5q86 0 133 75z" />
    <glyph glyph-name="multiply" unicode="&#xd7;" horiz-adv-x="621" 
d="M56 145l154 151l-154 151l94 95l161 -162l160 162l94 -95l-154 -151l154 -151l-94 -95l-160 162l-161 -162z" />
    <glyph glyph-name="Oslash" unicode="&#xd8;" horiz-adv-x="840" 
d="M780.5 514.5q29.5 -72.5 29.5 -164.5q0 -167 -96 -263.5t-294 -96.5q-151 0 -246 59l-79 -89l-55 45l78 89q-88 92 -88 256q0 167 96 263.5t294 96.5q120 0 207 -38l51 58l58 -46l-45 -51q60 -46 89.5 -118.5zM250 243l293 334q-46 63 -124 63q-84 0 -131 -76t-47 -214
q0 -59 9 -107zM552 137q47 75 47 213q0 92 -21 156l-304 -343q23 -50 59.5 -75.5t85.5 -25.5q86 0 133 75z" />
    <glyph glyph-name="Ugrave" unicode="&#xd9;" horiz-adv-x="830" 
d="M376 874q-31 18 -46 36t-15 40q0 21 16 38t48 17q26 0 46.5 -14.5t32.5 -28.5l126 -139l-35 -50zM181 49q-85 59 -85 178v385q0 40 -54 40h-32v48h380v-48h-32q-54 0 -54 -40v-401q0 -80 48.5 -115t121.5 -35q74 0 127 36.5t53 113.5v401q0 40 -54 40h-32v48h252v-48h-32
q-54 0 -54 -40v-385q0 -113 -79.5 -175t-229.5 -62q-159 0 -244 59z" />
    <glyph glyph-name="Uacute" unicode="&#xda;" horiz-adv-x="830" 
d="M315 823l127 139q12 14 32 28.5t46 14.5q32 0 48.5 -17t16.5 -38q0 -22 -15.5 -40t-46.5 -36l-172 -101zM181 49q-85 59 -85 178v385q0 40 -54 40h-32v48h380v-48h-32q-54 0 -54 -40v-401q0 -80 48.5 -115t121.5 -35q74 0 127 36.5t53 113.5v401q0 40 -54 40h-32v48h252
v-48h-32q-54 0 -54 -40v-385q0 -113 -79.5 -175t-229.5 -62q-159 0 -244 59z" />
    <glyph glyph-name="Ucircumflex" unicode="&#xdb;" horiz-adv-x="830" 
d="M237 805l163 185h100l163 -185l-27 -30l-142 103q-30 21 -44 21t-44 -21l-142 -103zM181 49q-85 59 -85 178v385q0 40 -54 40h-32v48h380v-48h-32q-54 0 -54 -40v-401q0 -80 48.5 -115t121.5 -35q74 0 127 36.5t53 113.5v401q0 40 -54 40h-32v48h252v-48h-32
q-54 0 -54 -40v-385q0 -113 -79.5 -175t-229.5 -62q-159 0 -244 59z" />
    <glyph glyph-name="Udieresis" unicode="&#xdc;" horiz-adv-x="830" 
d="M256.5 796.5q-20.5 21.5 -20.5 53.5q0 33 20.5 54.5t54.5 21.5q35 0 56 -22t21 -54t-21 -53.5t-56 -21.5q-34 0 -54.5 21.5zM504.5 796.5q-20.5 21.5 -20.5 53.5q0 33 20.5 54.5t55.5 21.5q34 0 55 -22t21 -54t-21 -53.5t-55 -21.5q-35 0 -55.5 21.5zM181 49
q-85 59 -85 178v385q0 40 -54 40h-32v48h380v-48h-32q-54 0 -54 -40v-401q0 -80 48.5 -115t121.5 -35q74 0 127 36.5t53 113.5v401q0 40 -54 40h-32v48h252v-48h-32q-54 0 -54 -40v-385q0 -113 -79.5 -175t-229.5 -62q-159 0 -244 59z" />
    <glyph glyph-name="Yacute" unicode="&#xdd;" horiz-adv-x="767" 
d="M306 823l127 139q12 14 32 28.5t46 14.5q32 0 48.5 -17t16.5 -38q0 -22 -15.5 -40t-46.5 -36l-172 -101zM185 48h32q54 0 54 40v198l-186 330q-11 20 -23 28t-28 8h-24v48h346v-48h-24q-17 0 -27 -6t-10 -18q0 -7 5 -19l120 -240l131 232q6 12 6 20q0 15 -13 23t-28 8
h-24v48h265v-48h-17q-20 0 -38.5 -10t-29.5 -29l-193 -329v-196q0 -40 54 -40h32v-48h-380v48z" />
    <glyph glyph-name="Thorn" unicode="&#xde;" horiz-adv-x="687" 
d="M10 48h32q54 0 54 40v524q0 40 -54 40h-32v48h294v-104h118q134 0 189.5 -57t55.5 -161q0 -105 -55.5 -162t-189.5 -57h-118v-71q0 -40 54 -40h32v-48h-380v48zM370 227q47 0 69.5 38t22.5 113t-22.5 112.5t-69.5 37.5h-66v-301h66z" />
    <glyph glyph-name="germandbls" unicode="&#xdf;" horiz-adv-x="846" 
d="M623.5 335.5q20.5 -14.5 64.5 -31.5t72 -33t48 -46t20 -77q0 -74 -44.5 -116t-132.5 -42q-62 0 -107 15t-77 47l-9 -54h-45v155h42q14 -44 39.5 -70t63.5 -26q36 0 52.5 15t16.5 38q0 18 -16.5 29t-54.5 25q-46 18 -76 35t-52 52t-22 91q0 51 33.5 92.5t88.5 56.5
q0 60 -26.5 110.5t-102.5 50.5q-39 0 -65.5 -24.5t-26.5 -70.5v-469q0 -40 54 -40h32v-48h-372v48h32q54 0 54 40v316h-90v66h90v58q0 97 78.5 145.5t203.5 48.5q133 0 205 -46.5t95.5 -103t23.5 -100.5v-32q-46 0 -78 -17.5t-32 -47.5q0 -25 20.5 -39.5z" />
    <glyph glyph-name="agrave" unicode="&#xe0;" horiz-adv-x="616" 
d="M221 652q-31 18 -46 36t-15 40q0 21 16 38t48 17q26 0 46.5 -14.5t32.5 -28.5l126 -139l-35 -50zM58.5 17.5q-45.5 27.5 -45.5 79.5q0 79 80.5 124.5t242.5 67.5v33q0 44 -26.5 66t-68.5 22q-23 0 -41.5 -6.5t-29 -16t-10.5 -17.5q0 -5 3 -16.5t3 -18.5q0 -21 -16 -35
t-47 -14q-27 0 -48.5 19.5t-21.5 54.5q0 57 65 88.5t186 31.5q73 0 130.5 -19.5t89.5 -54t32 -78.5v-239q0 -36 29 -36q9 0 22.5 3.5t20.5 4.5v-33q-24 -18 -61 -28t-78 -10q-47 0 -77.5 13t-47.5 51h-4q-29 -33 -75 -48.5t-94 -15.5q-67 0 -112.5 27.5zM307.5 73
q18.5 12 28.5 34v133q-125 -44 -125 -128q0 -23 16 -37t44 -14q18 0 36.5 12z" />
    <glyph glyph-name="aacute" unicode="&#xe1;" horiz-adv-x="616" 
d="M203 601l127 139q12 14 32 28.5t46 14.5q32 0 48.5 -17t16.5 -38q0 -22 -15.5 -40t-46.5 -36l-172 -101zM58.5 17.5q-45.5 27.5 -45.5 79.5q0 79 80.5 124.5t242.5 67.5v33q0 44 -26.5 66t-68.5 22q-23 0 -41.5 -6.5t-29 -16t-10.5 -17.5q0 -5 3 -16.5t3 -18.5
q0 -21 -16 -35t-47 -14q-27 0 -48.5 19.5t-21.5 54.5q0 57 65 88.5t186 31.5q73 0 130.5 -19.5t89.5 -54t32 -78.5v-239q0 -36 29 -36q9 0 22.5 3.5t20.5 4.5v-33q-24 -18 -61 -28t-78 -10q-47 0 -77.5 13t-47.5 51h-4q-29 -33 -75 -48.5t-94 -15.5q-67 0 -112.5 27.5z
M307.5 73q18.5 12 28.5 34v133q-125 -44 -125 -128q0 -23 16 -37t44 -14q18 0 36.5 12z" />
    <glyph glyph-name="acircumflex" unicode="&#xe2;" horiz-adv-x="616" 
d="M88 583l163 185h100l163 -185l-27 -30l-142 103q-30 21 -44 21t-44 -21l-142 -103zM58.5 17.5q-45.5 27.5 -45.5 79.5q0 79 80.5 124.5t242.5 67.5v33q0 44 -26.5 66t-68.5 22q-23 0 -41.5 -6.5t-29 -16t-10.5 -17.5q0 -5 3 -16.5t3 -18.5q0 -21 -16 -35t-47 -14
q-27 0 -48.5 19.5t-21.5 54.5q0 57 65 88.5t186 31.5q73 0 130.5 -19.5t89.5 -54t32 -78.5v-239q0 -36 29 -36q9 0 22.5 3.5t20.5 4.5v-33q-24 -18 -61 -28t-78 -10q-47 0 -77.5 13t-47.5 51h-4q-29 -33 -75 -48.5t-94 -15.5q-67 0 -112.5 27.5zM307.5 73q18.5 12 28.5 34
v133q-125 -44 -125 -128q0 -23 16 -37t44 -14q18 0 36.5 12z" />
    <glyph glyph-name="atilde" unicode="&#xe3;" horiz-adv-x="616" 
d="M93 567q23 53 54.5 90t86.5 37q21 0 42 -5.5t52 -16.5t52 -16.5t44 -5.5q28 0 44 12.5t34 44.5l33 -19q-21 -52 -52.5 -89.5t-87.5 -37.5q-21 0 -41 5.5t-52 16.5q-30 11 -52 16.5t-45 5.5q-28 0 -44 -12.5t-34 -44.5zM58.5 17.5q-45.5 27.5 -45.5 79.5q0 79 80.5 124.5
t242.5 67.5v33q0 44 -26.5 66t-68.5 22q-23 0 -41.5 -6.5t-29 -16t-10.5 -17.5q0 -5 3 -16.5t3 -18.5q0 -21 -16 -35t-47 -14q-27 0 -48.5 19.5t-21.5 54.5q0 57 65 88.5t186 31.5q73 0 130.5 -19.5t89.5 -54t32 -78.5v-239q0 -36 29 -36q9 0 22.5 3.5t20.5 4.5v-33
q-24 -18 -61 -28t-78 -10q-47 0 -77.5 13t-47.5 51h-4q-29 -33 -75 -48.5t-94 -15.5q-67 0 -112.5 27.5zM307.5 73q18.5 12 28.5 34v133q-125 -44 -125 -128q0 -23 16 -37t44 -14q18 0 36.5 12z" />
    <glyph glyph-name="adieresis" unicode="&#xe4;" horiz-adv-x="616" 
d="M115.5 574.5q-20.5 21.5 -20.5 53.5q0 33 20.5 54.5t54.5 21.5q35 0 56 -22t21 -54t-21 -53.5t-56 -21.5q-34 0 -54.5 21.5zM363.5 574.5q-20.5 21.5 -20.5 53.5q0 33 20.5 54.5t55.5 21.5q34 0 55 -22t21 -54t-21 -53.5t-55 -21.5q-35 0 -55.5 21.5zM58.5 17.5
q-45.5 27.5 -45.5 79.5q0 79 80.5 124.5t242.5 67.5v33q0 44 -26.5 66t-68.5 22q-23 0 -41.5 -6.5t-29 -16t-10.5 -17.5q0 -5 3 -16.5t3 -18.5q0 -21 -16 -35t-47 -14q-27 0 -48.5 19.5t-21.5 54.5q0 57 65 88.5t186 31.5q73 0 130.5 -19.5t89.5 -54t32 -78.5v-239
q0 -36 29 -36q9 0 22.5 3.5t20.5 4.5v-33q-24 -18 -61 -28t-78 -10q-47 0 -77.5 13t-47.5 51h-4q-29 -33 -75 -48.5t-94 -15.5q-67 0 -112.5 27.5zM307.5 73q18.5 12 28.5 34v133q-125 -44 -125 -128q0 -23 16 -37t44 -14q18 0 36.5 12z" />
    <glyph glyph-name="aring" unicode="&#xe5;" horiz-adv-x="616" 
d="M220.5 584q-33.5 31 -33.5 82t33.5 82.5t88.5 31.5t88.5 -31.5t33.5 -82.5t-33.5 -82t-88.5 -31t-88.5 31zM346.5 629.5q15.5 14.5 15.5 36.5q0 23 -15.5 37t-37.5 14t-37.5 -14t-15.5 -37q0 -22 15.5 -36.5t37.5 -14.5t37.5 14.5zM58.5 17.5q-45.5 27.5 -45.5 79.5
q0 79 80.5 124.5t242.5 67.5v33q0 44 -26.5 66t-68.5 22q-23 0 -41.5 -6.5t-29 -16t-10.5 -17.5q0 -5 3 -16.5t3 -18.5q0 -21 -16 -35t-47 -14q-27 0 -48.5 19.5t-21.5 54.5q0 57 65 88.5t186 31.5q73 0 130.5 -19.5t89.5 -54t32 -78.5v-239q0 -36 29 -36q9 0 22.5 3.5
t20.5 4.5v-33q-24 -18 -61 -28t-78 -10q-47 0 -77.5 13t-47.5 51h-4q-29 -33 -75 -48.5t-94 -15.5q-67 0 -112.5 27.5zM307.5 73q18.5 12 28.5 34v133q-125 -44 -125 -128q0 -23 16 -37t44 -14q18 0 36.5 12z" />
    <glyph glyph-name="ae" unicode="&#xe6;" horiz-adv-x="894" 
d="M64 17.5q-51 27.5 -51 79.5q0 77 76.5 122.5t232.5 67.5q5 26 13 45q-3 39 -28.5 58.5t-65.5 19.5q-23 0 -41.5 -6.5t-29 -16t-10.5 -17.5q0 -5 3 -16.5t3 -18.5q0 -21 -16 -35t-47 -14q-27 0 -48.5 19.5t-21.5 54.5q0 57 65 88.5t186 31.5q95 0 163 -33q69 33 164 33
q125 0 189 -57.5t64 -147.5v-32h-343v-9q0 -80 35.5 -131.5t102.5 -51.5q65 0 104 28.5t52 92.5h48q-8 -79 -68.5 -130.5t-165.5 -51.5q-158 0 -237 65q-72 -65 -193 -65q-84 0 -135 27.5zM690 306q0 40 -15 75t-59 35q-35 0 -57.5 -30t-31.5 -80h163zM319 69.5
q23 8.5 40 20.5q-42 56 -42 142q-106 -44 -106 -120q0 -23 16 -37t44 -14q25 0 48 8.5z" />
    <glyph glyph-name="ccedilla" unicode="&#xe7;" horiz-adv-x="604" 
d="M317 -10l-24 -36q43 -7 81.5 -31t38.5 -73q0 -74 -59.5 -99t-130.5 -25q-32 0 -61 4v41q59 0 93.5 15.5t34.5 53.5q0 30 -28 44t-57 16l-8 12l55 83q-114 15 -172 75.5t-58 164.5q0 70 34 125.5t100.5 87.5t159.5 32q126 0 189 -54l9 54h45v-197h-42q-20 133 -140 133
q-73 0 -112 -52t-39 -130q0 -80 34.5 -131.5t101.5 -51.5q65 0 103 28.5t51 92.5h48q-8 -79 -67.5 -130.5t-164.5 -51.5h-15z" />
    <glyph glyph-name="egrave" unicode="&#xe8;" horiz-adv-x="599" 
d="M207 688q-15 18 -15 40q0 21 16 38t48 17q26 0 46.5 -14.5t32.5 -28.5l126 -139l-35 -50l-173 101q-31 18 -46 36zM226 243v-9q0 -80 35.5 -131.5t102.5 -51.5q65 0 104 28.5t52 92.5h48q-8 -79 -68.5 -130.5t-165.5 -51.5q-153 0 -232.5 62t-79.5 183q0 73 34.5 128.5
t100.5 86t159 30.5q125 0 189 -57.5t64 -147.5v-32h-343zM264 386q-22 -30 -32 -80h163q0 40 -15 75t-59 35q-35 0 -57 -30z" />
    <glyph glyph-name="eacute" unicode="&#xe9;" horiz-adv-x="599" 
d="M260 551l-36 50l127 139q12 14 32 28.5t46 14.5q32 0 48.5 -17t16.5 -38q0 -22 -15.5 -40t-46.5 -36zM226 243v-9q0 -80 35.5 -131.5t102.5 -51.5q65 0 104 28.5t52 92.5h48q-8 -79 -68.5 -130.5t-165.5 -51.5q-153 0 -232.5 62t-79.5 183q0 73 34.5 128.5t100.5 86
t159 30.5q125 0 189 -57.5t64 -147.5v-32h-343zM264 386q-22 -30 -32 -80h163q0 40 -15 75t-59 35q-35 0 -57 -30z" />
    <glyph glyph-name="ecircumflex" unicode="&#xea;" horiz-adv-x="599" 
d="M140 553l-27 30l163 185h100l163 -185l-27 -30l-142 103q-30 21 -44 21t-44 -21zM226 243v-9q0 -80 35.5 -131.5t102.5 -51.5q65 0 104 28.5t52 92.5h48q-8 -79 -68.5 -130.5t-165.5 -51.5q-153 0 -232.5 62t-79.5 183q0 73 34.5 128.5t100.5 86t159 30.5
q125 0 189 -57.5t64 -147.5v-32h-343zM264 386q-22 -30 -32 -80h163q0 40 -15 75t-59 35q-35 0 -57 -30z" />
    <glyph glyph-name="edieresis" unicode="&#xeb;" horiz-adv-x="599" 
d="M148.5 574.5q-20.5 21.5 -20.5 53.5q0 33 20.5 54.5t54.5 21.5q35 0 56 -22t21 -54t-21 -53.5t-56 -21.5q-34 0 -54.5 21.5zM396.5 574.5q-20.5 21.5 -20.5 53.5q0 33 20.5 54.5t55.5 21.5q34 0 55 -22t21 -54t-21 -53.5t-55 -21.5q-35 0 -55.5 21.5zM226 243v-9
q0 -80 35.5 -131.5t102.5 -51.5q65 0 104 28.5t52 92.5h48q-8 -79 -68.5 -130.5t-165.5 -51.5q-153 0 -232.5 62t-79.5 183q0 73 34.5 128.5t100.5 86t159 30.5q125 0 189 -57.5t64 -147.5v-32h-343zM264 386q-22 -30 -32 -80h163q0 40 -15 75t-59 35q-35 0 -57 -30z" />
    <glyph glyph-name="igrave" unicode="&#xec;" horiz-adv-x="412" 
d="M132 652q-31 18 -46 36t-15 40q0 21 16 38t48 17q26 0 46.5 -14.5t32.5 -28.5l126 -139l-35 -50zM20 48h32q54 0 54 40v249q0 20 -10 28.5t-25 8.5q-5 0 -19 -3l-10 40l225 69h39v-392q0 -40 54 -40h32v-48h-372v48z" />
    <glyph glyph-name="iacute" unicode="&#xed;" horiz-adv-x="412" 
d="M71 601l127 139q12 14 32 28.5t46 14.5q32 0 48.5 -17t16.5 -38q0 -22 -15.5 -40t-46.5 -36l-172 -101zM20 48h32q54 0 54 40v249q0 20 -10 28.5t-25 8.5q-5 0 -19 -3l-10 40l225 69h39v-392q0 -40 54 -40h32v-48h-372v48z" />
    <glyph glyph-name="icircumflex" unicode="&#xee;" horiz-adv-x="412" 
d="M-7 583l163 185h100l163 -185l-27 -30l-142 103q-30 21 -44 21t-44 -21l-142 -103zM20 48h32q54 0 54 40v249q0 20 -10 28.5t-25 8.5q-5 0 -19 -3l-10 40l225 69h39v-392q0 -40 54 -40h32v-48h-372v48z" />
    <glyph glyph-name="idieresis" unicode="&#xef;" horiz-adv-x="412" 
d="M26.5 574.5q-20.5 21.5 -20.5 53.5q0 33 20.5 54.5t54.5 21.5q35 0 56 -22t21 -54t-21 -53.5t-56 -21.5q-34 0 -54.5 21.5zM274.5 574.5q-20.5 21.5 -20.5 53.5q0 33 20.5 54.5t55.5 21.5q34 0 55 -22t21 -54t-21 -53.5t-55 -21.5q-35 0 -55.5 21.5zM20 48h32q54 0 54 40
v249q0 20 -10 28.5t-25 8.5q-5 0 -19 -3l-10 40l225 69h39v-392q0 -40 54 -40h32v-48h-372v48z" />
    <glyph glyph-name="eth" unicode="&#xf0;" horiz-adv-x="636" 
d="M561.5 469q50.5 -92 50.5 -179q0 -142 -76 -221t-230 -79q-93 0 -158 35t-97.5 94t-32.5 129q0 64 29 121.5t94.5 95t169.5 37.5q17 0 40.5 -2t40.5 -6q-24 45 -69 90l-186 -104l-30 89q96 54 140 80q-49 36 -108 62l55 65q76 -31 144 -74l150 89l56 -83l-123 -69
q90 -78 140.5 -170zM385 118q28 61 28 151q0 43 -12.5 81.5t-35 61.5t-50.5 23q-43 0 -70 -52.5t-27 -134.5q0 -80 24 -135.5t66 -55.5q49 0 77 61z" />
    <glyph glyph-name="ntilde" unicode="&#xf1;" horiz-adv-x="758" 
d="M242 592.5q-16 -12.5 -34 -44.5l-34 19q23 53 54.5 90t86.5 37q21 0 42 -5.5t52 -16.5t52 -16.5t44 -5.5q28 0 44 12.5t34 44.5l33 -19q-21 -52 -52.5 -89.5t-87.5 -37.5q-21 0 -41 5.5t-52 16.5q-30 11 -52 16.5t-45 5.5q-28 0 -44 -12.5zM748 48v-48h-358v48h22
q50 0 50 40v236q0 84 -69 84q-19 0 -41.5 -15t-39 -49t-16.5 -88v-168q0 -40 50 -40h22v-48h-358v48h32q54 0 54 40v249q0 20 -10 28.5t-25 8.5q-5 0 -19 -3l-10 40l225 69h39v-75q25 38 72.5 56.5t97.5 18.5q98 0 147 -38t49 -103v-251q0 -40 54 -40h32z" />
    <glyph glyph-name="ograve" unicode="&#xf2;" horiz-adv-x="662" 
d="M257 652q-31 18 -46 36t-15 40q0 21 16 38t48 17q26 0 46.5 -14.5t32.5 -28.5l126 -139l-35 -50zM100 52q-78 62 -78 183t78 183t231 62t231 -62t78 -183t-78 -183t-231 -62t-231 62zM409.5 102q28.5 45 28.5 133t-28.5 133t-78.5 45t-78.5 -45t-28.5 -133t28.5 -133
t78.5 -45t78.5 45z" />
    <glyph glyph-name="oacute" unicode="&#xf3;" horiz-adv-x="662" 
d="M196 601l127 139q12 14 32 28.5t46 14.5q32 0 48.5 -17t16.5 -38q0 -22 -15.5 -40t-46.5 -36l-172 -101zM100 52q-78 62 -78 183t78 183t231 62t231 -62t78 -183t-78 -183t-231 -62t-231 62zM409.5 102q28.5 45 28.5 133t-28.5 133t-78.5 45t-78.5 -45t-28.5 -133
t28.5 -133t78.5 -45t78.5 45z" />
    <glyph glyph-name="ocircumflex" unicode="&#xf4;" horiz-adv-x="662" 
d="M118 583l163 185h100l163 -185l-27 -30l-142 103q-30 21 -44 21t-44 -21l-142 -103zM100 52q-78 62 -78 183t78 183t231 62t231 -62t78 -183t-78 -183t-231 -62t-231 62zM409.5 102q28.5 45 28.5 133t-28.5 133t-78.5 45t-78.5 -45t-28.5 -133t28.5 -133t78.5 -45
t78.5 45z" />
    <glyph glyph-name="otilde" unicode="&#xf5;" horiz-adv-x="662" 
d="M110 567q23 53 54.5 90t86.5 37q21 0 42 -5.5t52 -16.5t52 -16.5t44 -5.5q28 0 44 12.5t34 44.5l33 -19q-21 -52 -52.5 -89.5t-87.5 -37.5q-21 0 -41 5.5t-52 16.5q-30 11 -52 16.5t-45 5.5q-28 0 -44 -12.5t-34 -44.5zM100 52q-78 62 -78 183t78 183t231 62t231 -62
t78 -183t-78 -183t-231 -62t-231 62zM409.5 102q28.5 45 28.5 133t-28.5 133t-78.5 45t-78.5 -45t-28.5 -133t28.5 -133t78.5 -45t78.5 45z" />
    <glyph glyph-name="odieresis" unicode="&#xf6;" horiz-adv-x="662" 
d="M151.5 574.5q-20.5 21.5 -20.5 53.5q0 33 20.5 54.5t54.5 21.5q35 0 56 -22t21 -54t-21 -53.5t-56 -21.5q-34 0 -54.5 21.5zM399.5 574.5q-20.5 21.5 -20.5 53.5q0 33 20.5 54.5t55.5 21.5q34 0 55 -22t21 -54t-21 -53.5t-55 -21.5q-35 0 -55.5 21.5zM100 52
q-78 62 -78 183t78 183t231 62t231 -62t78 -183t-78 -183t-231 -62t-231 62zM409.5 102q28.5 45 28.5 133t-28.5 133t-78.5 45t-78.5 -45t-28.5 -133t28.5 -133t78.5 -45t78.5 45z" />
    <glyph glyph-name="divide" unicode="&#xf7;" horiz-adv-x="621" 
d="M234.5 410.5q-24.5 25.5 -24.5 64.5t24.5 65t65.5 26t65.5 -26t24.5 -65t-24.5 -64.5t-65.5 -25.5t-65.5 25.5zM31 346h559v-97h-559v97zM234.5 55q-24.5 26 -24.5 65t24.5 64.5t65.5 25.5t65.5 -25.5t24.5 -64.5t-24.5 -65t-65.5 -26t-65.5 26z" />
    <glyph glyph-name="oslash" unicode="&#xf8;" horiz-adv-x="662" 
d="M640 235q0 -121 -78 -183t-231 -62q-113 0 -187 34l-61 -59l-54 47l55 54q-62 60 -62 169q0 121 78 183t231 62q88 0 153 -21l73 72l57 -50l-59 -57q85 -62 85 -189zM225 205l177 174q-27 34 -71 34q-50 0 -78.5 -45t-28.5 -133q0 -21 1 -30zM409.5 102q28.5 45 28.5 133
q0 39 -6 69l-189 -184q27 -63 88 -63q50 0 78.5 45z" />
    <glyph glyph-name="ugrave" unicode="&#xf9;" horiz-adv-x="722" 
d="M230 688q-15 18 -15 40q0 21 16 38t48 17q26 0 46.5 -14.5t32.5 -28.5l126 -139l-35 -50l-173 101q-31 18 -46 36zM691.5 56.5q13.5 3.5 20.5 4.5v-33q-24 -18 -61 -28t-78 -10q-47 0 -87 18t-45 58q-25 -39 -73 -57.5t-98 -18.5q-98 0 -147 38t-49 103v206
q0 20 -10 28.5t-25 8.5q-5 0 -19 -3l-10 40l225 69h39v-334q0 -84 69 -84q19 0 41.5 15t39 49t16.5 88v123q0 20 -10 28.5t-25 8.5q-5 0 -19 -3l-10 40l225 69h39v-391q0 -36 29 -36q9 0 22.5 3.5z" />
    <glyph glyph-name="uacute" unicode="&#xfa;" horiz-adv-x="722" 
d="M304 551l-36 50l127 139q12 14 32 28.5t46 14.5q32 0 48.5 -17t16.5 -38q0 -22 -15.5 -40t-46.5 -36zM691.5 56.5q13.5 3.5 20.5 4.5v-33q-24 -18 -61 -28t-78 -10q-47 0 -87 18t-45 58q-25 -39 -73 -57.5t-98 -18.5q-98 0 -147 38t-49 103v206q0 20 -10 28.5t-25 8.5
q-5 0 -19 -3l-10 40l225 69h39v-334q0 -84 69 -84q19 0 41.5 15t39 49t16.5 88v123q0 20 -10 28.5t-25 8.5q-5 0 -19 -3l-10 40l225 69h39v-391q0 -36 29 -36q9 0 22.5 3.5z" />
    <glyph glyph-name="ucircumflex" unicode="&#xfb;" horiz-adv-x="722" 
d="M164 553l-27 30l163 185h100l163 -185l-27 -30l-142 103q-30 21 -44 21t-44 -21zM691.5 56.5q13.5 3.5 20.5 4.5v-33q-24 -18 -61 -28t-78 -10q-47 0 -87 18t-45 58q-25 -39 -73 -57.5t-98 -18.5q-98 0 -147 38t-49 103v206q0 20 -10 28.5t-25 8.5q-5 0 -19 -3l-10 40
l225 69h39v-334q0 -84 69 -84q19 0 41.5 15t39 49t16.5 88v123q0 20 -10 28.5t-25 8.5q-5 0 -19 -3l-10 40l225 69h39v-391q0 -36 29 -36q9 0 22.5 3.5z" />
    <glyph glyph-name="udieresis" unicode="&#xfc;" horiz-adv-x="722" 
d="M170.5 574.5q-20.5 21.5 -20.5 53.5q0 33 20.5 54.5t54.5 21.5q35 0 56 -22t21 -54t-21 -53.5t-56 -21.5q-34 0 -54.5 21.5zM418.5 574.5q-20.5 21.5 -20.5 53.5q0 33 20.5 54.5t55.5 21.5q34 0 55 -22t21 -54t-21 -53.5t-55 -21.5q-35 0 -55.5 21.5zM691.5 56.5
q13.5 3.5 20.5 4.5v-33q-24 -18 -61 -28t-78 -10q-47 0 -87 18t-45 58q-25 -39 -73 -57.5t-98 -18.5q-98 0 -147 38t-49 103v206q0 20 -10 28.5t-25 8.5q-5 0 -19 -3l-10 40l225 69h39v-334q0 -84 69 -84q19 0 41.5 15t39 49t16.5 88v123q0 20 -10 28.5t-25 8.5q-5 0 -19 -3
l-10 40l225 69h39v-391q0 -36 29 -36q9 0 22.5 3.5z" />
    <glyph glyph-name="yacute" unicode="&#xfd;" horiz-adv-x="668" 
d="M295 551l-36 50l127 139q12 14 32 28.5t46 14.5q32 0 48.5 -17t16.5 -38q0 -22 -15.5 -40t-46.5 -36zM658 470v-48h-17q-22 0 -41 -9.5t-27 -29.5l-218 -482q-52 -115 -170 -115q-47 0 -73 17.5t-26 45.5q0 21 10.5 37t36.5 16q11 0 19 -5.5t17 -15.5q13 -15 24 -15
q30 0 48.5 23t35.5 61l25 54l-217 382q-11 20 -23 28t-28 8h-24v48h325v-48h-24q-19 0 -31 -7.5t-12 -20.5q0 -7 4 -15l109 -200l87 192q5 12 5 19q0 16 -13 24t-27 8h-24v48h249z" />
    <glyph glyph-name="thorn" unicode="&#xfe;" horiz-adv-x="692" 
d="M10 -178h32q54 0 54 40v695q0 20 -10 28.5t-25 8.5q-5 0 -19 -3l-10 40l225 69h39v-271q49 51 149 51q65 0 116 -26.5t80 -79.5t29 -128q0 -137 -67 -196.5t-195 -59.5q-34 0 -64.5 11.5t-47.5 31.5v-170q0 -41 54 -41h27v-48h-367v48zM450.5 105q21.5 48 21.5 136
q0 90 -22.5 131t-73.5 41q-17 0 -36 -12.5t-31.5 -35.5t-12.5 -54v-145q0 -48 22 -78.5t62 -30.5q49 0 70.5 48z" />
    <glyph glyph-name="ydieresis" unicode="&#xff;" horiz-adv-x="668" 
d="M185.5 574.5q-20.5 21.5 -20.5 53.5q0 33 20.5 54.5t54.5 21.5q35 0 56 -22t21 -54t-21 -53.5t-56 -21.5q-34 0 -54.5 21.5zM433.5 574.5q-20.5 21.5 -20.5 53.5q0 33 20.5 54.5t55.5 21.5q34 0 55 -22t21 -54t-21 -53.5t-55 -21.5q-35 0 -55.5 21.5zM658 470v-48h-17
q-22 0 -41 -9.5t-27 -29.5l-218 -482q-52 -115 -170 -115q-47 0 -73 17.5t-26 45.5q0 21 10.5 37t36.5 16q11 0 19 -5.5t17 -15.5q13 -15 24 -15q30 0 48.5 23t35.5 61l25 54l-217 382q-11 20 -23 28t-28 8h-24v48h325v-48h-24q-19 0 -31 -7.5t-12 -20.5q0 -7 4 -15
l109 -200l87 192q5 12 5 19q0 16 -13 24t-27 8h-24v48h249z" />
    <glyph glyph-name="Amacron" unicode="&#x100;" horiz-adv-x="827" 
d="M636 775h-430v75h430v-75zM823 48v-48h-361v48h24q35 0 35 25q0 8 -3 18l-30 83h-249l-29 -75q-4 -9 -4 -19q0 -16 12 -24t27 -8h24v-48h-265v48h17q22 0 41 9.5t27 29.5l238 589l155 52l266 -644q15 -36 51 -36h24zM463 242l-97 267l-102 -267h199z" />
    <glyph glyph-name="amacron" unicode="&#x101;" horiz-adv-x="616" 
d="M80 628h430v-75h-430v75zM58.5 17.5q-45.5 27.5 -45.5 79.5q0 79 80.5 124.5t242.5 67.5v33q0 44 -26.5 66t-68.5 22q-23 0 -41.5 -6.5t-29 -16t-10.5 -17.5q0 -5 3 -16.5t3 -18.5q0 -21 -16 -35t-47 -14q-27 0 -48.5 19.5t-21.5 54.5q0 57 65 88.5t186 31.5
q73 0 130.5 -19.5t89.5 -54t32 -78.5v-239q0 -36 29 -36q9 0 22.5 3.5t20.5 4.5v-33q-24 -18 -61 -28t-78 -10q-47 0 -77.5 13t-47.5 51h-4q-29 -33 -75 -48.5t-94 -15.5q-67 0 -112.5 27.5zM307.5 73q18.5 12 28.5 34v133q-125 -44 -125 -128q0 -23 16 -37t44 -14
q18 0 36.5 12z" />
    <glyph glyph-name="Abreve" unicode="&#x102;" horiz-adv-x="827" 
d="M278.5 822q-36.5 45 -36.5 115h45q2 -28 30.5 -52.5t97.5 -24.5t97.5 24.5t30.5 52.5h46q0 -160 -173 -160q-101 0 -137.5 45zM823 48v-48h-361v48h24q35 0 35 25q0 8 -3 18l-30 83h-249l-29 -75q-4 -9 -4 -19q0 -16 12 -24t27 -8h24v-48h-265v48h17q22 0 41 9.5t27 29.5
l238 589l155 52l266 -644q15 -36 51 -36h24zM463 242l-97 267l-102 -267h199z" />
    <glyph glyph-name="abreve" unicode="&#x103;" horiz-adv-x="616" 
d="M159.5 600q-36.5 45 -36.5 115h45q2 -28 30.5 -52.5t97.5 -24.5t97.5 24.5t30.5 52.5h46q0 -160 -173 -160q-101 0 -137.5 45zM58.5 17.5q-45.5 27.5 -45.5 79.5q0 79 80.5 124.5t242.5 67.5v33q0 44 -26.5 66t-68.5 22q-23 0 -41.5 -6.5t-29 -16t-10.5 -17.5
q0 -5 3 -16.5t3 -18.5q0 -21 -16 -35t-47 -14q-27 0 -48.5 19.5t-21.5 54.5q0 57 65 88.5t186 31.5q73 0 130.5 -19.5t89.5 -54t32 -78.5v-239q0 -36 29 -36q9 0 22.5 3.5t20.5 4.5v-33q-24 -18 -61 -28t-78 -10q-47 0 -77.5 13t-47.5 51h-4q-29 -33 -75 -48.5t-94 -15.5
q-67 0 -112.5 27.5zM307.5 73q18.5 12 28.5 34v133q-125 -44 -125 -128q0 -23 16 -37t44 -14q18 0 36.5 12z" />
    <glyph glyph-name="Aogonek" unicode="&#x104;" horiz-adv-x="827" 
d="M869 -197q-28 -23 -58.5 -34.5t-56.5 -11.5q-71 0 -99.5 32t-28.5 71q0 38 28.5 74.5t75.5 65.5h-268v48h24q35 0 35 25q0 8 -3 18l-30 83h-249l-29 -75q-4 -9 -4 -19q0 -16 12 -24t27 -8h24v-48h-265v48h17q22 0 41 9.5t27 29.5l238 589l155 52l266 -644q15 -36 51 -36
h24v-48h-18q-63 -59 -63 -120q1 -31 17.5 -47t42.5 -16q12 0 26.5 4t24.5 10zM463 242l-97 267l-102 -267h199z" />
    <glyph glyph-name="aogonek" unicode="&#x105;" horiz-adv-x="616" 
d="M515 -7q-43 -49 -43 -99q1 -31 17.5 -47t42.5 -16q12 0 26.5 4t24.5 10l16 -28q-28 -23 -58.5 -34.5t-56.5 -11.5q-71 0 -99.5 32t-28.5 71q0 61 73 118q-62 9 -85 62h-4q-29 -33 -75 -48.5t-94 -15.5q-67 0 -112.5 27.5t-45.5 79.5q0 79 80.5 124.5t242.5 67.5v33
q0 44 -26.5 66t-68.5 22q-23 0 -41.5 -6.5t-29 -16t-10.5 -17.5q0 -5 3 -16.5t3 -18.5q0 -21 -16 -35t-47 -14q-27 0 -48.5 19.5t-21.5 54.5q0 57 65 88.5t186 31.5q73 0 130.5 -19.5t89.5 -54t32 -78.5v-239q0 -36 29 -36q9 0 22.5 3.5t20.5 4.5v-33q-32 -25 -93 -35z
M336 240q-125 -44 -125 -128q0 -23 16 -37t44 -14q18 0 36.5 12t28.5 34v133z" />
    <glyph glyph-name="Cacute" unicode="&#x106;" horiz-adv-x="740" 
d="M327 823l127 139q12 14 32 28.5t46 14.5q32 0 48.5 -17t16.5 -38q0 -22 -15.5 -40t-46.5 -36l-172 -101zM196.5 35q-83.5 45 -124.5 126t-41 189t40.5 189t123 126t203.5 45q126 0 214 -56q3 -3 9 -3q8 0 8 8v46h65v-219h-57q-11 81 -65.5 117t-124.5 36
q-61 0 -107.5 -34t-72 -99.5t-25.5 -155.5q0 -139 49 -214t138 -75q154 0 211 115h67q-12 -51 -50.5 -93.5t-103 -67.5t-149.5 -25q-124 0 -207.5 45z" />
    <glyph glyph-name="cacute" unicode="&#x107;" horiz-adv-x="604" 
d="M229 601l127 139q12 14 32 28.5t46 14.5q32 0 48.5 -17t16.5 -38q0 -22 -15.5 -40t-46.5 -36l-172 -101zM100.5 52q-78.5 62 -78.5 183q0 70 34 125.5t100.5 87.5t159.5 32q126 0 189 -54l9 54h45v-197h-42q-20 133 -140 133q-73 0 -112 -52t-39 -130q0 -80 34.5 -131.5
t101.5 -51.5q65 0 103 28.5t51 92.5h48q-8 -79 -67.5 -130.5t-164.5 -51.5q-153 0 -231.5 62z" />
    <glyph glyph-name="Ccircumflex" unicode="&#x108;" horiz-adv-x="740" 
d="M202 805l163 185h100l163 -185l-27 -30l-142 103q-30 21 -44 21t-44 -21l-142 -103zM196.5 35q-83.5 45 -124.5 126t-41 189t40.5 189t123 126t203.5 45q126 0 214 -56q3 -3 9 -3q8 0 8 8v46h65v-219h-57q-11 81 -65.5 117t-124.5 36q-61 0 -107.5 -34t-72 -99.5
t-25.5 -155.5q0 -139 49 -214t138 -75q154 0 211 115h67q-12 -51 -50.5 -93.5t-103 -67.5t-149.5 -25q-124 0 -207.5 45z" />
    <glyph glyph-name="ccircumflex" unicode="&#x109;" horiz-adv-x="604" 
d="M133 582l163 185h100l163 -185l-27 -30l-142 103q-30 21 -44 21t-44 -21l-142 -103zM100.5 52q-78.5 62 -78.5 183q0 70 34 125.5t100.5 87.5t159.5 32q126 0 189 -54l9 54h45v-197h-42q-20 133 -140 133q-73 0 -112 -52t-39 -130q0 -80 34.5 -131.5t101.5 -51.5
q65 0 103 28.5t51 92.5h48q-8 -79 -67.5 -130.5t-164.5 -51.5q-153 0 -231.5 62z" />
    <glyph glyph-name="Cdotaccent" unicode="&#x10a;" horiz-adv-x="740" 
d="M380.5 796.5q-20.5 21.5 -20.5 53.5q0 33 20.5 54.5t54.5 21.5t55 -22t21 -54t-21 -53.5t-55 -21.5t-54.5 21.5zM196.5 35q-83.5 45 -124.5 126t-41 189t40.5 189t123 126t203.5 45q126 0 214 -56q3 -3 9 -3q8 0 8 8v46h65v-219h-57q-11 81 -65.5 117t-124.5 36
q-61 0 -107.5 -34t-72 -99.5t-25.5 -155.5q0 -139 49 -214t138 -75q154 0 211 115h67q-12 -51 -50.5 -93.5t-103 -67.5t-149.5 -25q-124 0 -207.5 45z" />
    <glyph glyph-name="cdotaccent" unicode="&#x10b;" horiz-adv-x="604" 
d="M291.5 574.5q-20.5 21.5 -20.5 53.5q0 33 20.5 54.5t54.5 21.5t55 -22t21 -54t-21 -53.5t-55 -21.5t-54.5 21.5zM100.5 52q-78.5 62 -78.5 183q0 70 34 125.5t100.5 87.5t159.5 32q126 0 189 -54l9 54h45v-197h-42q-20 133 -140 133q-73 0 -112 -52t-39 -130
q0 -80 34.5 -131.5t101.5 -51.5q65 0 103 28.5t51 92.5h48q-8 -79 -67.5 -130.5t-164.5 -51.5q-153 0 -231.5 62z" />
    <glyph glyph-name="Ccaron" unicode="&#x10c;" horiz-adv-x="740" 
d="M215 960l27 30l142 -103q30 -21 44 -21t44 21l142 103l27 -30l-163 -185h-100zM196.5 35q-83.5 45 -124.5 126t-41 189t40.5 189t123 126t203.5 45q126 0 214 -56q3 -3 9 -3q8 0 8 8v46h65v-219h-57q-11 81 -65.5 117t-124.5 36q-61 0 -107.5 -34t-72 -99.5t-25.5 -155.5
q0 -139 49 -214t138 -75q154 0 211 115h67q-12 -51 -50.5 -93.5t-103 -67.5t-149.5 -25q-124 0 -207.5 45z" />
    <glyph glyph-name="ccaron" unicode="&#x10d;" horiz-adv-x="604" 
d="M127 738l27 30l142 -103q30 -21 44 -21t44 21l142 103l27 -30l-163 -185h-100zM100.5 52q-78.5 62 -78.5 183q0 70 34 125.5t100.5 87.5t159.5 32q126 0 189 -54l9 54h45v-197h-42q-20 133 -140 133q-73 0 -112 -52t-39 -130q0 -80 34.5 -131.5t101.5 -51.5
q65 0 103 28.5t51 92.5h48q-8 -79 -67.5 -130.5t-164.5 -51.5q-153 0 -231.5 62z" />
    <glyph glyph-name="Dcaron" unicode="&#x10e;" horiz-adv-x="789" 
d="M142 960l27 30l142 -103q30 -21 44 -21t44 21l142 103l27 -30l-163 -185h-100zM10 48h32q54 0 54 40v524q0 40 -54 40h-32v48h370q191 0 279.5 -86t88.5 -264q0 -179 -88.5 -264.5t-280.5 -85.5h-369v48zM378 68q75 0 117 71t42 211q0 139 -41 210.5t-117 71.5h-75v-564
h74z" />
    <glyph glyph-name="dcaron" unicode="&#x10f;" horiz-adv-x="806" 
d="M30 246q0 75 29 128t80 79.5t116 26.5q99 0 148 -51v145q0 20 -10 28.5t-25 8.5q-5 0 -19 -3l-10 40l225 69h39v-619q0 -21 9 -30t36 -9h32v-48l-240 -21l-6 79q-26 -39 -68.5 -59t-107.5 -20q-228 0 -228 256zM643 412q61 63 61 124q0 15 -6 27t-17 29q-11 15 -17 27.5
t-6 27.5q0 28 22 48.5t57 20.5q40 0 66 -29.5t26 -80.5q0 -61 -47 -122t-108 -100zM381.5 91q22.5 34 22.5 83v137q0 31 -12.5 54t-31.5 35.5t-36 12.5q-51 0 -73.5 -41t-22.5 -131q0 -88 21.5 -136t70.5 -48q39 0 61.5 34z" />
    <glyph glyph-name="Dcroat" unicode="&#x110;" horiz-adv-x="789" 
d="M659.5 614q88.5 -86 88.5 -264q0 -179 -88.5 -264.5t-280.5 -85.5h-369v48h32q54 0 54 40v203h-86v87h86v234q0 40 -54 40h-32v48h370q191 0 279.5 -86zM495 139q42 71 42 211q0 139 -41 210.5t-117 71.5h-75v-254h181v-87h-181v-223h74q75 0 117 71z" />
    <glyph glyph-name="dcroat" unicode="&#x111;" horiz-adv-x="684" 
d="M680 59v-48l-240 -21l-6 79q-26 -39 -68.5 -59t-107.5 -20q-228 0 -228 256q0 75 29 128t80 79.5t116 26.5q99 0 148 -51v89h-151v53h151v3q0 20 -10 28.5t-25 8.5q-5 0 -19 -3l-10 40l225 69h39v-146h46v-53h-46v-420q0 -21 9 -30t36 -9h32zM404 311q0 31 -12.5 54
t-31.5 35.5t-36 12.5q-51 0 -73.5 -41t-22.5 -131q0 -88 21.5 -136t70.5 -48q39 0 61.5 34t22.5 83v137z" />
    <glyph glyph-name="Emacron" unicode="&#x112;" horiz-adv-x="691" 
d="M604 775h-430v75h430v-75zM661 203l-22 -203h-629v48h32q54 0 54 40v524q0 40 -54 40h-32v48h630v-204h-49q-15 136 -116 136h-171v-237h120q30 0 40.5 22.5t14.5 64.5h39v-242h-39q-4 42 -14.5 64.5t-40.5 22.5h-120v-259h201q51 0 74 34.5t33 100.5h49z" />
    <glyph glyph-name="emacron" unicode="&#x113;" horiz-adv-x="599" 
d="M533 553h-430v75h430v-75zM226 243v-9q0 -80 35.5 -131.5t102.5 -51.5q65 0 104 28.5t52 92.5h48q-8 -79 -68.5 -130.5t-165.5 -51.5q-153 0 -232.5 62t-79.5 183q0 73 34.5 128.5t100.5 86t159 30.5q125 0 189 -57.5t64 -147.5v-32h-343zM264 386q-22 -30 -32 -80h163
q0 40 -15 75t-59 35q-35 0 -57 -30z" />
    <glyph glyph-name="Ebreve" unicode="&#x114;" horiz-adv-x="691" 
d="M260.5 822q-36.5 45 -36.5 115h45q2 -28 30.5 -52.5t97.5 -24.5t97.5 24.5t30.5 52.5h46q0 -160 -173 -160q-101 0 -137.5 45zM661 203l-22 -203h-629v48h32q54 0 54 40v524q0 40 -54 40h-32v48h630v-204h-49q-15 136 -116 136h-171v-237h120q30 0 40.5 22.5t14.5 64.5
h39v-242h-39q-4 42 -14.5 64.5t-40.5 22.5h-120v-259h201q51 0 74 34.5t33 100.5h49z" />
    <glyph glyph-name="ebreve" unicode="&#x115;" horiz-adv-x="599" 
d="M170.5 600q-36.5 45 -36.5 115h45q2 -28 30.5 -52.5t97.5 -24.5t97.5 24.5t30.5 52.5h46q0 -160 -173 -160q-101 0 -137.5 45zM226 243v-9q0 -80 35.5 -131.5t102.5 -51.5q65 0 104 28.5t52 92.5h48q-8 -79 -68.5 -130.5t-165.5 -51.5q-153 0 -232.5 62t-79.5 183
q0 73 34.5 128.5t100.5 86t159 30.5q125 0 189 -57.5t64 -147.5v-32h-343zM264 386q-22 -30 -32 -80h163q0 40 -15 75t-59 35q-35 0 -57 -30z" />
    <glyph glyph-name="Edotaccent" unicode="&#x116;" horiz-adv-x="691" 
d="M347.5 796.5q-20.5 21.5 -20.5 53.5q0 33 20.5 54.5t54.5 21.5t55 -22t21 -54t-21 -53.5t-55 -21.5t-54.5 21.5zM661 203l-22 -203h-629v48h32q54 0 54 40v524q0 40 -54 40h-32v48h630v-204h-49q-15 136 -116 136h-171v-237h120q30 0 40.5 22.5t14.5 64.5h39v-242h-39
q-4 42 -14.5 64.5t-40.5 22.5h-120v-259h201q51 0 74 34.5t33 100.5h49z" />
    <glyph glyph-name="edotaccent" unicode="&#x117;" horiz-adv-x="599" 
d="M271.5 574.5q-20.5 21.5 -20.5 53.5q0 33 20.5 54.5t54.5 21.5t55 -22t21 -54t-21 -53.5t-55 -21.5t-54.5 21.5zM226 243v-9q0 -80 35.5 -131.5t102.5 -51.5q65 0 104 28.5t52 92.5h48q-8 -79 -68.5 -130.5t-165.5 -51.5q-153 0 -232.5 62t-79.5 183q0 73 34.5 128.5
t100.5 86t159 30.5q125 0 189 -57.5t64 -147.5v-32h-343zM264 386q-22 -30 -32 -80h163q0 40 -15 75t-59 35q-35 0 -57 -30z" />
    <glyph glyph-name="Eogonek" unicode="&#x118;" horiz-adv-x="691" 
d="M620.5 -179q14.5 4 24.5 10l16 -28q-28 -23 -58.5 -34.5t-56.5 -11.5q-71 0 -99.5 32t-28.5 71q0 38 28.5 74.5t75.5 65.5h-512v48h32q54 0 54 40v524q0 40 -54 40h-32v48h630v-204h-49q-15 136 -116 136h-171v-237h120q30 0 40.5 22.5t14.5 64.5h39v-242h-39
q-4 42 -14.5 64.5t-40.5 22.5h-120v-259h201q51 0 74 34.5t33 100.5h49l-22 -203h-42q-63 -59 -63 -120q1 -31 17.5 -47t42.5 -16q12 0 26.5 4z" />
    <glyph glyph-name="eogonek" unicode="&#x119;" horiz-adv-x="599" 
d="M226 243v-9q0 -80 35.5 -131.5t102.5 -51.5q65 0 104 28.5t52 92.5h48q-5 -42 -24.5 -77.5t-53.5 -60.5q-50 -53 -50 -107q1 -31 17.5 -47t42.5 -16q12 0 26.5 4t24.5 10l16 -28q-28 -23 -58.5 -34.5t-56.5 -11.5q-71 0 -99.5 32t-28.5 71q0 41 36 84q-8 -1 -26 -1
q-153 0 -232.5 62t-79.5 183q0 73 34.5 128.5t100.5 86t159 30.5q125 0 189 -57.5t64 -147.5v-32h-343zM264 386q-22 -30 -32 -80h163q0 40 -15 75t-59 35q-35 0 -57 -30z" />
    <glyph glyph-name="Ecaron" unicode="&#x11a;" horiz-adv-x="691" 
d="M344 775l-163 185l27 30l142 -103q30 -21 44 -21t44 21l142 103l27 -30l-163 -185h-100zM661 203l-22 -203h-629v48h32q54 0 54 40v524q0 40 -54 40h-32v48h630v-204h-49q-15 136 -116 136h-171v-237h120q30 0 40.5 22.5t14.5 64.5h39v-242h-39q-4 42 -14.5 64.5
t-40.5 22.5h-120v-259h201q51 0 74 34.5t33 100.5h49z" />
    <glyph glyph-name="ecaron" unicode="&#x11b;" horiz-adv-x="599" 
d="M279 553l-163 185l27 30l142 -103q30 -21 44 -21t44 21l142 103l27 -30l-163 -185h-100zM226 243v-9q0 -80 35.5 -131.5t102.5 -51.5q65 0 104 28.5t52 92.5h48q-8 -79 -68.5 -130.5t-165.5 -51.5q-153 0 -232.5 62t-79.5 183q0 73 34.5 128.5t100.5 86t159 30.5
q125 0 189 -57.5t64 -147.5v-32h-343zM264 386q-22 -30 -32 -80h163q0 40 -15 75t-59 35q-35 0 -57 -30z" />
    <glyph glyph-name="Gcircumflex" unicode="&#x11c;" horiz-adv-x="791" 
d="M214 805l163 185h100l163 -185l-27 -30l-142 103q-30 21 -44 21t-44 -21l-142 -103zM196.5 35q-83.5 45 -124.5 126t-41 189t42 189t125.5 126t204.5 45q70 0 125.5 -16t93.5 -40q3 -3 9 -3q8 0 8 8v46h65v-219h-57q-11 81 -67.5 117t-127.5 36q-61 0 -108.5 -34
t-74.5 -99.5t-27 -155.5q0 -139 49 -214t138 -75q49 0 87 11v188q0 49 -60 49h-17v39h346v-31h-19q-23 0 -36 -12t-13 -29v-212q-80 -46 -150.5 -60t-162.5 -14q-124 0 -207.5 45z" />
    <glyph glyph-name="gcircumflex" unicode="&#x11d;" horiz-adv-x="608" 
d="M91 553l-27 30l163 185h100l163 -185l-27 -30l-142 103q-30 21 -44 21t-44 -21zM635 461.5q29 -18.5 29 -47.5q0 -28 -15 -43.5t-43 -15.5q-17 0 -25 6.5t-16 20.5t-16.5 21t-25.5 7q-7 0 -25 -5q28 -35 28 -88q0 -79 -64.5 -119.5t-187.5 -40.5q-66 0 -114 12
q-16 -15 -16 -30q0 -12 8.5 -18.5t24.5 -6.5h207q79 0 127 -34.5t48 -97.5q0 -76 -73 -122.5t-219 -46.5q-249 0 -249 123q0 29 19.5 48.5t51.5 29.5q-31 11 -44.5 33t-13.5 49q0 49 69 94q-78 40 -78 127q0 80 64.5 121.5t187.5 41.5q115 0 178 -36q28 21 55 28.5t58 7.5
q41 0 70 -18.5zM328 317q0 98 -54 98t-54 -98q0 -97 54 -97t54 97zM151 -59q0 -33 31 -50.5t87 -17.5q54 0 84.5 18t30.5 51q0 19 -14 32t-43 13h-157q-19 -14 -19 -46z" />
    <glyph glyph-name="Gbreve" unicode="&#x11e;" horiz-adv-x="791" 
d="M276.5 822q-36.5 45 -36.5 115h45q2 -28 30.5 -52.5t97.5 -24.5t97.5 24.5t30.5 52.5h46q0 -160 -173 -160q-101 0 -137.5 45zM196.5 35q-83.5 45 -124.5 126t-41 189t42 189t125.5 126t204.5 45q70 0 125.5 -16t93.5 -40q3 -3 9 -3q8 0 8 8v46h65v-219h-57
q-11 81 -67.5 117t-127.5 36q-61 0 -108.5 -34t-74.5 -99.5t-27 -155.5q0 -139 49 -214t138 -75q49 0 87 11v188q0 49 -60 49h-17v39h346v-31h-19q-23 0 -36 -12t-13 -29v-212q-80 -46 -150.5 -60t-162.5 -14q-124 0 -207.5 45z" />
    <glyph glyph-name="gbreve" unicode="&#x11f;" horiz-adv-x="608" 
d="M136.5 600q-36.5 45 -36.5 115h45q2 -28 30.5 -52.5t97.5 -24.5t97.5 24.5t30.5 52.5h46q0 -160 -173 -160q-101 0 -137.5 45zM635 461.5q29 -18.5 29 -47.5q0 -28 -15 -43.5t-43 -15.5q-17 0 -25 6.5t-16 20.5t-16.5 21t-25.5 7q-7 0 -25 -5q28 -35 28 -88
q0 -79 -64.5 -119.5t-187.5 -40.5q-66 0 -114 12q-16 -15 -16 -30q0 -12 8.5 -18.5t24.5 -6.5h207q79 0 127 -34.5t48 -97.5q0 -76 -73 -122.5t-219 -46.5q-249 0 -249 123q0 29 19.5 48.5t51.5 29.5q-31 11 -44.5 33t-13.5 49q0 49 69 94q-78 40 -78 127q0 80 64.5 121.5
t187.5 41.5q115 0 178 -36q28 21 55 28.5t58 7.5q41 0 70 -18.5zM328 317q0 98 -54 98t-54 -98q0 -97 54 -97t54 97zM151 -59q0 -33 31 -50.5t87 -17.5q54 0 84.5 18t30.5 51q0 19 -14 32t-43 13h-157q-19 -14 -19 -46z" />
    <glyph glyph-name="Gdotaccent" unicode="&#x120;" horiz-adv-x="791" 
d="M379.5 796.5q-20.5 21.5 -20.5 53.5q0 33 20.5 54.5t54.5 21.5t55 -22t21 -54t-21 -53.5t-55 -21.5t-54.5 21.5zM196.5 35q-83.5 45 -124.5 126t-41 189t42 189t125.5 126t204.5 45q70 0 125.5 -16t93.5 -40q3 -3 9 -3q8 0 8 8v46h65v-219h-57q-11 81 -67.5 117
t-127.5 36q-61 0 -108.5 -34t-74.5 -99.5t-27 -155.5q0 -139 49 -214t138 -75q49 0 87 11v188q0 49 -60 49h-17v39h346v-31h-19q-23 0 -36 -12t-13 -29v-212q-80 -46 -150.5 -60t-162.5 -14q-124 0 -207.5 45z" />
    <glyph glyph-name="gdotaccent" unicode="&#x121;" horiz-adv-x="608" 
d="M221.5 574.5q-20.5 21.5 -20.5 53.5q0 33 20.5 54.5t54.5 21.5t55 -22t21 -54t-21 -53.5t-55 -21.5t-54.5 21.5zM635 461.5q29 -18.5 29 -47.5q0 -28 -15 -43.5t-43 -15.5q-17 0 -25 6.5t-16 20.5t-16.5 21t-25.5 7q-7 0 -25 -5q28 -35 28 -88q0 -79 -64.5 -119.5
t-187.5 -40.5q-66 0 -114 12q-16 -15 -16 -30q0 -12 8.5 -18.5t24.5 -6.5h207q79 0 127 -34.5t48 -97.5q0 -76 -73 -122.5t-219 -46.5q-249 0 -249 123q0 29 19.5 48.5t51.5 29.5q-31 11 -44.5 33t-13.5 49q0 49 69 94q-78 40 -78 127q0 80 64.5 121.5t187.5 41.5
q115 0 178 -36q28 21 55 28.5t58 7.5q41 0 70 -18.5zM328 317q0 98 -54 98t-54 -98q0 -97 54 -97t54 97zM151 -59q0 -33 31 -50.5t87 -17.5q54 0 84.5 18t30.5 51q0 19 -14 32t-43 13h-157q-19 -14 -19 -46z" />
    <glyph glyph-name="Gcommaaccent" unicode="&#x122;" horiz-adv-x="791" 
d="M196.5 35q-83.5 45 -124.5 126t-41 189t42 189t125.5 126t204.5 45q70 0 125.5 -16t93.5 -40q3 -3 9 -3q8 0 8 8v46h65v-219h-57q-11 81 -67.5 117t-127.5 36q-61 0 -108.5 -34t-74.5 -99.5t-27 -155.5q0 -139 49 -214t138 -75q49 0 87 11v188q0 49 -60 49h-17v39h346
v-31h-19q-23 0 -36 -12t-13 -29v-212q-80 -46 -150.5 -60t-162.5 -14q-124 0 -207.5 45zM328 -381q61 63 61 124q0 15 -6 27t-17 29q-11 15 -17 27.5t-6 27.5q0 28 22 48.5t57 20.5q40 0 66 -29.5t26 -80.5q0 -61 -47 -122t-108 -100z" />
    <glyph glyph-name="gcommaaccent" unicode="&#x123;" horiz-adv-x="608" 
d="M205 574.5q-26 29.5 -26 80.5q0 61 47 122t108 100l31 -28q-61 -63 -61 -124q0 -15 6 -27t17 -29q11 -15 17 -27.5t6 -27.5q0 -28 -22 -48.5t-57 -20.5q-40 0 -66 29.5zM635 461.5q29 -18.5 29 -47.5q0 -28 -15 -43.5t-43 -15.5q-17 0 -25 6.5t-16 20.5t-16.5 21t-25.5 7
q-7 0 -25 -5q28 -35 28 -88q0 -79 -64.5 -119.5t-187.5 -40.5q-66 0 -114 12q-16 -15 -16 -30q0 -12 8.5 -18.5t24.5 -6.5h207q79 0 127 -34.5t48 -97.5q0 -76 -73 -122.5t-219 -46.5q-249 0 -249 123q0 29 19.5 48.5t51.5 29.5q-31 11 -44.5 33t-13.5 49q0 49 69 94
q-78 40 -78 127q0 80 64.5 121.5t187.5 41.5q115 0 178 -36q28 21 55 28.5t58 7.5q41 0 70 -18.5zM328 317q0 98 -54 98t-54 -98q0 -97 54 -97t54 97zM151 -59q0 -33 31 -50.5t87 -17.5q54 0 84.5 18t30.5 51q0 19 -14 32t-43 13h-157q-19 -14 -19 -46z" />
    <glyph glyph-name="Hcircumflex" unicode="&#x124;" horiz-adv-x="858" 
d="M243 775l-27 30l163 185h100l163 -185l-27 -30l-142 103q-30 21 -44 21t-44 -21zM762 612v-524q0 -40 54 -40h32v-48h-380v48h32q54 0 54 40v233h-250v-233q0 -40 54 -40h32v-48h-380v48h32q54 0 54 40v524q0 40 -54 40h-32v48h380v-48h-32q-54 0 -54 -40v-223h250v223
q0 40 -54 40h-32v48h380v-48h-32q-54 0 -54 -40z" />
    <glyph glyph-name="hcircumflex" unicode="&#x125;" horiz-adv-x="758" 
d="M198 744l-27 30l163 185h100l163 -185l-27 -30l-142 103q-30 21 -44 21t-44 -21zM748 48v-48h-358v48h22q50 0 50 40v236q0 84 -69 84q-19 0 -41.5 -15t-39 -49t-16.5 -88v-168q0 -40 50 -40h22v-48h-358v48h32q54 0 54 40v486q0 20 -10 28.5t-25 8.5q-5 0 -19 -3l-10 40
l225 69h39v-312q25 38 72.5 56.5t97.5 18.5q98 0 147 -38t49 -103v-251q0 -40 54 -40h32z" />
    <glyph glyph-name="Hbar" unicode="&#x126;" horiz-adv-x="858" 
d="M762 612v-64h62v-68h-62v-392q0 -40 54 -40h32v-48h-380v48h32q54 0 54 40v233h-250v-233q0 -40 54 -40h32v-48h-380v48h32q54 0 54 40v392h-62v68h62v64q0 40 -54 40h-32v48h380v-48h-32q-54 0 -54 -40v-64h250v64q0 40 -54 40h-32v48h380v-48h-32q-54 0 -54 -40z
M554 480h-250v-91h250v91z" />
    <glyph glyph-name="hbar" unicode="&#x127;" horiz-adv-x="758" 
d="M748 48v-48h-358v48h22q50 0 50 40v236q0 84 -69 84q-19 0 -41.5 -15t-39 -49t-16.5 -88v-168q0 -40 50 -40h22v-48h-358v48h32q54 0 54 40v430h-77v53h77v3q0 20 -10 28.5t-25 8.5q-5 0 -19 -3l-10 40l225 69h39v-146h120v-53h-120v-113q25 38 72.5 56.5t97.5 18.5
q98 0 147 -38t49 -103v-251q0 -40 54 -40h32z" />
    <glyph glyph-name="Itilde" unicode="&#x128;" horiz-adv-x="412" 
d="M-3 789q23 53 54.5 90t86.5 37q21 0 42 -5.5t52 -16.5t52 -16.5t44 -5.5q28 0 44 12.5t34 44.5l33 -19q-21 -52 -52.5 -89.5t-87.5 -37.5q-21 0 -41 5.5t-52 16.5q-30 11 -52 16.5t-45 5.5q-28 0 -44 -12.5t-34 -44.5zM16 48h32q54 0 54 40v524q0 40 -54 40h-32v48h380
v-48h-32q-54 0 -54 -40v-524q0 -40 54 -40h32v-48h-380v48z" />
    <glyph glyph-name="itilde" unicode="&#x129;" horiz-adv-x="412" 
d="M-15 567q23 53 54.5 90t86.5 37q21 0 42 -5.5t52 -16.5t52 -16.5t44 -5.5q28 0 44 12.5t34 44.5l33 -19q-21 -52 -52.5 -89.5t-87.5 -37.5q-21 0 -41 5.5t-52 16.5q-30 11 -52 16.5t-45 5.5q-28 0 -44 -12.5t-34 -44.5zM20 48h32q54 0 54 40v249q0 20 -10 28.5t-25 8.5
q-5 0 -19 -3l-10 40l225 69h39v-392q0 -40 54 -40h32v-48h-372v48z" />
    <glyph glyph-name="Imacron" unicode="&#x12a;" horiz-adv-x="412" 
d="M-31 875h475v-87h-475v87zM16 48h32q54 0 54 40v524q0 40 -54 40h-32v48h380v-48h-32q-54 0 -54 -40v-524q0 -40 54 -40h32v-48h-380v48z" />
    <glyph glyph-name="imacron" unicode="&#x12b;" horiz-adv-x="412" 
d="M-9 628h430v-75h-430v75zM20 48h32q54 0 54 40v249q0 20 -10 28.5t-25 8.5q-5 0 -19 -3l-10 40l225 69h39v-392q0 -40 54 -40h32v-48h-372v48z" />
    <glyph glyph-name="Ibreve" unicode="&#x12c;" horiz-adv-x="412" 
d="M68.5 822q-36.5 45 -36.5 115h45q2 -28 30.5 -52.5t97.5 -24.5t97.5 24.5t30.5 52.5h46q0 -160 -173 -160q-101 0 -137.5 45zM16 48h32q54 0 54 40v524q0 40 -54 40h-32v48h380v-48h-32q-54 0 -54 -40v-524q0 -40 54 -40h32v-48h-380v48z" />
    <glyph glyph-name="ibreve" unicode="&#x12d;" horiz-adv-x="412" 
d="M68.5 598q-36.5 45 -36.5 115h45q2 -28 30.5 -52.5t97.5 -24.5t97.5 24.5t30.5 52.5h46q0 -160 -173 -160q-101 0 -137.5 45zM20 48h32q54 0 54 40v249q0 20 -10 28.5t-25 8.5q-5 0 -19 -3l-10 40l225 69h39v-392q0 -40 54 -40h32v-48h-372v48z" />
    <glyph glyph-name="Iogonek" unicode="&#x12e;" horiz-adv-x="412" 
d="M310 612v-524q0 -40 54 -40h32v-48h-96q-63 -59 -63 -120q1 -31 17.5 -47t42.5 -16q12 0 26.5 4t24.5 10l16 -28q-28 -23 -58.5 -34.5t-56.5 -11.5q-71 0 -99.5 32t-28.5 71q0 38 28.5 74.5t75.5 65.5h-209v48h32q54 0 54 40v524q0 40 -54 40h-32v48h380v-48h-32
q-54 0 -54 -40z" />
    <glyph glyph-name="iogonek" unicode="&#x12f;" horiz-adv-x="392" 
d="M113.5 579.5q-26.5 26.5 -26.5 66.5t26.5 66.5t68.5 26.5t69 -26.5t27 -66.5t-27 -66.5t-69 -26.5t-68.5 26.5zM428 -197q-28 -23 -58.5 -34.5t-56.5 -11.5q-71 0 -99.5 32t-28.5 71q0 38 28.5 74.5t75.5 65.5h-279v48h32q54 0 54 40v249q0 20 -10 28.5t-25 8.5
q-5 0 -19 -3l-10 40l225 69h39v-392q0 -40 54 -40h32v-48h-18q-63 -59 -63 -120q1 -31 17.5 -47t42.5 -16q12 0 26.5 4t24.5 10z" />
    <glyph glyph-name="Idotaccent" unicode="&#x130;" horiz-adv-x="412" 
d="M150.5 796.5q-20.5 21.5 -20.5 53.5q0 33 20.5 54.5t54.5 21.5t55 -22t21 -54t-21 -53.5t-55 -21.5t-54.5 21.5zM16 48h32q54 0 54 40v524q0 40 -54 40h-32v48h380v-48h-32q-54 0 -54 -40v-524q0 -40 54 -40h32v-48h-380v48z" />
    <glyph glyph-name="dotlessi" unicode="&#x131;" horiz-adv-x="412" 
d="M20 48h32q54 0 54 40v249q0 20 -10 28.5t-25 8.5q-5 0 -19 -3l-10 40l225 69h39v-392q0 -40 54 -40h32v-48h-372v48z" />
    <glyph glyph-name="IJ" unicode="&#x132;" horiz-adv-x="877" 
d="M16 48h32q54 0 54 40v524q0 40 -54 40h-32v48h380v-48h-32q-54 0 -54 -40v-524q0 -40 54 -40h32v-48h-380v48zM451 -83q51 16 76 48.5t32.5 75t7.5 105.5v466q0 40 -54 40h-32v48h380v-48h-32q-54 0 -54 -40v-469q0 -131 -85.5 -194t-232.5 -63z" />
    <glyph glyph-name="ij" unicode="&#x133;" horiz-adv-x="789" 
d="M113.5 579.5q-26.5 26.5 -26.5 66.5t26.5 66.5t68.5 26.5t69 -26.5t27 -66.5t-27 -66.5t-69 -26.5t-68.5 26.5zM530.5 579.5q-26.5 26.5 -26.5 66.5t26.5 66.5t68.5 26.5t69 -26.5t27 -66.5t-27 -66.5t-69 -26.5t-68.5 26.5zM10 48h32q54 0 54 40v249q0 20 -10 28.5
t-25 8.5q-5 0 -19 -3l-10 40l225 69h39v-392q0 -40 54 -40h32v-48h-372v48zM385 -132q73 23 98.5 77t25.5 134v258q0 20 -10 28.5t-25 8.5q-5 0 -19 -3l-10 40l225 69h39v-386q0 -131 -85.5 -194t-232.5 -63z" />
    <glyph glyph-name="Jcircumflex" unicode="&#x134;" horiz-adv-x="475" 
d="M51 805l163 185h100l163 -185l-27 -30l-142 103q-30 21 -44 21t-44 -21l-142 -103zM49 -83q51 16 76 48.5t32.5 75t7.5 105.5v466q0 40 -54 40h-32v48h380v-48h-32q-54 0 -54 -40v-469q0 -131 -85.5 -194t-232.5 -63z" />
    <glyph glyph-name="jcircumflex" unicode="&#x135;" horiz-adv-x="410" 
d="M12 583l163 185h100l163 -185l-27 -30l-142 103q-30 21 -44 21t-44 -21l-142 -103zM6 -132q73 23 98.5 77t25.5 134v258q0 20 -10 28.5t-25 8.5q-5 0 -19 -3l-10 40l225 69h39v-386q0 -131 -85.5 -194t-232.5 -63z" />
    <glyph glyph-name="Kcommaaccent" unicode="&#x136;" horiz-adv-x="839" 
d="M834 48v-48h-272l-258 277v-189q0 -40 54 -40h32v-48h-380v48h32q54 0 54 40v524q0 40 -54 40h-32v48h380v-48h-32q-54 0 -54 -40v-221l251 224q10 10 10 19q0 18 -35 18h-16v48h259v-48h-30q-16 0 -30 -5t-23 -13l-260 -234l275 -301q20 -22 46.5 -36.5t50.5 -14.5h32z
M496 -106.5q26 -29.5 26 -80.5q0 -61 -47 -122t-108 -100l-31 28q61 63 61 124q0 15 -6 27t-17 29q-11 15 -17 27.5t-6 27.5q0 28 22 48.5t57 20.5q40 0 66 -29.5z" />
    <glyph glyph-name="kcommaaccent" unicode="&#x137;" horiz-adv-x="751" 
d="M731 48v-48h-268l-161 173l-8 -6v-78q0 -41 54 -41h27v-48h-367v48h32q54 0 54 40v486q0 20 -10 28.5t-25 8.5q-5 0 -19 -3l-10 40l225 69h39v-467l165 121q11 8 11 19q0 13 -14 22.5t-32 9.5h-24v48h288v-48h-40q-26 0 -87 -48l-132 -103l165 -178q18 -21 48.5 -33
t56.5 -12h32zM441 -93.5q26 -29.5 26 -80.5q0 -61 -47 -122t-108 -100l-31 28q61 63 61 124q0 15 -6 27t-17 29q-11 15 -17 27.5t-6 27.5q0 28 22 48.5t57 20.5q40 0 66 -29.5z" />
    <glyph glyph-name="kgreenlandic" unicode="&#x138;" horiz-adv-x="751" 
d="M731 48v-48h-268l-161 173l-8 -6v-78q0 -41 54 -41h27v-48h-367v48h32q54 0 54 40v276q0 20 -10 28.5t-25 8.5q-5 0 -19 -3l-10 40l225 69h39v-257l165 121q11 8 11 19q0 13 -14 22.5t-32 9.5h-24v48h288v-48h-40q-26 0 -87 -48l-132 -103l165 -178q18 -21 48.5 -33
t56.5 -12h32z" />
    <glyph glyph-name="Lacute" unicode="&#x139;" horiz-adv-x="711" 
d="M87 823l127 139q12 14 32 28.5t46 14.5q32 0 48.5 -17t16.5 -38q0 -22 -15.5 -40t-46.5 -36l-172 -101zM10 48h32q54 0 54 40v524q0 40 -54 40h-32v48h380v-48h-32q-54 0 -54 -40v-490q0 -54 59 -54h168q46 0 72 51t35 102h53l-22 -221h-659v48z" />
    <glyph glyph-name="lacute" unicode="&#x13a;" horiz-adv-x="391" 
d="M62 787l127 139q12 14 32 28.5t46 14.5q32 0 48.5 -17t16.5 -38q0 -22 -15.5 -40t-46.5 -36l-172 -101zM12 48h32q54 0 54 40v486q0 20 -10 28.5t-25 8.5q-5 0 -19 -3l-10 40l225 69h39v-628q0 -41 54 -41h27v-48h-367v48z" />
    <glyph glyph-name="Lcommaaccent" unicode="&#x13b;" horiz-adv-x="711" 
d="M10 48h32q54 0 54 40v524q0 40 -54 40h-32v48h380v-48h-32q-54 0 -54 -40v-490q0 -54 59 -54h168q46 0 72 51t35 102h53l-22 -221h-659v48zM250 -381q61 63 61 124q0 15 -6 27t-17 29q-11 15 -17 27.5t-6 27.5q0 28 22 48.5t57 20.5q40 0 66 -29.5t26 -80.5
q0 -61 -47 -122t-108 -100z" />
    <glyph glyph-name="lcommaaccent" unicode="&#x13c;" horiz-adv-x="391" 
d="M12 48h32q54 0 54 40v486q0 20 -10 28.5t-25 8.5q-5 0 -19 -3l-10 40l225 69h39v-628q0 -41 54 -41h27v-48h-367v48zM96 -368q61 63 61 124q0 15 -6 27t-17 29q-11 15 -17 27.5t-6 27.5q0 28 22 48.5t57 20.5q40 0 66 -29.5t26 -80.5q0 -61 -47 -122t-108 -100z" />
    <glyph glyph-name="Lcaron" unicode="&#x13d;" horiz-adv-x="711" 
d="M461 406q61 63 61 124q0 15 -6 27t-17 29q-11 15 -17 27.5t-6 27.5q0 28 22 48.5t57 20.5q40 0 66 -29.5t26 -80.5q0 -61 -47 -122t-108 -100zM10 48h32q54 0 54 40v524q0 40 -54 40h-32v48h380v-48h-32q-54 0 -54 -40v-490q0 -54 59 -54h168q46 0 72 51t35 102h53
l-22 -221h-659v48z" />
    <glyph glyph-name="lcaron" unicode="&#x13e;" horiz-adv-x="534" 
d="M12 48h32q54 0 54 40v486q0 20 -10 28.5t-25 8.5q-5 0 -19 -3l-10 40l225 69h39v-628q0 -41 54 -41h27v-48h-367v48zM371 406q61 63 61 124q0 15 -6 27t-17 29q-11 15 -17 27.5t-6 27.5q0 28 22 48.5t57 20.5q40 0 66 -29.5t26 -80.5q0 -61 -47 -122t-108 -100z" />
    <glyph glyph-name="Ldot" unicode="&#x13f;" horiz-adv-x="711" 
d="M10 48h32q54 0 54 40v524q0 40 -54 40h-32v48h380v-48h-32q-54 0 -54 -40v-490q0 -54 59 -54h168q46 0 72 51t35 102h53l-22 -221h-659v48zM444.5 341.5q-20.5 21.5 -20.5 53.5q0 33 20.5 54.5t54.5 21.5q35 0 56 -22t21 -54t-21 -53.5t-56 -21.5q-34 0 -54.5 21.5z" />
    <glyph glyph-name="ldot" unicode="&#x140;" horiz-adv-x="563" 
d="M12 48h32q54 0 54 40v486q0 20 -10 28.5t-25 8.5q-5 0 -19 -3l-10 40l225 69h39v-628q0 -41 54 -41h27v-48h-367v48zM386.5 293.5q-20.5 21.5 -20.5 53.5q0 33 20.5 54.5t54.5 21.5q35 0 56 -22t21 -54t-21 -53.5t-56 -21.5q-34 0 -54.5 21.5z" />
    <glyph glyph-name="Lslash" unicode="&#x141;" horiz-adv-x="717" 
d="M697 221l-22 -221h-659v48h32q54 0 54 40v140l-66 -23v91l66 23v293q0 40 -54 40h-32v48h380v-48h-32q-54 0 -54 -40v-219l190 67v-90l-190 -68v-180q0 -54 59 -54h168q46 0 72 51t35 102h53z" />
    <glyph glyph-name="lslash" unicode="&#x142;" horiz-adv-x="403" 
d="M386 48v-48h-367v48h32q54 0 54 40v129l-82 -32v92l82 32v265q0 20 -10 28.5t-25 8.5q-5 0 -19 -3l-10 40l225 69h39v-328l77 30v-94l-77 -30v-206q0 -41 54 -41h27z" />
    <glyph glyph-name="Nacute" unicode="&#x143;" horiz-adv-x="803" 
d="M303 823l127 139q12 14 32 28.5t46 14.5q32 0 48.5 -17t16.5 -38q0 -22 -15.5 -40t-46.5 -36l-172 -101zM10 48h32q54 0 54 40v524q0 40 -54 40h-32v48h283l334 -449v361q0 40 -54 40h-32v48h252v-48h-32q-54 0 -54 -40v-612h-104l-427 581v-493q0 -40 54 -40h32v-48
h-252v48z" />
    <glyph glyph-name="nacute" unicode="&#x144;" horiz-adv-x="758" 
d="M301 551l-36 50l127 139q12 14 32 28.5t46 14.5q32 0 48.5 -17t16.5 -38q0 -22 -15.5 -40t-46.5 -36zM748 48v-48h-358v48h22q50 0 50 40v236q0 84 -69 84q-19 0 -41.5 -15t-39 -49t-16.5 -88v-168q0 -40 50 -40h22v-48h-358v48h32q54 0 54 40v249q0 20 -10 28.5t-25 8.5
q-5 0 -19 -3l-10 40l225 69h39v-75q25 38 72.5 56.5t97.5 18.5q98 0 147 -38t49 -103v-251q0 -40 54 -40h32z" />
    <glyph glyph-name="Ncommaaccent" unicode="&#x145;" horiz-adv-x="803" 
d="M10 48h32q54 0 54 40v524q0 40 -54 40h-32v48h283l334 -449v361q0 40 -54 40h-32v48h252v-48h-32q-54 0 -54 -40v-612h-104l-427 581v-493q0 -40 54 -40h32v-48h-252v48zM302 -381q61 63 61 124q0 15 -6 27t-17 29q-11 15 -17 27.5t-6 27.5q0 28 22 48.5t57 20.5
q40 0 66 -29.5t26 -80.5q0 -61 -47 -122t-108 -100z" />
    <glyph glyph-name="ncommaaccent" unicode="&#x146;" horiz-adv-x="758" 
d="M748 48v-48h-358v48h22q50 0 50 40v236q0 84 -69 84q-19 0 -41.5 -15t-39 -49t-16.5 -88v-168q0 -40 50 -40h22v-48h-358v48h32q54 0 54 40v249q0 20 -10 28.5t-25 8.5q-5 0 -19 -3l-10 40l225 69h39v-75q25 38 72.5 56.5t97.5 18.5q98 0 147 -38t49 -103v-251
q0 -40 54 -40h32zM444 -93.5q26 -29.5 26 -80.5q0 -61 -47 -122t-108 -100l-31 28q61 63 61 124q0 15 -6 27t-17 29q-11 15 -17 27.5t-6 27.5q0 28 22 48.5t57 20.5q40 0 66 -29.5z" />
    <glyph glyph-name="Ncaron" unicode="&#x147;" horiz-adv-x="803" 
d="M177 960l27 30l142 -103q30 -21 44 -21t44 21l142 103l27 -30l-163 -185h-100zM10 48h32q54 0 54 40v524q0 40 -54 40h-32v48h283l334 -449v361q0 40 -54 40h-32v48h252v-48h-32q-54 0 -54 -40v-612h-104l-427 581v-493q0 -40 54 -40h32v-48h-252v48z" />
    <glyph glyph-name="ncaron" unicode="&#x148;" horiz-adv-x="758" 
d="M330 553l-163 185l27 30l142 -103q30 -21 44 -21t44 21l142 103l27 -30l-163 -185h-100zM748 48v-48h-358v48h22q50 0 50 40v236q0 84 -69 84q-19 0 -41.5 -15t-39 -49t-16.5 -88v-168q0 -40 50 -40h22v-48h-358v48h32q54 0 54 40v249q0 20 -10 28.5t-25 8.5q-5 0 -19 -3
l-10 40l225 69h39v-75q25 38 72.5 56.5t97.5 18.5q98 0 147 -38t49 -103v-251q0 -40 54 -40h32z" />
    <glyph glyph-name="napostrophe" unicode="&#x149;" horiz-adv-x="902" 
d="M170 672.5q26 -29.5 26 -80.5q0 -61 -47 -122t-108 -100l-31 28q61 63 61 124q0 15 -6 27t-17 29q-11 15 -17 27.5t-6 27.5q0 28 22 48.5t57 20.5q40 0 66 -29.5zM892 48v-48h-358v48h22q50 0 50 40v236q0 84 -69 84q-19 0 -41.5 -15t-39 -49t-16.5 -88v-168
q0 -40 50 -40h22v-48h-358v48h32q54 0 54 40v249q0 20 -10 28.5t-25 8.5q-5 0 -19 -3l-10 40l225 69h39v-75q25 38 72.5 56.5t97.5 18.5q98 0 147 -38t49 -103v-251q0 -40 54 -40h32z" />
    <glyph glyph-name="Eng" unicode="&#x14a;" horiz-adv-x="803" 
d="M383 -284q56 0 106.5 25t82 68.5t31.5 94.5v96l-427 581v-493q0 -40 54 -40h32v-48h-252v48h32q54 0 54 40v524q0 40 -54 40h-32v48h283l334 -449v361q0 40 -54 40h-32v48h252v-48h-32q-54 0 -54 -40v-678q0 -131 -85.5 -194t-232.5 -63z" />
    <glyph glyph-name="eng" unicode="&#x14b;" horiz-adv-x="752" 
d="M613 442q49 -38 49 -103v-387q0 -131 -85.5 -194t-232.5 -63l-6 31q73 23 98.5 77t25.5 134v387q0 84 -69 84q-19 0 -41.5 -15t-39 -49t-16.5 -88v-168q0 -40 50 -40h22v-48h-358v48h32q54 0 54 40v249q0 20 -10 28.5t-25 8.5q-5 0 -19 -3l-10 40l225 69h39v-75
q25 38 72.5 56.5t97.5 18.5q98 0 147 -38z" />
    <glyph glyph-name="Omacron" unicode="&#x14c;" horiz-adv-x="840" 
d="M205 850h430v-75h-430v75zM126 86.5q-96 96.5 -96 263.5t96 263.5t294 96.5t294 -96.5t96 -263.5t-96 -263.5t-294 -96.5t-294 96.5zM552 137q47 75 47 213t-47 214t-133 76q-84 0 -131 -76t-47 -214q0 -137 47 -212.5t131 -75.5q86 0 133 75z" />
    <glyph glyph-name="omacron" unicode="&#x14d;" horiz-adv-x="662" 
d="M116 628h430v-75h-430v75zM100 52q-78 62 -78 183t78 183t231 62t231 -62t78 -183t-78 -183t-231 -62t-231 62zM409.5 102q28.5 45 28.5 133t-28.5 133t-78.5 45t-78.5 -45t-28.5 -133t28.5 -133t78.5 -45t78.5 45z" />
    <glyph glyph-name="Obreve" unicode="&#x14e;" horiz-adv-x="840" 
d="M282.5 822q-36.5 45 -36.5 115h45q2 -28 30.5 -52.5t97.5 -24.5t97.5 24.5t30.5 52.5h46q0 -160 -173 -160q-101 0 -137.5 45zM126 86.5q-96 96.5 -96 263.5t96 263.5t294 96.5t294 -96.5t96 -263.5t-96 -263.5t-294 -96.5t-294 96.5zM552 137q47 75 47 213t-47 214
t-133 76q-84 0 -131 -76t-47 -214q0 -137 47 -212.5t131 -75.5q86 0 133 75z" />
    <glyph glyph-name="obreve" unicode="&#x14f;" horiz-adv-x="662" 
d="M193.5 600q-36.5 45 -36.5 115h45q2 -28 30.5 -52.5t97.5 -24.5t97.5 24.5t30.5 52.5h46q0 -160 -173 -160q-101 0 -137.5 45zM100 52q-78 62 -78 183t78 183t231 62t231 -62t78 -183t-78 -183t-231 -62t-231 62zM409.5 102q28.5 45 28.5 133t-28.5 133t-78.5 45
t-78.5 -45t-28.5 -133t28.5 -133t78.5 -45t78.5 45z" />
    <glyph glyph-name="Ohungarumlaut" unicode="&#x150;" horiz-adv-x="840" 
d="M214 821l126 139q12 14 32 28.5t46 14.5q32 0 48.5 -17t16.5 -38q0 -22 -15.5 -40t-46.5 -36l-172 -101zM443 821l126 139q12 14 32.5 28.5t46.5 14.5q32 0 48.5 -17t16.5 -38q0 -22 -15.5 -40t-46.5 -36l-173 -101zM126 86.5q-96 96.5 -96 263.5t96 263.5t294 96.5
t294 -96.5t96 -263.5t-96 -263.5t-294 -96.5t-294 96.5zM552 137q47 75 47 213t-47 214t-133 76q-84 0 -131 -76t-47 -214q0 -137 47 -212.5t131 -75.5q86 0 133 75z" />
    <glyph glyph-name="ohungarumlaut" unicode="&#x151;" horiz-adv-x="662" 
d="M133 599l126 139q12 14 32 28.5t46 14.5q32 0 48.5 -17t16.5 -38q0 -22 -15.5 -40t-46.5 -36l-172 -101zM362 599l126 139q12 14 32.5 28.5t46.5 14.5q32 0 48.5 -17t16.5 -38q0 -22 -15.5 -40t-46.5 -36l-173 -101zM100 52q-78 62 -78 183t78 183t231 62t231 -62
t78 -183t-78 -183t-231 -62t-231 62zM409.5 102q28.5 45 28.5 133t-28.5 133t-78.5 45t-78.5 -45t-28.5 -133t28.5 -133t78.5 -45t78.5 45z" />
    <glyph glyph-name="OE" unicode="&#x152;" horiz-adv-x="1158" 
d="M1128 203l-22 -203h-543v36q-70 -46 -168 -46q-181 0 -273 97.5t-92 262.5t92 262.5t273 97.5q98 0 168 -46v36h544v-204h-49q-15 136 -116 136h-171v-237h156q30 0 40.5 22.5t14.5 64.5h39v-242h-39q-4 42 -14.5 64.5t-40.5 22.5h-156v-259h201q51 0 74 34.5t33 100.5
h49zM503.5 84.5q36.5 24.5 59.5 71.5v388q-23 47 -59.5 71.5t-84.5 24.5q-84 0 -131 -76t-47 -214t47 -214t131 -76q48 0 84.5 24.5z" />
    <glyph glyph-name="oe" unicode="&#x153;" horiz-adv-x="979" 
d="M606 243v-9q0 -80 35.5 -131.5t102.5 -51.5q65 0 104 28.5t52 92.5h48q-8 -79 -68.5 -130.5t-165.5 -51.5q-141 0 -220 53q-69 -53 -163 -53q-153 0 -231 62t-78 183t78 183t231 62q99 0 167 -53q76 53 198 53q125 0 189 -57.5t64 -147.5v-32h-343zM644 386
q-22 -30 -32 -80h163q0 40 -15 75t-59 35q-35 0 -57 -30zM427 117q-25 52 -25 118q0 64 27 115q-33 63 -98 63q-50 0 -78.5 -45t-28.5 -133t28.5 -133t78.5 -45q63 0 96 60z" />
    <glyph glyph-name="Racute" unicode="&#x154;" horiz-adv-x="757" 
d="M286 773l-36 50l127 139q12 14 32 28.5t46 14.5q32 0 48.5 -17t16.5 -38q0 -22 -15.5 -40t-46.5 -36zM653 112.5q11 -25.5 30.5 -44t49.5 -20.5v-48h-146q-49 0 -77.5 9.5t-46 30.5t-29.5 60q-7 20 -15 66t-17.5 73t-30.5 44h-67v-195q0 -40 54 -40h32v-48h-380v48h32
q54 0 54 40v524q0 40 -54 40h-32v48h412q135 0 190 -52.5t55 -155.5q0 -77 -29 -125.5t-98 -68.5q40 -18 57.5 -46t31.5 -72q13 -42 24 -67.5zM304 351h66q48 0 70 33.5t22 107.5t-22 107t-70 33h-66v-281z" />
    <glyph glyph-name="racute" unicode="&#x155;" horiz-adv-x="571" 
d="M188 551l-36 50l127 139q12 14 32 28.5t46 14.5q32 0 48.5 -17t16.5 -38q0 -22 -15.5 -40t-46.5 -36zM534 464q31 -16 31 -54q0 -36 -19 -54.5t-50 -18.5q-17 0 -27 5.5t-24 17.5q-12 10 -21 15t-22 5q-15 0 -38.5 -20.5t-43 -57.5t-24.5 -84v-129q0 -41 54 -41h27v-48
h-367v48h32q54 0 54 40v249q0 20 -10 28.5t-25 8.5q-5 0 -19 -3l-10 40l225 69h39v-110q29 58 76 84t90 26q41 0 72 -16z" />
    <glyph glyph-name="Rcommaaccent" unicode="&#x156;" horiz-adv-x="757" 
d="M653 112.5q11 -25.5 30.5 -44t49.5 -20.5v-48h-146q-49 0 -77.5 9.5t-46 30.5t-29.5 60q-7 20 -15 66t-17.5 73t-30.5 44h-67v-195q0 -40 54 -40h32v-48h-380v48h32q54 0 54 40v524q0 40 -54 40h-32v48h412q135 0 190 -52.5t55 -155.5q0 -77 -29 -125.5t-98 -68.5
q40 -18 57.5 -46t31.5 -72q13 -42 24 -67.5zM304 351h66q48 0 70 33.5t22 107.5t-22 107t-70 33h-66v-281zM459 -106.5q26 -29.5 26 -80.5q0 -61 -47 -122t-108 -100l-31 28q61 63 61 124q0 15 -6 27t-17 29q-11 15 -17 27.5t-6 27.5q0 28 22 48.5t57 20.5q40 0 66 -29.5z
" />
    <glyph glyph-name="rcommaaccent" unicode="&#x157;" horiz-adv-x="571" 
d="M534 464q31 -16 31 -54q0 -36 -19 -54.5t-50 -18.5q-17 0 -27 5.5t-24 17.5q-12 10 -21 15t-22 5q-15 0 -38.5 -20.5t-43 -57.5t-24.5 -84v-129q0 -41 54 -41h27v-48h-367v48h32q54 0 54 40v249q0 20 -10 28.5t-25 8.5q-5 0 -19 -3l-10 40l225 69h39v-110q29 58 76 84
t90 26q41 0 72 -16zM261 -93.5q26 -29.5 26 -80.5q0 -61 -47 -122t-108 -100l-31 28q61 63 61 124q0 15 -6 27t-17 29q-11 15 -17 27.5t-6 27.5q0 28 22 48.5t57 20.5q40 0 66 -29.5z" />
    <glyph glyph-name="Rcaron" unicode="&#x158;" horiz-adv-x="757" 
d="M334 775l-163 185l27 30l142 -103q30 -21 44 -21t44 21l142 103l27 -30l-163 -185h-100zM653 112.5q11 -25.5 30.5 -44t49.5 -20.5v-48h-146q-49 0 -77.5 9.5t-46 30.5t-29.5 60q-7 20 -15 66t-17.5 73t-30.5 44h-67v-195q0 -40 54 -40h32v-48h-380v48h32q54 0 54 40v524
q0 40 -54 40h-32v48h412q135 0 190 -52.5t55 -155.5q0 -77 -29 -125.5t-98 -68.5q40 -18 57.5 -46t31.5 -72q13 -42 24 -67.5zM304 351h66q48 0 70 33.5t22 107.5t-22 107t-70 33h-66v-281z" />
    <glyph glyph-name="rcaron" unicode="&#x159;" horiz-adv-x="571" 
d="M236 553l-163 185l27 30l142 -103q30 -21 44 -21t44 21l142 103l27 -30l-163 -185h-100zM534 464q31 -16 31 -54q0 -36 -19 -54.5t-50 -18.5q-17 0 -27 5.5t-24 17.5q-12 10 -21 15t-22 5q-15 0 -38.5 -20.5t-43 -57.5t-24.5 -84v-129q0 -41 54 -41h27v-48h-367v48h32
q54 0 54 40v249q0 20 -10 28.5t-25 8.5q-5 0 -19 -3l-10 40l225 69h39v-110q29 58 76 84t90 26q41 0 72 -16z" />
    <glyph glyph-name="Sacute" unicode="&#x15a;" horiz-adv-x="677" 
d="M203 823l127 139q12 14 32 28.5t46 14.5q32 0 48.5 -17t16.5 -38q0 -22 -15.5 -40t-46.5 -36l-172 -101zM213.5 6q-55.5 16 -93.5 40q-3 3 -9 3q-8 0 -8 -8v-46h-65v219h57q11 -81 67.5 -117t127.5 -36q61 0 99.5 23.5t38.5 80.5q0 34 -23 58t-54 38.5t-81 32.5
q-75 27 -118.5 49.5t-75 65t-31.5 110.5q0 94 73.5 142.5t203.5 48.5q69 0 117.5 -15.5t88.5 -40.5q3 -3 9 -3q8 0 8 8v46h65v-219h-57q-11 81 -62.5 117t-119.5 36q-48 0 -82 -23.5t-34 -64.5q0 -37 34 -57.5t88 -37.5l21 -7q73 -25 121 -49.5t84 -73t36 -125.5
q0 -110 -82 -160.5t-218 -50.5q-70 0 -125.5 16z" />
    <glyph glyph-name="sacute" unicode="&#x15b;" horiz-adv-x="547" 
d="M165 601l127 139q12 14 32 28.5t46 14.5q32 0 48.5 -17t16.5 -38q0 -22 -15.5 -40t-46.5 -36l-172 -101zM169 5q-45 15 -77 47l-9 -54h-45v155h42q13 -41 51.5 -68.5t86.5 -27.5q43 0 69.5 12.5t26.5 40.5q0 18 -21.5 29t-69.5 25q-59 18 -97 35t-66.5 52t-28.5 91
q0 65 53.5 101.5t168.5 36.5q52 0 105.5 -13.5t81.5 -40.5l9 54h45v-155h-42q-8 38 -47.5 62.5t-89.5 24.5q-39 0 -63 -11.5t-24 -33.5q0 -19 21.5 -29.5t70.5 -22.5q58 -14 97.5 -30t68.5 -51t29 -94q0 -81 -67 -115.5t-172 -34.5q-62 0 -107 15z" />
    <glyph glyph-name="Scircumflex" unicode="&#x15c;" horiz-adv-x="677" 
d="M125 805l163 185h100l163 -185l-27 -30l-142 103q-30 21 -44 21t-44 -21l-142 -103zM213.5 6q-55.5 16 -93.5 40q-3 3 -9 3q-8 0 -8 -8v-46h-65v219h57q11 -81 67.5 -117t127.5 -36q61 0 99.5 23.5t38.5 80.5q0 34 -23 58t-54 38.5t-81 32.5q-75 27 -118.5 49.5t-75 65
t-31.5 110.5q0 94 73.5 142.5t203.5 48.5q69 0 117.5 -15.5t88.5 -40.5q3 -3 9 -3q8 0 8 8v46h65v-219h-57q-11 81 -62.5 117t-119.5 36q-48 0 -82 -23.5t-34 -64.5q0 -37 34 -57.5t88 -37.5l21 -7q73 -25 121 -49.5t84 -73t36 -125.5q0 -110 -82 -160.5t-218 -50.5
q-70 0 -125.5 16z" />
    <glyph glyph-name="scircumflex" unicode="&#x15d;" horiz-adv-x="547" 
d="M73 583l163 185h100l163 -185l-27 -30l-142 103q-30 21 -44 21t-44 -21l-142 -103zM169 5q-45 15 -77 47l-9 -54h-45v155h42q13 -41 51.5 -68.5t86.5 -27.5q43 0 69.5 12.5t26.5 40.5q0 18 -21.5 29t-69.5 25q-59 18 -97 35t-66.5 52t-28.5 91q0 65 53.5 101.5
t168.5 36.5q52 0 105.5 -13.5t81.5 -40.5l9 54h45v-155h-42q-8 38 -47.5 62.5t-89.5 24.5q-39 0 -63 -11.5t-24 -33.5q0 -19 21.5 -29.5t70.5 -22.5q58 -14 97.5 -30t68.5 -51t29 -94q0 -81 -67 -115.5t-172 -34.5q-62 0 -107 15z" />
    <glyph glyph-name="Scedilla" unicode="&#x15e;" horiz-adv-x="677" 
d="M559.5 42.5q-79.5 -50.5 -210.5 -52.5l-14 -21q43 -7 81.5 -31t38.5 -73q0 -74 -59.5 -99t-130.5 -25q-32 0 -61 4v41q59 0 93.5 15.5t34.5 53.5q0 30 -28 44t-57 16l-8 12l44 66q-99 11 -163 53q-3 3 -9 3q-8 0 -8 -8v-46h-65v219h57q11 -81 67.5 -117t127.5 -36
q61 0 99.5 23.5t38.5 80.5q0 34 -23 58t-54 38.5t-81 32.5q-75 27 -118.5 49.5t-75 65t-31.5 110.5q0 94 73.5 142.5t203.5 48.5q69 0 117.5 -15.5t88.5 -40.5q3 -3 9 -3q8 0 8 8v46h65v-219h-57q-11 81 -62.5 117t-119.5 36q-48 0 -82 -23.5t-34 -64.5q0 -37 34 -57.5
t88 -37.5l21 -7q73 -25 121 -49.5t84 -73t36 -125.5q0 -108 -79.5 -158.5z" />
    <glyph glyph-name="scedilla" unicode="&#x15f;" horiz-adv-x="547" 
d="M458.5 31q-56.5 -35 -146.5 -40l-28 -41q43 -7 81.5 -31t38.5 -73q0 -74 -59.5 -99t-130.5 -25q-32 0 -61 4v41q59 0 93.5 15.5t34.5 53.5q0 30 -28 44t-57 16l-8 12l55 83q-97 8 -151 61l-9 -54h-45v155h42q13 -41 51.5 -68.5t86.5 -27.5q43 0 69.5 12.5t26.5 40.5
q0 18 -21.5 29t-69.5 25q-59 18 -97 35t-66.5 52t-28.5 91q0 65 53.5 101.5t168.5 36.5q52 0 105.5 -13.5t81.5 -40.5l9 54h45v-155h-42q-8 38 -47.5 62.5t-89.5 24.5q-39 0 -63 -11.5t-24 -33.5q0 -19 21.5 -29.5t70.5 -22.5q58 -14 97.5 -30t68.5 -51t29 -94
q0 -74 -56.5 -109z" />
    <glyph glyph-name="Scaron" unicode="&#x160;" horiz-adv-x="677" 
d="M125 960l27 30l142 -103q30 -21 44 -21t44 21l142 103l27 -30l-163 -185h-100zM213.5 6q-55.5 16 -93.5 40q-3 3 -9 3q-8 0 -8 -8v-46h-65v219h57q11 -81 67.5 -117t127.5 -36q61 0 99.5 23.5t38.5 80.5q0 34 -23 58t-54 38.5t-81 32.5q-75 27 -118.5 49.5t-75 65
t-31.5 110.5q0 94 73.5 142.5t203.5 48.5q69 0 117.5 -15.5t88.5 -40.5q3 -3 9 -3q8 0 8 8v46h65v-219h-57q-11 81 -62.5 117t-119.5 36q-48 0 -82 -23.5t-34 -64.5q0 -37 34 -57.5t88 -37.5l21 -7q73 -25 121 -49.5t84 -73t36 -125.5q0 -110 -82 -160.5t-218 -50.5
q-70 0 -125.5 16z" />
    <glyph glyph-name="scaron" unicode="&#x161;" horiz-adv-x="547" 
d="M74 738l27 30l142 -103q30 -21 44 -21t44 21l142 103l27 -30l-163 -185h-100zM169 5q-45 15 -77 47l-9 -54h-45v155h42q13 -41 51.5 -68.5t86.5 -27.5q43 0 69.5 12.5t26.5 40.5q0 18 -21.5 29t-69.5 25q-59 18 -97 35t-66.5 52t-28.5 91q0 65 53.5 101.5t168.5 36.5
q52 0 105.5 -13.5t81.5 -40.5l9 54h45v-155h-42q-8 38 -47.5 62.5t-89.5 24.5q-39 0 -63 -11.5t-24 -33.5q0 -19 21.5 -29.5t70.5 -22.5q58 -14 97.5 -30t68.5 -51t29 -94q0 -81 -67 -115.5t-172 -34.5q-62 0 -107 15z" />
    <glyph glyph-name="uni0162" unicode="&#x162;" horiz-adv-x="758" 
d="M738 700v-254h-50q0 25 -7.5 69.5t-25 80.5t-46.5 36h-126v-544q0 -40 54 -40h32v-48h-167l-21 -31q43 -7 81.5 -31t38.5 -73q0 -74 -59.5 -99t-130.5 -25q-32 0 -61 4v41q59 0 93.5 15.5t34.5 53.5q0 30 -28 44t-57 16l-8 12l48 73h-144v48h32q54 0 54 40v544h-126
q-29 0 -46.5 -36t-25 -80.5t-7.5 -69.5h-50v254h718z" />
    <glyph glyph-name="uni0163" unicode="&#x163;" horiz-adv-x="487" 
d="M410.5 24.5q-44.5 -32.5 -125.5 -34.5l-18 -27q43 -7 81.5 -31t38.5 -73q0 -74 -59.5 -99t-130.5 -25q-32 0 -61 4v41q59 0 93.5 15.5t34.5 53.5q0 30 -28 44t-57 16l-8 12l48 72q-75 8 -117 42t-42 104v265h-59v66h59v90l161 49h39v-139h137v-66h-137v-265
q0 -43 17.5 -65.5t52.5 -22.5q32 0 55 18t28 58h48q-6 -70 -50.5 -102.5z" />
    <glyph glyph-name="Tcaron" unicode="&#x164;" horiz-adv-x="758" 
d="M166 960l27 30l142 -103q30 -21 44 -21t44 21l142 103l27 -30l-163 -185h-100zM189 48h32q54 0 54 40v544h-126q-29 0 -46.5 -36t-25 -80.5t-7.5 -69.5h-50v254h718v-254h-50q0 25 -7.5 69.5t-25 80.5t-46.5 36h-126v-544q0 -40 54 -40h32v-48h-380v48z" />
    <glyph glyph-name="tcaron" unicode="&#x165;" horiz-adv-x="585" 
d="M582 680.5q26 -29.5 26 -80.5q0 -61 -47 -122t-108 -100l-31 28q61 63 61 124q0 15 -6 27t-17 29q-11 15 -17 27.5t-6 27.5q0 28 22 48.5t57 20.5q40 0 66 -29.5zM385 69q23 18 28 58h48q-6 -72 -52.5 -104.5t-130.5 -32.5q-101 0 -159.5 33t-58.5 116v265h-59v66h59v90
l161 49h39v-139h137v-66h-137v-265q0 -43 17.5 -65.5t52.5 -22.5q32 0 55 18z" />
    <glyph glyph-name="Tbar" unicode="&#x166;" horiz-adv-x="758" 
d="M738 700v-254h-50q0 25 -7.5 69.5t-25 80.5t-46.5 36h-126v-279h134v-87h-134v-178q0 -40 54 -40h32v-48h-380v48h32q54 0 54 40v178h-133v87h133v279h-126q-29 0 -46.5 -36t-25 -80.5t-7.5 -69.5h-50v254h718z" />
    <glyph glyph-name="tbar" unicode="&#x167;" horiz-adv-x="487" 
d="M461 127q-6 -72 -52.5 -104.5t-130.5 -32.5q-101 0 -159.5 33t-58.5 116v111h-48v66h48v88h-59v66h59v90l161 49h39v-139h137v-66h-137v-88h123v-66h-123v-111q0 -43 17.5 -65.5t52.5 -22.5q32 0 55 18t28 58h48z" />
    <glyph glyph-name="Utilde" unicode="&#x168;" horiz-adv-x="830" 
d="M229 789q23 53 54.5 90t86.5 37q21 0 42 -5.5t52 -16.5t52 -16.5t44 -5.5q28 0 44 12.5t34 44.5l33 -19q-21 -52 -52.5 -89.5t-87.5 -37.5q-21 0 -41 5.5t-52 16.5q-30 11 -52 16.5t-45 5.5q-28 0 -44 -12.5t-34 -44.5zM181 49q-85 59 -85 178v385q0 40 -54 40h-32v48
h380v-48h-32q-54 0 -54 -40v-401q0 -80 48.5 -115t121.5 -35q74 0 127 36.5t53 113.5v401q0 40 -54 40h-32v48h252v-48h-32q-54 0 -54 -40v-385q0 -113 -79.5 -175t-229.5 -62q-159 0 -244 59z" />
    <glyph glyph-name="utilde" unicode="&#x169;" horiz-adv-x="722" 
d="M197 592.5q-16 -12.5 -34 -44.5l-34 19q23 53 54.5 90t86.5 37q21 0 42 -5.5t52 -16.5t52 -16.5t44 -5.5q28 0 44 12.5t34 44.5l33 -19q-21 -52 -52.5 -89.5t-87.5 -37.5q-21 0 -41 5.5t-52 16.5q-30 11 -52 16.5t-45 5.5q-28 0 -44 -12.5zM691.5 56.5q13.5 3.5 20.5 4.5
v-33q-24 -18 -61 -28t-78 -10q-47 0 -87 18t-45 58q-25 -39 -73 -57.5t-98 -18.5q-98 0 -147 38t-49 103v206q0 20 -10 28.5t-25 8.5q-5 0 -19 -3l-10 40l225 69h39v-334q0 -84 69 -84q19 0 41.5 15t39 49t16.5 88v123q0 20 -10 28.5t-25 8.5q-5 0 -19 -3l-10 40l225 69h39
v-391q0 -36 29 -36q9 0 22.5 3.5z" />
    <glyph glyph-name="Umacron" unicode="&#x16a;" horiz-adv-x="830" 
d="M235 850h430v-75h-430v75zM181 49q-85 59 -85 178v385q0 40 -54 40h-32v48h380v-48h-32q-54 0 -54 -40v-401q0 -80 48.5 -115t121.5 -35q74 0 127 36.5t53 113.5v401q0 40 -54 40h-32v48h252v-48h-32q-54 0 -54 -40v-385q0 -113 -79.5 -175t-229.5 -62q-159 0 -244 59z
" />
    <glyph glyph-name="umacron" unicode="&#x16b;" horiz-adv-x="722" 
d="M565 553h-430v75h430v-75zM691.5 56.5q13.5 3.5 20.5 4.5v-33q-24 -18 -61 -28t-78 -10q-47 0 -87 18t-45 58q-25 -39 -73 -57.5t-98 -18.5q-98 0 -147 38t-49 103v206q0 20 -10 28.5t-25 8.5q-5 0 -19 -3l-10 40l225 69h39v-334q0 -84 69 -84q19 0 41.5 15t39 49
t16.5 88v123q0 20 -10 28.5t-25 8.5q-5 0 -19 -3l-10 40l225 69h39v-391q0 -36 29 -36q9 0 22.5 3.5z" />
    <glyph glyph-name="Ubreve" unicode="&#x16c;" horiz-adv-x="830" 
d="M312.5 822q-36.5 45 -36.5 115h45q2 -28 30.5 -52.5t97.5 -24.5t97.5 24.5t30.5 52.5h46q0 -160 -173 -160q-101 0 -137.5 45zM181 49q-85 59 -85 178v385q0 40 -54 40h-32v48h380v-48h-32q-54 0 -54 -40v-401q0 -80 48.5 -115t121.5 -35q74 0 127 36.5t53 113.5v401
q0 40 -54 40h-32v48h252v-48h-32q-54 0 -54 -40v-385q0 -113 -79.5 -175t-229.5 -62q-159 0 -244 59z" />
    <glyph glyph-name="ubreve" unicode="&#x16d;" horiz-adv-x="722" 
d="M212.5 600q-36.5 45 -36.5 115h45q2 -28 30.5 -52.5t97.5 -24.5t97.5 24.5t30.5 52.5h46q0 -160 -173 -160q-101 0 -137.5 45zM691.5 56.5q13.5 3.5 20.5 4.5v-33q-24 -18 -61 -28t-78 -10q-47 0 -87 18t-45 58q-25 -39 -73 -57.5t-98 -18.5q-98 0 -147 38t-49 103v206
q0 20 -10 28.5t-25 8.5q-5 0 -19 -3l-10 40l225 69h39v-334q0 -84 69 -84q19 0 41.5 15t39 49t16.5 88v123q0 20 -10 28.5t-25 8.5q-5 0 -19 -3l-10 40l225 69h39v-391q0 -36 29 -36q9 0 22.5 3.5z" />
    <glyph glyph-name="Uring" unicode="&#x16e;" horiz-adv-x="830" 
d="M361.5 806q-33.5 31 -33.5 82t33.5 82.5t88.5 31.5t88.5 -31.5t33.5 -82.5t-33.5 -82t-88.5 -31t-88.5 31zM487.5 851.5q15.5 14.5 15.5 36.5q0 23 -15.5 37t-37.5 14t-37.5 -14t-15.5 -37q0 -22 15.5 -36.5t37.5 -14.5t37.5 14.5zM181 49q-85 59 -85 178v385
q0 40 -54 40h-32v48h380v-48h-32q-54 0 -54 -40v-401q0 -80 48.5 -115t121.5 -35q74 0 127 36.5t53 113.5v401q0 40 -54 40h-32v48h252v-48h-32q-54 0 -54 -40v-385q0 -113 -79.5 -175t-229.5 -62q-159 0 -244 59z" />
    <glyph glyph-name="uring" unicode="&#x16f;" horiz-adv-x="722" 
d="M272.5 584q-33.5 31 -33.5 82t33.5 82.5t88.5 31.5t88.5 -31.5t33.5 -82.5t-33.5 -82t-88.5 -31t-88.5 31zM323.5 703q-15.5 -14 -15.5 -37q0 -22 15.5 -36.5t37.5 -14.5t37.5 14.5t15.5 36.5q0 23 -15.5 37t-37.5 14t-37.5 -14zM691.5 56.5q13.5 3.5 20.5 4.5v-33
q-24 -18 -61 -28t-78 -10q-47 0 -87 18t-45 58q-25 -39 -73 -57.5t-98 -18.5q-98 0 -147 38t-49 103v206q0 20 -10 28.5t-25 8.5q-5 0 -19 -3l-10 40l225 69h39v-334q0 -84 69 -84q19 0 41.5 15t39 49t16.5 88v123q0 20 -10 28.5t-25 8.5q-5 0 -19 -3l-10 40l225 69h39v-391
q0 -36 29 -36q9 0 22.5 3.5z" />
    <glyph glyph-name="Uhungarumlaut" unicode="&#x170;" horiz-adv-x="830" 
d="M221 821l126 139q12 14 32 28.5t46 14.5q32 0 48.5 -17t16.5 -38q0 -22 -15.5 -40t-46.5 -36l-172 -101zM450 821l126 139q12 14 32.5 28.5t46.5 14.5q32 0 48.5 -17t16.5 -38q0 -22 -15.5 -40t-46.5 -36l-173 -101zM181 49q-85 59 -85 178v385q0 40 -54 40h-32v48h380
v-48h-32q-54 0 -54 -40v-401q0 -80 48.5 -115t121.5 -35q74 0 127 36.5t53 113.5v401q0 40 -54 40h-32v48h252v-48h-32q-54 0 -54 -40v-385q0 -113 -79.5 -175t-229.5 -62q-159 0 -244 59z" />
    <glyph glyph-name="uhungarumlaut" unicode="&#x171;" horiz-adv-x="722" 
d="M156 549l-35 50l126 139q12 14 32 28.5t46 14.5q32 0 48.5 -17t16.5 -38q0 -22 -15.5 -40t-46.5 -36zM350 599l126 139q12 14 32.5 28.5t46.5 14.5q32 0 48.5 -17t16.5 -38q0 -22 -15.5 -40t-46.5 -36l-173 -101zM691.5 56.5q13.5 3.5 20.5 4.5v-33q-24 -18 -61 -28
t-78 -10q-47 0 -87 18t-45 58q-25 -39 -73 -57.5t-98 -18.5q-98 0 -147 38t-49 103v206q0 20 -10 28.5t-25 8.5q-5 0 -19 -3l-10 40l225 69h39v-334q0 -84 69 -84q19 0 41.5 15t39 49t16.5 88v123q0 20 -10 28.5t-25 8.5q-5 0 -19 -3l-10 40l225 69h39v-391q0 -36 29 -36
q9 0 22.5 3.5z" />
    <glyph glyph-name="Uogonek" unicode="&#x172;" horiz-adv-x="830" 
d="M820 700v-48h-32q-54 0 -54 -40v-385q0 -96 -58 -156t-169 -76q-58 -57 -58 -115q1 -31 17.5 -47t42.5 -16q12 0 26.5 4t24.5 10l16 -28q-28 -23 -58.5 -34.5t-56.5 -11.5q-71 0 -99.5 32t-28.5 71q0 35 24 68.5t65 61.5q-158 1 -242 59.5t-84 177.5v385q0 40 -54 40h-32
v48h380v-48h-32q-54 0 -54 -40v-401q0 -80 48.5 -115t121.5 -35q74 0 127 36.5t53 113.5v401q0 40 -54 40h-32v48h252z" />
    <glyph glyph-name="uogonek" unicode="&#x173;" horiz-adv-x="722" 
d="M585 -120q1 -31 17.5 -47t42.5 -16q12 0 26.5 4t24.5 10l16 -28q-28 -23 -58.5 -34.5t-56.5 -11.5q-71 0 -99.5 32t-28.5 71q0 35 24.5 69t65.5 61q-45 3 -79.5 21t-38.5 55q-25 -39 -73 -57.5t-98 -18.5q-98 0 -147 38t-49 103v206q0 20 -10 28.5t-25 8.5q-5 0 -19 -3
l-10 40l225 69h39v-334q0 -84 69 -84q19 0 41.5 15t39 49t16.5 88v123q0 20 -10 28.5t-25 8.5q-5 0 -19 -3l-10 40l225 69h39v-391q0 -36 29 -36q9 0 22.5 3.5t20.5 4.5v-33q-26 -20 -65 -29q-62 -58 -62 -119z" />
    <glyph glyph-name="Wcircumflex" unicode="&#x174;" horiz-adv-x="1181" 
d="M432 775l-27 30l163 185h100l163 -185l-27 -30l-142 103q-30 21 -44 21t-44 -21zM1171 700v-48h-17q-22 0 -42 -10t-26 -29l-200 -613h-126l-139 392l-165 -392h-156l-215 616q-15 36 -51 36h-24v48h361v-48h-24q-35 0 -35 -26q0 -6 3 -17l112 -418l141 353l-26 72
q-13 36 -51 36h-24v48h331v-48h-24q-35 0 -35 -26q0 -8 3 -17l115 -418l108 410q3 11 3 17q0 18 -11.5 26t-26.5 8h-24v48h265z" />
    <glyph glyph-name="wcircumflex" unicode="&#x175;" horiz-adv-x="868" 
d="M262 553l-27 30l163 185h100l163 -185l-27 -30l-142 103q-30 21 -44 21t-44 -21zM858 470v-48h-15q-20 0 -37.5 -10t-23.5 -29l-127 -383h-152l-72 311l-93 -311h-155l-115 386q-8 21 -16 28.5t-21 7.5h-21v48h292v-48h-21q-18 0 -29 -7.5t-11 -22.5q0 -3 2 -13l62 -229
l90 320h138l88 -331l66 232q3 11 3 18q0 17 -10.5 25t-23.5 8h-22v48h224z" />
    <glyph glyph-name="Ycircumflex" unicode="&#x176;" horiz-adv-x="767" 
d="M161 805l163 185h100l163 -185l-27 -30l-142 103q-30 21 -44 21t-44 -21l-142 -103zM185 48h32q54 0 54 40v198l-186 330q-11 20 -23 28t-28 8h-24v48h346v-48h-24q-17 0 -27 -6t-10 -18q0 -7 5 -19l120 -240l131 232q6 12 6 20q0 15 -13 23t-28 8h-24v48h265v-48h-17
q-20 0 -38.5 -10t-29.5 -29l-193 -329v-196q0 -40 54 -40h32v-48h-380v48z" />
    <glyph glyph-name="ycircumflex" unicode="&#x177;" horiz-adv-x="668" 
d="M185 553l-27 30l163 185h100l163 -185l-27 -30l-142 103q-30 21 -44 21t-44 -21zM658 470v-48h-17q-22 0 -41 -9.5t-27 -29.5l-218 -482q-52 -115 -170 -115q-47 0 -73 17.5t-26 45.5q0 21 10.5 37t36.5 16q11 0 19 -5.5t17 -15.5q13 -15 24 -15q30 0 48.5 23t35.5 61
l25 54l-217 382q-11 20 -23 28t-28 8h-24v48h325v-48h-24q-19 0 -31 -7.5t-12 -20.5q0 -7 4 -15l109 -200l87 192q5 12 5 19q0 16 -13 24t-27 8h-24v48h249z" />
    <glyph glyph-name="Ydieresis" unicode="&#x178;" horiz-adv-x="767" 
d="M238.5 796.5q-20.5 21.5 -20.5 53.5q0 33 20.5 54.5t54.5 21.5q35 0 56 -22t21 -54t-21 -53.5t-56 -21.5q-34 0 -54.5 21.5zM486.5 796.5q-20.5 21.5 -20.5 53.5q0 33 20.5 54.5t55.5 21.5q34 0 55 -22t21 -54t-21 -53.5t-55 -21.5q-35 0 -55.5 21.5zM185 48h32
q54 0 54 40v198l-186 330q-11 20 -23 28t-28 8h-24v48h346v-48h-24q-17 0 -27 -6t-10 -18q0 -7 5 -19l120 -240l131 232q6 12 6 20q0 15 -13 23t-28 8h-24v48h265v-48h-17q-20 0 -38.5 -10t-29.5 -29l-193 -329v-196q0 -40 54 -40h32v-48h-380v48z" />
    <glyph glyph-name="Zacute" unicode="&#x179;" horiz-adv-x="645" 
d="M257 823l127 139q12 14 32 28.5t46 14.5q32 0 48.5 -17t16.5 -38q0 -22 -15.5 -40t-46.5 -36l-172 -101zM17 44l380 588h-187q-101 0 -116 -136h-49v204h574v-28l-385 -604h235q51 0 74 34.5t33 100.5h49l-22 -203h-586v44z" />
    <glyph glyph-name="zacute" unicode="&#x17a;" horiz-adv-x="539" 
d="M184 601l127 139q12 14 32 28.5t46 14.5q32 0 48.5 -17t16.5 -38q0 -22 -15.5 -40t-46.5 -36l-172 -101zM15 31l292 373h-176q-17 0 -27 -24t-16 -60h-45v150h475v-37l-288 -367h163q27 0 44 24t29 60h42l-13 -150h-480v31z" />
    <glyph glyph-name="Zdotaccent" unicode="&#x17b;" horiz-adv-x="645" 
d="M280.5 796.5q-20.5 21.5 -20.5 53.5q0 33 20.5 54.5t54.5 21.5t55 -22t21 -54t-21 -53.5t-55 -21.5t-54.5 21.5zM17 44l380 588h-187q-101 0 -116 -136h-49v204h574v-28l-385 -604h235q51 0 74 34.5t33 100.5h49l-22 -203h-586v44z" />
    <glyph glyph-name="zdotaccent" unicode="&#x17c;" horiz-adv-x="539" 
d="M214.5 574.5q-20.5 21.5 -20.5 53.5q0 33 20.5 54.5t54.5 21.5t55 -22t21 -54t-21 -53.5t-55 -21.5t-54.5 21.5zM15 31l292 373h-176q-17 0 -27 -24t-16 -60h-45v150h475v-37l-288 -367h163q27 0 44 24t29 60h42l-13 -150h-480v31z" />
    <glyph glyph-name="Zcaron" unicode="&#x17d;" horiz-adv-x="645" 
d="M130 960l27 30l142 -103q30 -21 44 -21t44 21l142 103l27 -30l-163 -185h-100zM17 44l380 588h-187q-101 0 -116 -136h-49v204h574v-28l-385 -604h235q51 0 74 34.5t33 100.5h49l-22 -203h-586v44z" />
    <glyph glyph-name="zcaron" unicode="&#x17e;" horiz-adv-x="539" 
d="M76 738l27 30l142 -103q30 -21 44 -21t44 21l142 103l27 -30l-163 -185h-100zM15 31l292 373h-176q-17 0 -27 -24t-16 -60h-45v150h475v-37l-288 -367h163q27 0 44 24t29 60h42l-13 -150h-480v31z" />
    <glyph glyph-name="uni018F" unicode="&#x18f;" horiz-adv-x="764" 
d="M640.5 618.5q95.5 -91.5 95.5 -268.5q0 -168 -88 -264t-274 -96q-178 0 -262 83t-84 218v47h495v13q0 117 -51.5 193t-148.5 76q-94 0 -149.5 -42t-74.5 -135h-70q8 75 48.5 135.5t114 96t175.5 35.5q178 0 273.5 -91.5zM465.5 128.5q34.5 43.5 48.5 117.5h-272
q0 -30 12.5 -67.5t42 -65.5t78.5 -28q56 0 90.5 43.5z" />
    <glyph glyph-name="florin" unicode="&#x192;" horiz-adv-x="533" 
d="M487 689q45 -33 45 -89q0 -66 -67 -66q-26 0 -42 11t-16 32q0 8 4 20t4 18q0 19 -13 31t-36 12q-50 0 -50 -81v-107h122v-69h-122v-436q0 -61 -44 -101t-141 -40q-32 0 -76 7t-73 20v74q38 -12 66 -12q68 0 68 60v428h-97v69h97v82q0 82 58.5 126t155.5 44q112 0 157 -33
z" />
    <glyph glyph-name="Ohorn" unicode="&#x1a0;" horiz-adv-x="857" 
d="M885 600.5q-44 -52.5 -106 -82.5q31 -72 31 -168q0 -167 -96 -263.5t-294 -96.5t-294 96.5t-96 263.5t96 263.5t294 96.5q241 0 336 -148q48 35 48 83q0 15 -6 27t-17 29q-11 15 -17 27.5t-6 27.5q0 28 22 48.5t57 20.5q40 0 66 -29.5t26 -80.5q0 -62 -44 -114.5z
M552 137q47 75 47 213t-47 214t-133 76q-84 0 -131 -76t-47 -214q0 -137 47 -212.5t131 -75.5q86 0 133 75z" />
    <glyph glyph-name="ohorn" unicode="&#x1a1;" horiz-adv-x="752" 
d="M732.5 348q-37.5 -50 -93.5 -81q1 -10 1 -32q0 -121 -78 -183t-231 -62t-231 62t-78 183t78 183t231 62q242 0 295 -152q19 27 19 56q0 15 -6 27t-17 29q-11 15 -17 27.5t-6 27.5q0 28 22 48.5t57 20.5q40 0 66 -29.5t26 -80.5q0 -56 -37.5 -106zM409.5 102
q28.5 45 28.5 133t-28.5 133t-78.5 45t-78.5 -45t-28.5 -133t28.5 -133t78.5 -45t78.5 45z" />
    <glyph glyph-name="Uhorn" unicode="&#x1af;" horiz-adv-x="830" 
d="M181 49q-85 59 -85 178v385q0 40 -54 40h-32v48h380v-48h-32q-54 0 -54 -40v-401q0 -80 48.5 -115t121.5 -35q74 0 127 36.5t53 113.5v401q0 40 -54 40h-32v48h201q40 0 59.5 24.5t19.5 54.5q0 15 -6 27t-17 29q-11 15 -17 27.5t-6 27.5q0 28 22 48.5t57 20.5
q40 0 66 -29.5t26 -80.5t-22.5 -94.5t-63.5 -70.5t-92 -30q-33 -2 -47 -12t-14 -30v-385q0 -113 -79.5 -175t-229.5 -62q-159 0 -244 59z" />
    <glyph glyph-name="uhorn" unicode="&#x1b0;" horiz-adv-x="722" 
d="M123 28q-49 38 -49 103v206q0 20 -10 28.5t-25 8.5q-5 0 -19 -3l-10 40l225 69h39v-334q0 -84 69 -84q19 0 41.5 15t39 49t16.5 88v123q0 20 -10 28.5t-25 8.5q-5 0 -19 -3l-10 40l225 69h39v-104q39 22 58.5 46.5t19.5 55.5q0 15 -6 27t-17 29q-11 15 -17 27.5t-6 27.5
q0 28 22 48.5t57 20.5q40 0 66 -29.5t26 -80.5t-31 -97t-78.5 -77.5t-93.5 -41.5v-243q0 -36 29 -36q9 0 22.5 3.5t20.5 4.5v-33q-24 -18 -61 -28t-78 -10q-48 0 -88 18t-45 58q-24 -39 -72 -57.5t-98 -18.5q-98 0 -147 38z" />
    <glyph glyph-name="uni01CD" unicode="&#x1cd;" horiz-adv-x="827" 
d="M367 775l-163 185l27 30l142 -103q30 -21 44 -21t44 21l142 103l27 -30l-163 -185h-100zM823 48v-48h-361v48h24q35 0 35 25q0 8 -3 18l-30 83h-249l-29 -75q-4 -9 -4 -19q0 -16 12 -24t27 -8h24v-48h-265v48h17q22 0 41 9.5t27 29.5l238 589l155 52l266 -644
q15 -36 51 -36h24zM463 242l-97 267l-102 -267h199z" />
    <glyph glyph-name="uni01CE" unicode="&#x1ce;" horiz-adv-x="616" 
d="M95 738l27 30l142 -103q30 -21 44 -21t44 21l142 103l27 -30l-163 -185h-100zM58.5 17.5q-45.5 27.5 -45.5 79.5q0 79 80.5 124.5t242.5 67.5v33q0 44 -26.5 66t-68.5 22q-23 0 -41.5 -6.5t-29 -16t-10.5 -17.5q0 -5 3 -16.5t3 -18.5q0 -21 -16 -35t-47 -14
q-27 0 -48.5 19.5t-21.5 54.5q0 57 65 88.5t186 31.5q73 0 130.5 -19.5t89.5 -54t32 -78.5v-239q0 -36 29 -36q9 0 22.5 3.5t20.5 4.5v-33q-24 -18 -61 -28t-78 -10q-47 0 -77.5 13t-47.5 51h-4q-29 -33 -75 -48.5t-94 -15.5q-67 0 -112.5 27.5zM307.5 73q18.5 12 28.5 34
v133q-125 -44 -125 -128q0 -23 16 -37t44 -14q18 0 36.5 12z" />
    <glyph glyph-name="uni01CF" unicode="&#x1cf;" horiz-adv-x="412" 
d="M-7 960l27 30l142 -103q30 -21 44 -21t44 21l142 103l27 -30l-163 -185h-100zM16 48h32q54 0 54 40v524q0 40 -54 40h-32v48h380v-48h-32q-54 0 -54 -40v-524q0 -40 54 -40h32v-48h-380v48z" />
    <glyph glyph-name="uni01D0" unicode="&#x1d0;" horiz-adv-x="412" 
d="M-7 738l27 30l142 -103q30 -21 44 -21t44 21l142 103l27 -30l-163 -185h-100zM20 48h32q54 0 54 40v249q0 20 -10 28.5t-25 8.5q-5 0 -19 -3l-10 40l225 69h39v-392q0 -40 54 -40h32v-48h-372v48z" />
    <glyph glyph-name="uni01D1" unicode="&#x1d1;" horiz-adv-x="840" 
d="M207 960l27 30l142 -103q30 -21 44 -21t44 21l142 103l27 -30l-163 -185h-100zM126 86.5q-96 96.5 -96 263.5t96 263.5t294 96.5t294 -96.5t96 -263.5t-96 -263.5t-294 -96.5t-294 96.5zM552 137q47 75 47 213t-47 214t-133 76q-84 0 -131 -76t-47 -214q0 -137 47 -212.5
t131 -75.5q86 0 133 75z" />
    <glyph glyph-name="uni01D2" unicode="&#x1d2;" horiz-adv-x="662" 
d="M118 738l27 30l142 -103q30 -21 44 -21t44 21l142 103l27 -30l-163 -185h-100zM100 52q-78 62 -78 183t78 183t231 62t231 -62t78 -183t-78 -183t-231 -62t-231 62zM409.5 102q28.5 45 28.5 133t-28.5 133t-78.5 45t-78.5 -45t-28.5 -133t28.5 -133t78.5 -45t78.5 45z
" />
    <glyph glyph-name="uni01D3" unicode="&#x1d3;" horiz-adv-x="830" 
d="M202 960l27 30l142 -103q30 -21 44 -21t44 21l142 103l27 -30l-163 -185h-100zM181 49q-85 59 -85 178v385q0 40 -54 40h-32v48h380v-48h-32q-54 0 -54 -40v-401q0 -80 48.5 -115t121.5 -35q74 0 127 36.5t53 113.5v401q0 40 -54 40h-32v48h252v-48h-32q-54 0 -54 -40
v-385q0 -113 -79.5 -175t-229.5 -62q-159 0 -244 59z" />
    <glyph glyph-name="uni01D4" unicode="&#x1d4;" horiz-adv-x="722" 
d="M289 553l-163 185l27 30l142 -103q30 -21 44 -21t44 21l142 103l27 -30l-163 -185h-100zM691.5 56.5q13.5 3.5 20.5 4.5v-33q-24 -18 -61 -28t-78 -10q-47 0 -87 18t-45 58q-25 -39 -73 -57.5t-98 -18.5q-98 0 -147 38t-49 103v206q0 20 -10 28.5t-25 8.5q-5 0 -19 -3
l-10 40l225 69h39v-334q0 -84 69 -84q19 0 41.5 15t39 49t16.5 88v123q0 20 -10 28.5t-25 8.5q-5 0 -19 -3l-10 40l225 69h39v-391q0 -36 29 -36q9 0 22.5 3.5z" />
    <glyph glyph-name="uni01D5" unicode="&#x1d5;" horiz-adv-x="830" 
d="M220 1055h430v-75h-430v75zM255.5 796.5q-20.5 21.5 -20.5 53.5q0 33 20.5 54.5t54.5 21.5q35 0 56 -22t21 -54t-21 -53.5t-56 -21.5q-34 0 -54.5 21.5zM503.5 796.5q-20.5 21.5 -20.5 53.5q0 33 20.5 54.5t55.5 21.5q34 0 55 -22t21 -54t-21 -53.5t-55 -21.5
q-35 0 -55.5 21.5zM181 49q-85 59 -85 178v385q0 40 -54 40h-32v48h380v-48h-32q-54 0 -54 -40v-401q0 -80 48.5 -115t121.5 -35q74 0 127 36.5t53 113.5v401q0 40 -54 40h-32v48h252v-48h-32q-54 0 -54 -40v-385q0 -113 -79.5 -175t-229.5 -62q-159 0 -244 59z" />
    <glyph glyph-name="uni01D6" unicode="&#x1d6;" horiz-adv-x="722" 
d="M563 753h-430v75h430v-75zM166.5 682.5q20.5 21.5 54.5 21.5q35 0 56 -22t21 -54t-21 -53.5t-56 -21.5q-34 0 -54.5 21.5t-20.5 53.5q0 33 20.5 54.5zM414.5 682.5q20.5 21.5 55.5 21.5q34 0 55 -22t21 -54t-21 -53.5t-55 -21.5q-35 0 -55.5 21.5t-20.5 53.5
q0 33 20.5 54.5zM691.5 56.5q13.5 3.5 20.5 4.5v-33q-24 -18 -61 -28t-78 -10q-47 0 -87 18t-45 58q-25 -39 -73 -57.5t-98 -18.5q-98 0 -147 38t-49 103v206q0 20 -10 28.5t-25 8.5q-5 0 -19 -3l-10 40l225 69h39v-334q0 -84 69 -84q19 0 41.5 15t39 49t16.5 88v123
q0 20 -10 28.5t-25 8.5q-5 0 -19 -3l-10 40l225 69h39v-391q0 -36 29 -36q9 0 22.5 3.5z" />
    <glyph glyph-name="uni01D7" unicode="&#x1d7;" horiz-adv-x="830" 
d="M391 979l92 109q11 13 31.5 28t47.5 15q32 0 46 -16.5t14 -38.5t-15.5 -39t-47.5 -33l-133 -69zM256 796.5q-21 21.5 -21 53.5t21 54t55 22t55 -22t21 -54t-21 -53.5t-55 -21.5t-55 21.5zM504 796.5q-21 21.5 -21 53.5t21 54t55 22t55 -22t21 -54t-21 -53.5t-55 -21.5
t-55 21.5zM181 49q-85 59 -85 178v385q0 40 -54 40h-32v48h380v-48h-32q-54 0 -54 -40v-401q0 -80 48.5 -115t121.5 -35q74 0 127 36.5t53 113.5v401q0 40 -54 40h-32v48h252v-48h-32q-54 0 -54 -40v-385q0 -113 -79.5 -175t-229.5 -62q-159 0 -244 59z" />
    <glyph glyph-name="uni01D8" unicode="&#x1d8;" horiz-adv-x="722" 
d="M337 711l-35 44l92 109q11 13 31.5 28t47.5 15q32 0 46 -16.5t14 -38.5t-15.5 -39t-47.5 -33zM167 572.5q-21 21.5 -21 53.5t21 54t55 22t55 -22t21 -54t-21 -53.5t-55 -21.5t-55 21.5zM525 680q21 -22 21 -54t-21 -53.5t-55 -21.5t-55 21.5t-21 53.5t21 54t55 22t55 -22
zM691.5 56.5q13.5 3.5 20.5 4.5v-33q-24 -18 -61 -28t-78 -10q-47 0 -87 18t-45 58q-25 -39 -73 -57.5t-98 -18.5q-98 0 -147 38t-49 103v206q0 20 -10 28.5t-25 8.5q-5 0 -19 -3l-10 40l225 69h39v-334q0 -84 69 -84q19 0 41.5 15t39 49t16.5 88v123q0 20 -10 28.5t-25 8.5
q-5 0 -19 -3l-10 40l225 69h39v-391q0 -36 29 -36q9 0 22.5 3.5z" />
    <glyph glyph-name="uni01D9" unicode="&#x1d9;" horiz-adv-x="830" 
d="M229 1122l26 30l137 -103q28 -21 42 -21t42 21l137 103l26 -30l-157 -185h-96zM254.5 796.5q-20.5 21.5 -20.5 54.5q0 32 21 54t55 22t55 -22t21 -54q0 -33 -20.5 -54.5t-55.5 -21.5t-55.5 21.5zM502.5 796.5q-20.5 21.5 -20.5 54.5q0 32 21 54t55 22t55 -22t21 -54
q0 -33 -20.5 -54.5t-55.5 -21.5t-55.5 21.5zM181 49q-85 59 -85 178v385q0 40 -54 40h-32v48h380v-48h-32q-54 0 -54 -40v-401q0 -80 48.5 -115t121.5 -35q74 0 127 36.5t53 113.5v401q0 40 -54 40h-32v48h252v-48h-32q-54 0 -54 -40v-385q0 -113 -79.5 -175t-229.5 -62
q-159 0 -244 59z" />
    <glyph glyph-name="uni01DA" unicode="&#x1da;" horiz-adv-x="722" 
d="M298 713l-157 185l26 30l137 -103q28 -21 42 -21t42 21l137 103l26 -30l-157 -185h-96zM167 681q21 22 55 22t55 -22t21 -54q0 -33 -20.5 -54.5t-55.5 -21.5t-55.5 21.5t-20.5 54.5q0 32 21 54zM415 681q21 22 55 22t55 -22t21 -54q0 -33 -20.5 -54.5t-55.5 -21.5
t-55.5 21.5t-20.5 54.5q0 32 21 54zM691.5 56.5q13.5 3.5 20.5 4.5v-33q-24 -18 -61 -28t-78 -10q-47 0 -87 18t-45 58q-25 -39 -73 -57.5t-98 -18.5q-98 0 -147 38t-49 103v206q0 20 -10 28.5t-25 8.5q-5 0 -19 -3l-10 40l225 69h39v-334q0 -84 69 -84q19 0 41.5 15t39 49
t16.5 88v123q0 20 -10 28.5t-25 8.5q-5 0 -19 -3l-10 40l225 69h39v-391q0 -36 29 -36q9 0 22.5 3.5z" />
    <glyph glyph-name="uni01DB" unicode="&#x1db;" horiz-adv-x="830" 
d="M308 1004q-32 16 -47.5 33t-15.5 39t14 38.5t46 16.5q27 0 47.5 -15t31.5 -28l92 -109l-35 -44zM257 796.5q-21 21.5 -21 53.5t21 54t55 22t55 -22t21 -54t-21 -53.5t-55 -21.5t-55 21.5zM505 796.5q-21 21.5 -21 53.5t21 54t55 22t55 -22t21 -54t-21 -53.5t-55 -21.5
t-55 21.5zM181 49q-85 59 -85 178v385q0 40 -54 40h-32v48h380v-48h-32q-54 0 -54 -40v-401q0 -80 48.5 -115t121.5 -35q74 0 127 36.5t53 113.5v401q0 40 -54 40h-32v48h252v-48h-32q-54 0 -54 -40v-385q0 -113 -79.5 -175t-229.5 -62q-159 0 -244 59z" />
    <glyph glyph-name="uni01DC" unicode="&#x1dc;" horiz-adv-x="722" 
d="M172.5 813q-15.5 17 -15.5 39t14 38.5t46 16.5q27 0 47.5 -15t31.5 -28l92 -109l-35 -44l-133 69q-32 16 -47.5 33zM169 572.5q-21 21.5 -21 53.5t21 54t55 22t55 -22t21 -54t-21 -53.5t-55 -21.5t-55 21.5zM417 572.5q-21 21.5 -21 53.5t21 54t55 22t55 -22t21 -54
t-21 -53.5t-55 -21.5t-55 21.5zM691.5 56.5q13.5 3.5 20.5 4.5v-33q-24 -18 -61 -28t-78 -10q-47 0 -87 18t-45 58q-25 -39 -73 -57.5t-98 -18.5q-98 0 -147 38t-49 103v206q0 20 -10 28.5t-25 8.5q-5 0 -19 -3l-10 40l225 69h39v-334q0 -84 69 -84q19 0 41.5 15t39 49
t16.5 88v123q0 20 -10 28.5t-25 8.5q-5 0 -19 -3l-10 40l225 69h39v-391q0 -36 29 -36q9 0 22.5 3.5z" />
    <glyph glyph-name="Gcaron" unicode="&#x1e6;" horiz-adv-x="791" 
d="M219 960l27 30l142 -103q30 -21 44 -21t44 21l142 103l27 -30l-163 -185h-100zM196.5 35q-83.5 45 -124.5 126t-41 189t42 189t125.5 126t204.5 45q70 0 125.5 -16t93.5 -40q3 -3 9 -3q8 0 8 8v46h65v-219h-57q-11 81 -67.5 117t-127.5 36q-61 0 -108.5 -34t-74.5 -99.5
t-27 -155.5q0 -139 49 -214t138 -75q49 0 87 11v188q0 49 -60 49h-17v39h346v-31h-19q-23 0 -36 -12t-13 -29v-212q-80 -46 -150.5 -60t-162.5 -14q-124 0 -207.5 45z" />
    <glyph glyph-name="gcaron" unicode="&#x1e7;" horiz-adv-x="608" 
d="M222 553l-163 185l27 30l142 -103q30 -21 44 -21t44 21l142 103l27 -30l-163 -185h-100zM635 461.5q29 -18.5 29 -47.5q0 -28 -15 -43.5t-43 -15.5q-17 0 -25 6.5t-16 20.5t-16.5 21t-25.5 7q-7 0 -25 -5q28 -35 28 -88q0 -79 -64.5 -119.5t-187.5 -40.5q-66 0 -114 12
q-16 -15 -16 -30q0 -12 8.5 -18.5t24.5 -6.5h207q79 0 127 -34.5t48 -97.5q0 -76 -73 -122.5t-219 -46.5q-249 0 -249 123q0 29 19.5 48.5t51.5 29.5q-31 11 -44.5 33t-13.5 49q0 49 69 94q-78 40 -78 127q0 80 64.5 121.5t187.5 41.5q115 0 178 -36q28 21 55 28.5t58 7.5
q41 0 70 -18.5zM328 317q0 98 -54 98t-54 -98q0 -97 54 -97t54 97zM151 -59q0 -33 31 -50.5t87 -17.5q54 0 84.5 18t30.5 51q0 19 -14 32t-43 13h-157q-19 -14 -19 -46z" />
    <glyph glyph-name="Aringacute" unicode="&#x1fa;" horiz-adv-x="827" 
d="M319 980l-36 50l127 139q12 14 32 28.5t46 14.5q32 0 48.5 -17t16.5 -38q0 -22 -15.5 -40t-46.5 -36zM503.5 934.5q33.5 -31.5 33.5 -82.5t-33.5 -82t-88.5 -31t-88.5 31t-33.5 82t33.5 82.5t88.5 31.5t88.5 -31.5zM452.5 815.5q15.5 14.5 15.5 36.5q0 23 -15.5 37
t-37.5 14t-37.5 -14t-15.5 -37q0 -22 15.5 -36.5t37.5 -14.5t37.5 14.5zM823 48v-48h-361v48h24q35 0 35 25q0 8 -3 18l-30 83h-249l-29 -75q-4 -9 -4 -19q0 -16 12 -24t27 -8h24v-48h-265v48h17q22 0 41 9.5t27 29.5l238 589l155 52l266 -644q15 -36 51 -36h24zM463 242
l-97 267l-102 -267h199z" />
    <glyph glyph-name="aringacute" unicode="&#x1fb;" horiz-adv-x="616" 
d="M175 857l127 139q12 14 32 28.5t46 14.5q32 0 48.5 -17t16.5 -38q0 -22 -15.5 -40t-46.5 -36l-172 -101zM220.5 584q-33.5 31 -33.5 82t33.5 82.5t88.5 31.5t88.5 -31.5t33.5 -82.5t-33.5 -82t-88.5 -31t-88.5 31zM346.5 629.5q15.5 14.5 15.5 36.5q0 23 -15.5 37
t-37.5 14t-37.5 -14t-15.5 -37q0 -22 15.5 -36.5t37.5 -14.5t37.5 14.5zM58.5 17.5q-45.5 27.5 -45.5 79.5q0 79 80.5 124.5t242.5 67.5v33q0 44 -26.5 66t-68.5 22q-23 0 -41.5 -6.5t-29 -16t-10.5 -17.5q0 -5 3 -16.5t3 -18.5q0 -21 -16 -35t-47 -14q-27 0 -48.5 19.5
t-21.5 54.5q0 57 65 88.5t186 31.5q73 0 130.5 -19.5t89.5 -54t32 -78.5v-239q0 -36 29 -36q9 0 22.5 3.5t20.5 4.5v-33q-24 -18 -61 -28t-78 -10q-47 0 -77.5 13t-47.5 51h-4q-29 -33 -75 -48.5t-94 -15.5q-67 0 -112.5 27.5zM307.5 73q18.5 12 28.5 34v133
q-125 -44 -125 -128q0 -23 16 -37t44 -14q18 0 36.5 12z" />
    <glyph glyph-name="AEacute" unicode="&#x1fc;" horiz-adv-x="1066" 
d="M578 823l127 139q12 14 32 28.5t46 14.5q32 0 48.5 -17t16.5 -38q0 -22 -15.5 -40t-46.5 -36l-172 -101zM17 48h17q20 0 38.5 10t29.5 29l311 534q4 7 4 14t-4 12t-12 5h-33v48h647v-204h-49q-15 136 -116 136h-171v-237h120q30 0 40.5 22.5t14.5 64.5h39v-242h-39
q-4 42 -14.5 64.5t-40.5 22.5h-120v-259h201q51 0 74 34.5t33 100.5h49l-22 -203h-629v48h32q54 0 54 40v86h-208l-40 -75q-6 -12 -6 -20q0 -15 13 -23t28 -8h24v-48h-265v48zM471 242v298l-169 -298h169z" />
    <glyph glyph-name="aeacute" unicode="&#x1fd;" horiz-adv-x="894" 
d="M390 601l127 139q12 14 32 28.5t46 14.5q32 0 48.5 -17t16.5 -38q0 -22 -15.5 -40t-46.5 -36l-172 -101zM64 17.5q-51 27.5 -51 79.5q0 77 76.5 122.5t232.5 67.5q5 26 13 45q-3 39 -28.5 58.5t-65.5 19.5q-23 0 -41.5 -6.5t-29 -16t-10.5 -17.5q0 -5 3 -16.5t3 -18.5
q0 -21 -16 -35t-47 -14q-27 0 -48.5 19.5t-21.5 54.5q0 57 65 88.5t186 31.5q95 0 163 -33q69 33 164 33q125 0 189 -57.5t64 -147.5v-32h-343v-9q0 -80 35.5 -131.5t102.5 -51.5q65 0 104 28.5t52 92.5h48q-8 -79 -68.5 -130.5t-165.5 -51.5q-158 0 -237 65
q-72 -65 -193 -65q-84 0 -135 27.5zM690 306q0 40 -15 75t-59 35q-35 0 -57.5 -30t-31.5 -80h163zM319 69.5q23 8.5 40 20.5q-42 56 -42 142q-106 -44 -106 -120q0 -23 16 -37t44 -14q25 0 48 8.5z" />
    <glyph glyph-name="Oslashacute" unicode="&#x1fe;" horiz-adv-x="840" 
d="M321 773l-36 50l127 139q12 14 32 28.5t46 14.5q32 0 48.5 -17t16.5 -38q0 -22 -15.5 -40t-46.5 -36zM780.5 514.5q29.5 -72.5 29.5 -164.5q0 -167 -96 -263.5t-294 -96.5q-151 0 -246 59l-79 -89l-55 45l78 89q-88 92 -88 256q0 167 96 263.5t294 96.5q120 0 207 -38
l51 58l58 -46l-45 -51q60 -46 89.5 -118.5zM250 243l293 334q-46 63 -124 63q-84 0 -131 -76t-47 -214q0 -59 9 -107zM552 137q47 75 47 213q0 92 -21 156l-304 -343q23 -50 59.5 -75.5t85.5 -25.5q86 0 133 75z" />
    <glyph glyph-name="oslashacute" unicode="&#x1ff;" horiz-adv-x="662" 
d="M243 551l-36 50l127 139q12 14 32 28.5t46 14.5q32 0 48.5 -17t16.5 -38q0 -22 -15.5 -40t-46.5 -36zM640 235q0 -121 -78 -183t-231 -62q-113 0 -187 34l-61 -59l-54 47l55 54q-62 60 -62 169q0 121 78 183t231 62q88 0 153 -21l73 72l57 -50l-59 -57q85 -62 85 -189z
M225 205l177 174q-27 34 -71 34q-50 0 -78.5 -45t-28.5 -133q0 -21 1 -30zM409.5 102q28.5 45 28.5 133q0 39 -6 69l-189 -184q27 -63 88 -63q50 0 78.5 45z" />
    <glyph glyph-name="Scommaaccent" unicode="&#x218;" horiz-adv-x="677" 
d="M213.5 6q-55.5 16 -93.5 40q-3 3 -9 3q-8 0 -8 -8v-46h-65v219h57q11 -81 67.5 -117t127.5 -36q61 0 99.5 23.5t38.5 80.5q0 34 -23 58t-54 38.5t-81 32.5q-75 27 -118.5 49.5t-75 65t-31.5 110.5q0 94 73.5 142.5t203.5 48.5q69 0 117.5 -15.5t88.5 -40.5q3 -3 9 -3
q8 0 8 8v46h65v-219h-57q-11 81 -62.5 117t-119.5 36q-48 0 -82 -23.5t-34 -64.5q0 -37 34 -57.5t88 -37.5l21 -7q73 -25 121 -49.5t84 -73t36 -125.5q0 -110 -82 -160.5t-218 -50.5q-70 0 -125.5 16zM245 -347q61 63 61 124q0 15 -6 27t-17 29q-11 15 -17 27.5t-6 27.5
q0 28 22 48.5t57 20.5q40 0 66 -29.5t26 -80.5q0 -100 -155 -222z" />
    <glyph glyph-name="scommaaccent" unicode="&#x219;" horiz-adv-x="547" 
d="M169 5q-45 15 -77 47l-9 -54h-45v155h42q13 -41 51.5 -68.5t86.5 -27.5q43 0 69.5 12.5t26.5 40.5q0 18 -21.5 29t-69.5 25q-59 18 -97 35t-66.5 52t-28.5 91q0 65 53.5 101.5t168.5 36.5q52 0 105.5 -13.5t81.5 -40.5l9 54h45v-155h-42q-8 38 -47.5 62.5t-89.5 24.5
q-39 0 -63 -11.5t-24 -33.5q0 -19 21.5 -29.5t70.5 -22.5q58 -14 97.5 -30t68.5 -51t29 -94q0 -81 -67 -115.5t-172 -34.5q-62 0 -107 15zM171 -368q61 63 61 124q0 15 -6 27t-17 29q-11 15 -17 27.5t-6 27.5q0 28 22 48.5t57 20.5q40 0 66 -29.5t26 -80.5q0 -100 -155 -222
z" />
    <glyph glyph-name="uni021A" unicode="&#x21a;" horiz-adv-x="758" 
d="M189 48h32q54 0 54 40v544h-126q-29 0 -46.5 -36t-25 -80.5t-7.5 -69.5h-50v254h718v-254h-50q0 25 -7.5 69.5t-25 80.5t-46.5 36h-126v-544q0 -40 54 -40h32v-48h-380v48zM286 -381q61 63 61 124q0 15 -6 27t-17 29q-11 15 -17 27.5t-6 27.5q0 28 22 48.5t57 20.5
q40 0 66 -29.5t26 -80.5q0 -61 -47 -122t-108 -100z" />
    <glyph glyph-name="uni021B" unicode="&#x21b;" horiz-adv-x="487" 
d="M461 127q-6 -72 -52.5 -104.5t-130.5 -32.5q-101 0 -159.5 33t-58.5 116v265h-59v66h59v90l161 49h39v-139h137v-66h-137v-265q0 -43 17.5 -65.5t52.5 -22.5q32 0 55 18t28 58h48zM297 -93.5q26 -29.5 26 -80.5q0 -61 -47 -122t-108 -100l-31 28q61 63 61 124q0 15 -6 27
t-17 29q-11 15 -17 27.5t-6 27.5q0 28 22 48.5t57 20.5q40 0 66 -29.5z" />
    <glyph glyph-name="uni0237" unicode="&#x237;" horiz-adv-x="410" 
d="M6 -132q73 23 98.5 77t25.5 134v258q0 20 -10 28.5t-25 8.5q-5 0 -19 -3l-10 40l225 69h39v-386q0 -131 -85.5 -194t-232.5 -63z" />
    <glyph glyph-name="uni0251" unicode="&#x251;" horiz-adv-x="674" 
d="M118 12.5q-52 22.5 -76.5 73.5t-24.5 138q0 129 86.5 192.5t222.5 63.5q84 0 159.5 -25.5t108.5 -64.5v-301q0 -36 29 -36q9 0 22.5 3.5t20.5 4.5v-33q-24 -18 -61 -28t-78 -10q-47 0 -77.5 13t-47.5 51h-4q-23 -34 -64 -49t-76 -15q-88 0 -140 22.5zM371.5 87
q22.5 30 22.5 77v222q-31 27 -72 27q-53 0 -79 -42t-26 -130q0 -184 92 -184q40 0 62.5 30z" />
    <glyph glyph-name="uni0259" unicode="&#x259;" horiz-adv-x="599" 
d="M497.5 418q79.5 -62 79.5 -183q0 -73 -34.5 -128.5t-100.5 -86t-159 -30.5q-125 0 -189 57.5t-64 147.5v32h343v9q0 80 -35.5 131.5t-102.5 51.5q-65 0 -104 -28.5t-52 -92.5h-48q8 79 68.5 130.5t165.5 51.5q153 0 232.5 -62zM335 84q22 30 32 80h-163q0 -40 15 -75
t59 -35q35 0 57 30z" />
    <glyph glyph-name="uni02BB" unicode="&#x2bb;" horiz-adv-x="273" 
d="M66 417.5q-26 29.5 -26 80.5q0 61 47 122t108 100l31 -28q-61 -63 -61 -124q0 -15 6 -27t17 -29q11 -15 17 -27.5t6 -27.5q0 -28 -22 -48.5t-57 -20.5q-40 0 -66 29.5z" />
    <glyph glyph-name="uni02BC" unicode="&#x2bc;" horiz-adv-x="273" 
d="M40 406q61 63 61 124q0 15 -6 27t-17 29q-11 15 -17 27.5t-6 27.5q0 28 22 48.5t57 20.5q40 0 66 -29.5t26 -80.5q0 -61 -47 -122t-108 -100z" />
    <glyph glyph-name="uni02BE" unicode="&#x2be;" 
d="M-107 587q46 3 62 23.5t16 45.5t-16 45.5t-62 22.5v53q108 0 147 -32t39 -89q0 -54 -45 -88t-141 -34v53z" />
    <glyph glyph-name="uni02BF" unicode="&#x2bf;" 
d="M-34 568q-45 34 -45 88q0 57 39 89t147 32v-53q-46 -2 -62 -22.5t-16 -45.5t16 -45.5t62 -23.5v-53q-96 0 -141 34z" />
    <glyph glyph-name="circumflex" unicode="&#x2c6;" horiz-adv-x="530" 
d="M60 605l157 185h96l157 -185l-26 -30l-137 103q-28 21 -42 21t-42 -21l-137 -103z" />
    <glyph glyph-name="caron" unicode="&#x2c7;" horiz-adv-x="530" 
d="M60 760l26 30l137 -103q28 -21 42 -21t42 21l137 103l26 -30l-157 -185h-96z" />
    <glyph glyph-name="uni02C8" unicode="&#x2c8;" 
d="M-79 741h158v-168h-158v168z" />
    <glyph glyph-name="uni02C9" unicode="&#x2c9;" horiz-adv-x="530" 
d="M50 638h430v-65h-430v65z" />
    <glyph glyph-name="uni02CA" unicode="&#x2ca;" 
d="M-123 621l126 139q12 14 32 28.5t46 14.5q33 0 49 -17t16 -38q0 -22 -15.5 -40t-46.5 -36l-172 -101z" />
    <glyph glyph-name="uni02CB" unicode="&#x2cb;" 
d="M-61 672q-31 18 -46 36t-15 40q0 21 16 38t48 17q26 0 46.5 -14.5t32.5 -28.5l126 -139l-35 -50z" />
    <glyph glyph-name="uni02CC" unicode="&#x2cc;" 
d="M-79 -39h158v-168h-158v168z" />
    <glyph glyph-name="breve" unicode="&#x2d8;" horiz-adv-x="530" 
d="M126.5 618q-36.5 45 -36.5 115h45q2 -28 30.5 -52.5t97.5 -24.5t97.5 24.5t30.5 52.5h46q0 -160 -173 -160q-101 0 -137.5 45z" />
    <glyph glyph-name="dotaccent" unicode="&#x2d9;" horiz-adv-x="530" 
d="M207.5 594.5q-20.5 21.5 -20.5 53.5q0 33 20.5 54.5t54.5 21.5t55.5 -22t21.5 -54t-21 -53.5t-56 -21.5q-34 0 -54.5 21.5z" />
    <glyph glyph-name="ring" unicode="&#x2da;" horiz-adv-x="530" 
d="M174 604.5q-33 31.5 -33 81.5q0 51 33 82.5t88 31.5t88.5 -31.5t33.5 -82.5t-33.5 -82t-88.5 -31t-88 31.5zM300 649.5q15 14.5 15 36.5q0 23 -15 37t-38 14q-22 0 -37.5 -14t-15.5 -37q0 -22 15.5 -36.5t37.5 -14.5q23 0 38 14.5z" />
    <glyph glyph-name="ogonek" unicode="&#x2db;" horiz-adv-x="530" 
d="M172.5 -191.5q-27.5 30.5 -27.5 68.5q0 42 34 80.5t88 66.5h64q-75 -61 -75 -128q1 -29 16.5 -44.5t41.5 -15.5q12 0 26 3.5t23 9.5l15 -27q-26 -22 -55.5 -33t-54.5 -11q-68 0 -95.5 30.5z" />
    <glyph glyph-name="tilde" unicode="&#x2dc;" horiz-adv-x="530" 
d="M67 587q23 53 54.5 90t86.5 37q21 0 42 -5.5t52 -16.5t52 -16.5t44 -5.5q28 0 44 12.5t34 44.5l33 -19q-21 -52 -52.5 -89.5t-87.5 -37.5q-21 0 -41 5.5t-52 16.5q-30 11 -52 16.5t-45 5.5q-28 0 -44 -12.5t-34 -44.5z" />
    <glyph glyph-name="hungarumlaut" unicode="&#x2dd;" horiz-adv-x="530" 
d="M14 621l127 139q12 14 32 28.5t46 14.5q32 0 48.5 -17t16.5 -38q0 -22 -15.5 -40t-46.5 -36l-172 -101zM243 621l126 139q12 14 32.5 28.5t46.5 14.5q32 0 48 -17t16 -38q0 -22 -15 -40t-46 -36l-173 -101z" />
    <glyph glyph-name="gravecomb" unicode="&#x300;" 
d="M-363 672q-31 18 -46 36t-15 40q0 21 16 38t48 17q26 0 46.5 -14.5t32.5 -28.5l126 -139l-35 -50z" />
    <glyph glyph-name="acutecomb" unicode="&#x301;" 
d="M-391 621l127 139q12 14 32 28.5t46 14.5q32 0 48.5 -17t16.5 -38q0 -22 -15.5 -40t-46.5 -36l-172 -101z" />
    <glyph glyph-name="uni0302" unicode="&#x302;" 
d="M-213 603l163 185h100l163 -185l-27 -30l-142 103q-30 21 -44 21t-44 -21l-142 -103z" />
    <glyph glyph-name="tildecomb" unicode="&#x303;" 
d="M-513 587q23 53 54.5 90t86.5 37q21 0 42 -5.5t52 -16.5t52 -16.5t44 -5.5q28 0 44 12.5t34 44.5l33 -19q-21 -52 -52.5 -89.5t-87.5 -37.5q-21 0 -41 5.5t-52 16.5q-30 11 -52 16.5t-45 5.5q-28 0 -44 -12.5t-34 -44.5z" />
    <glyph glyph-name="uni0304" unicode="&#x304;" 
d="M-215 648h430v-75h-430v75z" />
    <glyph glyph-name="uni0306" unicode="&#x306;" 
d="M-137.5 620q-36.5 45 -36.5 115h45q2 -28 30.5 -52.5t97.5 -24.5t97.5 24.5t30.5 52.5h46q0 -160 -173 -160q-101 0 -137.5 45z" />
    <glyph glyph-name="uni0307" unicode="&#x307;" 
d="M-54.5 594.5q-20.5 21.5 -20.5 53.5q0 33 20.5 54.5t54.5 21.5t55 -22t21 -54t-21 -53.5t-55 -21.5t-54.5 21.5z" />
    <glyph glyph-name="uni0308" unicode="&#x308;" 
d="M-179.5 594.5q-20.5 21.5 -20.5 53.5q0 33 20.5 54.5t54.5 21.5q35 0 56 -22t21 -54t-21 -53.5t-56 -21.5q-34 0 -54.5 21.5zM68.5 594.5q-20.5 21.5 -20.5 53.5q0 33 20.5 54.5t55.5 21.5q34 0 55 -22t21 -54t-21 -53.5t-55 -21.5q-35 0 -55.5 21.5z" />
    <glyph glyph-name="hookabovecomb" unicode="&#x309;" 
d="M-299 587.5q-27 14.5 -27 40.5q0 17 11.5 30.5t33.5 29.5q27 21 40 36.5t13 38.5q0 13 -8.5 23.5t-24.5 10.5q-17 0 -30 -8.5t-13 -29.5q0 -14 -11.5 -23t-27.5 -9t-27.5 10t-11.5 29q0 14 11.5 29.5t39 26.5t72.5 11q53 0 89.5 -20.5t36.5 -58.5q0 -26 -18 -42t-52 -35
q-28 -15 -40.5 -25.5t-12.5 -25.5q0 -26 29 -26l-8 -27q-37 0 -64 14.5z" />
    <glyph glyph-name="uni030A" unicode="&#x30a;" 
d="M-88.5 604q-33.5 31 -33.5 82t33.5 82.5t88.5 31.5t88.5 -31.5t33.5 -82.5t-33.5 -82t-88.5 -31t-88.5 31zM37.5 649.5q15.5 14.5 15.5 36.5q0 23 -15.5 37t-37.5 14t-37.5 -14t-15.5 -37q0 -22 15.5 -36.5t37.5 -14.5t37.5 14.5z" />
    <glyph glyph-name="uni030B" unicode="&#x30b;" 
d="M-204 619l126 139q12 14 32 28.5t46 14.5q32 0 48.5 -17t16.5 -38q0 -22 -15.5 -40t-46.5 -36l-172 -101zM25 619l126 139q12 14 32.5 28.5t46.5 14.5q32 0 48.5 -17t16.5 -38q0 -22 -15.5 -40t-46.5 -36l-173 -101z" />
    <glyph glyph-name="uni030C" unicode="&#x30c;" 
d="M-213 758l27 30l142 -103q30 -21 44 -21t44 21l142 103l27 -30l-163 -185h-100z" />
    <glyph glyph-name="uni031B" unicode="&#x31b;" 
d="M-127 276q46 22 68.5 48t22.5 60q0 15 -6 27t-17 29q-11 15 -17 27.5t-6 27.5q0 28 22 48.5t57 20.5q40 0 66 -29.5t26 -80.5q0 -54 -34 -101.5t-84.5 -78.5t-97.5 -38v40z" />
    <glyph glyph-name="dotbelowcomb" unicode="&#x323;" 
d="M-325 -194.5q-21 21.5 -21 53.5q0 33 21 55t55 22t55 -22t21 -55q0 -32 -21 -53.5t-55 -21.5t-55 21.5z" />
    <glyph glyph-name="uni0324" unicode="&#x324;" 
d="M-179.5 -169.5q-20.5 21.5 -20.5 53.5q0 33 20.5 55t54.5 22q35 0 56 -22t21 -55q0 -32 -21 -53.5t-56 -21.5q-34 0 -54.5 21.5zM68.5 -169.5q-20.5 21.5 -20.5 53.5q0 33 20.5 55t55.5 22q34 0 55 -22t21 -55q0 -32 -21 -53.5t-55 -21.5q-35 0 -55.5 21.5z" />
    <glyph glyph-name="uni0326" unicode="&#x326;" 
d="M-347 -381q61 63 61 124q0 15 -6 27t-17 29q-11 15 -17 27.5t-6 27.5q0 28 22 48.5t57 20.5q40 0 66 -29.5t26 -80.5q0 -61 -47 -122t-108 -100z" />
    <glyph glyph-name="uni0327" unicode="&#x327;" 
d="M-104 -255v41q59 0 93.5 15.5t34.5 53.5q0 30 -28 44t-57 16l-8 12l73 110h69l-46 -68q43 -7 81.5 -31t38.5 -73q0 -74 -59.5 -99t-130.5 -25q-32 0 -61 4z" />
    <glyph glyph-name="uni0328" unicode="&#x328;" 
d="M-104.5 -211q-28.5 32 -28.5 71q0 43 36 83.5t91 69.5h67q-78 -64 -78 -133q1 -31 17.5 -47t42.5 -16q12 0 26.5 4t24.5 10l16 -28q-28 -23 -58.5 -34.5t-56.5 -11.5q-71 0 -99.5 32z" />
    <glyph glyph-name="uni032E" unicode="&#x32e;" 
d="M-137.5 -168q-36.5 45 -36.5 115h45q2 -28 30.5 -52.5t97.5 -24.5t97.5 24.5t30.5 52.5h46q0 -160 -173 -160q-101 0 -137.5 45z" />
    <glyph glyph-name="uni0331" unicode="&#x331;" 
d="M-215 -64h430v-66h-430v66z" />
    <glyph glyph-name="uni0394" unicode="&#x394;" horiz-adv-x="720" 
d="M28 49l249 657h158l250 -657v-49h-657v49zM481 92l-157 448l-169 -448h326z" />
    <glyph glyph-name="uni03A9" unicode="&#x3a9;" horiz-adv-x="796" 
d="M30 176h37q6 -34 15.5 -54t28.5 -20h141v50q-62 1 -111.5 38t-77.5 95.5t-28 120.5q0 128 92 200t271 72t271 -72t92 -200q0 -62 -28.5 -119.5t-78.5 -95t-110 -39.5v-50h141q19 0 28.5 20t15.5 54h37l-15 -176h-304v211q51 14 80 61t29 119q0 91 -42 137.5t-116 46.5
q-73 0 -115.5 -46.5t-42.5 -137.5q0 -71 29.5 -118t79.5 -62v-211h-304z" />
    <glyph glyph-name="uni03BC" unicode="&#x3bc;" horiz-adv-x="722" 
d="M691.5 56.5q13.5 3.5 20.5 4.5v-33q-24 -18 -61 -28t-78 -10q-47 0 -87 18t-45 58q-25 -39 -73 -57.5t-98 -18.5h-4v-173h-192v352v168q0 20 -10 28.5t-25 8.5q-5 0 -19 -3l-10 40l225 69h39v-334q0 -84 69 -84q19 0 41.5 15t39 49t16.5 88v123q0 20 -10 28.5t-25 8.5
q-5 0 -19 -3l-10 40l225 69h39v-391q0 -36 29 -36q9 0 22.5 3.5z" />
    <glyph glyph-name="pi" unicode="&#x3c0;" horiz-adv-x="806" 
d="M496 20.5q-38 30.5 -38 90.5v293h-126v-404h-199v404h-101v66h741v-66h-116v-280q0 -24 11 -35.5t27 -11.5q15 0 33 9t30 20v-77q-38 -21 -71 -30t-72 -9q-81 0 -119 30.5z" />
    <glyph glyph-name="uni0E01" unicode="&#xe01;" horiz-adv-x="658" 
d="M42 206q0 36 22.5 70t65.5 50h-105q4 81 45.5 134.5t105.5 78t137 24.5q132 0 211.5 -48.5t79.5 -141.5v-373h-200v401q0 38 -34.5 62.5t-96.5 24.5q-65 0 -108.5 -31.5t-52.5 -78.5h195v-57q-38 -15 -51.5 -45.5t-13.5 -80.5v-195h-200v206z" />
    <glyph glyph-name="uni0E02" unicode="&#xe02;" horiz-adv-x="669" 
d="M82 215q47 9 92.5 32.5t75.5 60.5t30 86q0 50 -25.5 83.5t-84.5 33.5q-31 0 -51 -12t-25 -24q18 3 34 3q53 0 77 -26t24 -66q0 -43 -31.5 -70.5t-74.5 -27.5q-44 0 -76 28t-32 81q0 69 44 117.5t146 48.5q85 0 139 -42.5t54 -129.5q0 -58 -18.5 -96.5t-42.5 -58.5
t-55 -38v-122h133v477h200v-553h-533v215zM160 347.5q15 15.5 15 37.5q0 23 -13 38.5t-39 15.5q-23 0 -37 -15.5t-14 -38.5q0 -22 15 -37.5t36 -15.5q22 0 37 15.5z" />
    <glyph glyph-name="uni0E03" unicode="&#xe03;" horiz-adv-x="669" 
d="M82 215q46 9 91.5 34.5t76 65.5t30.5 89q0 32 -4.5 55t-17.5 39l-53 -36l-69 42q-29 -17 -42 -50q18 3 34 3q53 0 77 -26t24 -66q0 -43 -31.5 -70.5t-74.5 -27.5t-75.5 29.5t-32.5 83.5q0 52 27.5 106.5t79.5 77.5l80 -50l78 50q53 -16 85.5 -57t32.5 -106
q0 -137 -116 -203v-122h133v477h200v-553h-533v215zM160 326.5q15 15.5 15 37.5q0 23 -13 38.5t-39 15.5q-23 0 -37 -15.5t-14 -38.5q0 -22 15 -37.5t36 -15.5q22 0 37 15.5z" />
    <glyph glyph-name="uni0E04" unicode="&#xe04;" horiz-adv-x="715" 
d="M64 81q0 31 -4.5 60.5t-13.5 75.5q-10 52 -14.5 82.5t-4.5 64.5q0 93 77 146t238 53q162 0 240.5 -47t78.5 -125v-391h-200v385q0 103 -126 103q-68 0 -102 -30.5t-34 -83.5q0 -24 13 -80q2 -8 6.5 -32.5t4.5 -37.5l11 74q6 42 35.5 63.5t77.5 21.5q50 0 79 -28t29 -70
q0 -41 -29 -68.5t-78 -27.5q-40 0 -69 23l-36 -212h-189q10 40 10 81zM385 247.5q15 15.5 15 37.5q0 23 -13 38.5t-39 15.5q-23 0 -37 -15.5t-14 -38.5q0 -22 15 -37.5t36 -15.5q22 0 37 15.5z" />
    <glyph glyph-name="uni0E05" unicode="&#xe05;" horiz-adv-x="715" 
d="M64 81q0 31 -4.5 60.5t-13.5 75.5q-10 52 -14.5 82.5t-4.5 64.5q0 74 47.5 122.5t146.5 66.5l118 -78l123 78q99 -17 149 -60t50 -102v-391h-200v385q0 55 -34 79l-88 -61l-99 60q-41 -29 -41 -89q0 -15 4 -49t5 -46q9 -67 9 -91l11 87q9 42 37.5 63.5t75.5 21.5
q50 0 79 -28t29 -70q0 -41 -29 -68.5t-78 -27.5q-40 0 -69 23l-30 -189h-189q10 40 10 81zM379 224.5q15 15.5 15 37.5q0 23 -13 38.5t-39 15.5q-23 0 -37 -15.5t-14 -38.5q0 -22 15 -37.5t36 -15.5q22 0 37 15.5z" />
    <glyph glyph-name="uni0E06" unicode="&#xe06;" horiz-adv-x="706" 
d="M65 21.5q-32 31.5 -32 88.5q0 42 27.5 72.5t71.5 40.5l5 1v8q61 25 102 69.5t41 102.5q0 33 -4.5 58t-17.5 41l-53 -35l-69 41q-29 -17 -42 -49q18 3 34 3q53 0 77 -26t24 -66q0 -43 -31.5 -70.5t-74.5 -27.5t-75.5 29.5t-32.5 83.5q0 50 27 101t80 75l80 -48l78 49
q53 -16 85.5 -56.5t32.5 -105.5q0 -101 -62 -163v-51q73 -27 117 -60v426h199v-553h-180q-10 16 -49.5 48.5t-86.5 60.5q-1 -65 -40 -92t-125 -27q-74 0 -106 31.5zM160 332.5q15 15.5 15 37.5q0 23 -13 38.5t-39 15.5q-23 0 -37 -15.5t-14 -38.5q0 -22 15 -37.5t36 -15.5
q22 0 37 15.5zM132.5 61.5q4.5 6.5 4.5 28.5v70h-4q-18 0 -29.5 -16t-11.5 -40t7 -36.5t19 -12.5q10 0 14.5 6.5z" />
    <glyph glyph-name="uni0E07" unicode="&#xe07;" horiz-adv-x="616" 
d="M112.5 106q-22.5 58 -54 107t-58.5 72l150 84q56 -53 93 -138t45 -155h74v265q-44 2 -72.5 34t-28.5 77q0 52 37.5 81.5t94.5 29.5q74 0 121.5 -34t47.5 -96v-433h-424q-3 48 -25.5 106zM418 408.5q17 17.5 17 43.5t-17 43.5t-46 17.5q-27 0 -44 -17.5t-17 -43.5
t17 -43.5t44 -17.5q29 0 46 17.5z" />
    <glyph glyph-name="uni0E08" unicode="&#xe08;" horiz-adv-x="650" 
d="M283 158q-38 -36 -90 -36q-55 0 -90 34.5t-35 84.5q0 49 35 83.5t90 34.5q91 0 128 -90l49 -120q0 33 11 101q7 46 11 78.5t4 66.5q0 93 -113 93q-55 0 -84.5 -22t-37.5 -68h-145q8 47 44.5 84.5t97.5 59t140 21.5q135 0 216.5 -42t81.5 -126q0 -32 -8.5 -78.5
t-24.5 -113.5q-19 -82 -27 -125t-8 -78h-179zM235 194.5q18 18.5 18 45.5t-18 45.5t-47 18.5t-46.5 -18.5t-17.5 -45.5t17.5 -45.5t46.5 -18.5t47 18.5z" />
    <glyph glyph-name="uni0E09" unicode="&#xe09;" horiz-adv-x="680" 
d="M626 163q12 -25 12 -57q0 -56 -32 -86t-95 -30q-112 0 -125 94q-38 -21 -61.5 -41t-31.5 -43h-190v142q-42 2 -69 33t-27 74q0 49 36.5 78t90.5 29q71 0 116.5 -33t45.5 -92v-105q13 14 51 38q39 24 59 45t20 52v134q0 50 -27.5 71.5t-93.5 21.5q-60 0 -90 -24.5
t-39 -69.5h-153q6 45 41 83.5t99.5 62t152.5 23.5q146 0 228 -42t82 -126v-122q0 -36 -35 -71q23 -14 35 -39zM157.5 207q16.5 17 16.5 42t-16.5 42t-43.5 17q-26 0 -42.5 -17t-16.5 -42t16.5 -42t42.5 -17q27 0 43.5 17zM555 62.5q17 17.5 17 43.5t-17 43.5t-44 17.5
q-29 0 -46 -17.5t-17 -43.5t17 -43.5t46 -17.5q27 0 44 17.5z" />
    <glyph glyph-name="uni0E0A" unicode="&#xe0a;" horiz-adv-x="691" 
d="M82 215q47 9 92.5 32.5t75.5 60.5t30 86q0 50 -25.5 83.5t-84.5 33.5q-31 0 -51 -12t-25 -24q18 3 34 3q53 0 77 -26t24 -66q0 -43 -31.5 -70.5t-74.5 -27.5q-44 0 -76 28t-32 81q0 69 44 117.5t146 48.5q85 0 139 -42.5t54 -129.5q0 -58 -18.5 -96.5t-42.5 -58.5
t-55 -38v-122h156v240q0 36 -28 43v74q43 11 65.5 48t22.5 82h167q0 -61 -27 -102t-66 -59q66 -26 66 -93v-309h-556v215zM160 347.5q15 15.5 15 37.5q0 23 -13 38.5t-39 15.5q-23 0 -37 -15.5t-14 -38.5q0 -22 15 -37.5t36 -15.5q22 0 37 15.5z" />
    <glyph glyph-name="uni0E0B" unicode="&#xe0b;" horiz-adv-x="691" 
d="M82 215q46 9 91.5 34.5t76 65.5t30.5 89q0 32 -4.5 55t-17.5 39l-53 -36l-69 42q-29 -17 -42 -50q18 3 34 3q53 0 77 -26t24 -66q0 -43 -31.5 -70.5t-74.5 -27.5t-75.5 29.5t-32.5 83.5q0 52 27.5 106.5t79.5 77.5l80 -50l78 50q53 -16 85.5 -57t32.5 -106
q0 -137 -116 -203v-122h156v240q0 36 -28 43v74q43 11 65.5 48t22.5 82h167q0 -61 -27 -102t-66 -59q66 -26 66 -93v-309h-556v215zM160 326.5q15 15.5 15 37.5q0 23 -13 38.5t-39 15.5q-23 0 -37 -15.5t-14 -38.5q0 -22 15 -37.5t36 -15.5q22 0 37 15.5z" />
    <glyph glyph-name="uni0E0C" unicode="&#xe0c;" horiz-adv-x="951" 
d="M897 553v-553h-191q-15 41 -79 80q-7 -43 -38.5 -66.5t-86.5 -23.5q-64 0 -95 30t-31 86q0 63 43 94q-17 17 -17 37v166q0 38 -35.5 61.5t-95.5 23.5q-62 0 -104.5 -29.5t-54.5 -80.5h195v-57q-35 -13 -50 -32t-15 -52v-25q44 -2 72.5 -34t28.5 -77q0 -52 -37.5 -81.5
t-94.5 -29.5q-74 0 -121.5 34t-47.5 96v99q0 34 22 62.5t66 44.5h-105q3 83 45.5 136t106 77t134.5 24q79 0 145 -21.5t106 -64.5t40 -104v-128q0 -23 13 -36t38 -26q17 -9 27.5 -16t16.5 -18v404h200zM546 62.5q17 17.5 17 43.5t-17 43.5t-44 17.5q-29 0 -46 -17.5
t-17 -43.5t17 -43.5t46 -17.5q27 0 44 17.5zM186 144.5q-17 -17.5 -17 -43.5t17 -43.5t46 -17.5q27 0 44 17.5t17 43.5t-17 43.5t-44 17.5q-29 0 -46 -17.5z" />
    <glyph glyph-name="uni0E0D" unicode="&#xe0d;" horiz-adv-x="929" 
d="M68.5 462q40.5 53 102.5 77t132 24q79 0 143 -21.5t102 -64t38 -104.5v-297h89v477h200v-553h-488v403q0 38 -32 61.5t-92 23.5q-61 0 -100 -29t-51 -81h195v-57q-35 -13 -50 -32t-15 -52v-25q44 -2 72.5 -34t28.5 -77q0 -52 -37.5 -81.5t-94.5 -29.5q-74 0 -121.5 34
t-47.5 96v99q0 34 22 62.5t66 44.5h-105q3 83 43.5 136zM186 57.5q17 -17.5 46 -17.5q27 0 44 17.5t17 43.5t-17 43.5t-44 17.5q-29 0 -46 -17.5t-17 -43.5t17 -43.5zM409.5 -62q30.5 30 82.5 30q60 0 86.5 -29t26.5 -70q0 -15 -5 -32.5t-15 -30.5q136 5 148 159h140
q-13 -119 -91 -174t-219 -55q-106 0 -145 36t-39 92q0 44 30.5 74zM446 -181.5q17 -17.5 46 -17.5q27 0 44 17.5t17 43.5t-17 43.5t-44 17.5q-29 0 -46 -17.5t-17 -43.5t17 -43.5z" />
    <glyph glyph-name="uni0E0E" unicode="&#xe0e;" horiz-adv-x="689" 
d="M555.5 514.5q79.5 -48.5 79.5 -141.5v-612h-185q-45 72 -113 107q-38 -140 -166 -140q-68 0 -102 27t-34 78q0 53 43 84.5t134 31.5l31 -1q1 11 1 33h106q0 -29 -3 -59q56 -23 88 -54v533q0 38 -34.5 62.5t-96.5 24.5q-65 0 -108.5 -31.5t-52.5 -78.5h205v-57
q-30 -12 -37.5 -40.5t-7.5 -85.5v-75q0 -62 -47.5 -96t-121.5 -34q-57 0 -94.5 29.5t-37.5 81.5q0 45 28.5 77t72.5 34v29q0 63 68 85h-115q4 81 45.5 134.5t105.5 78t137 24.5q132 0 211.5 -48.5zM159 57.5q17 17.5 17 43.5t-17 43.5t-46 17.5q-27 0 -44 -17.5t-17 -43.5
t17 -43.5t44 -17.5q29 0 46 17.5zM206.5 -185q21.5 31 30.5 82l-31 1q-53 0 -83 -18.5t-30 -46.5q0 -22 14 -35.5t41 -13.5q37 0 58.5 31z" />
    <glyph glyph-name="uni0E0F" unicode="&#xe0f;" horiz-adv-x="689" 
d="M555.5 514.5q79.5 -48.5 79.5 -141.5v-612h-186l-59 56l-49 -56h-32q-12 30 -33 54q-23 -36 -56 -57t-73 -21q-125 0 -125 97q0 43 37.5 69.5t93.5 26.5q31 0 62 -9q1 11 1 33h100q0 -41 -14 -83q17 -17 29 -38l59 61l45 -41v548q0 38 -34.5 62.5t-96.5 24.5
q-65 0 -108.5 -31.5t-52.5 -78.5h205v-57q-30 -12 -37.5 -40.5t-7.5 -85.5v-75q0 -62 -47.5 -96t-121.5 -34q-57 0 -94.5 29.5t-37.5 81.5q0 45 28.5 77t72.5 34v29q0 63 68 85h-115q4 81 45.5 134.5t105.5 78t137 24.5q132 0 211.5 -48.5zM159 57.5q17 17.5 17 43.5
t-17 43.5t-46 17.5q-27 0 -44 -17.5t-17 -43.5t17 -43.5t44 -17.5q29 0 46 17.5zM208 -134q-25 12 -56 12q-30 0 -47 -12.5t-17 -34.5q0 -20 15 -31.5t33 -11.5q56 0 72 78z" />
    <glyph glyph-name="uni0E10" unicode="&#xe10;" horiz-adv-x="622" 
d="M505.5 366.5q63.5 -29.5 63.5 -114.5q0 -32 -6.5 -58.5t-19.5 -63.5q-14 -40 -20.5 -67.5t-6.5 -62.5h-179l-48 98q-38 -36 -90 -36q-55 0 -90 34.5t-35 84.5q0 49 35 83.5t90 34.5q42 0 73 -22t55 -68l31 -60q0 11 2 24.5t3 20.5q7 32 7 58q0 40 -13.5 55t-53.5 15
q-49 0 -133.5 -3t-134.5 -11v61q0 86 60.5 140t184.5 54q30 0 59 -5.5t36 -6.5q40 -9 59 -9q22 0 41.5 8.5t47.5 34.5l56 -84q-36 -29 -65.5 -40.5t-59.5 -11.5q-23 0 -39 3t-36 9q-19 6 -36.5 9.5t-42.5 3.5q-22 0 -44.5 -21.5t-24.5 -58.5q56 2 89 2q122 0 185.5 -29.5z
M241 134.5q18 18.5 18 45.5t-18 45.5t-47 18.5t-46.5 -18.5t-17.5 -45.5t17.5 -45.5t46.5 -18.5t47 18.5zM541 -37.5q28 -18.5 28 -56.5v-145h-164l-58 56q-28 -34 -49 -56h-29q-7 14 -21 38q-44 -62 -127 -62q-122 0 -122 98q0 38 33 65t96 27q46 0 90 -26q3 18 3 40h67
q-2 -51 -14 -89q10 -12 14 -19l59 61l83 -78v48q-21 3 -31.5 19.5t-10.5 35.5q0 27 19.5 44.5t64.5 17.5q41 0 69 -18.5zM468.5 -96.5q6.5 6.5 6.5 18.5q0 11 -6.5 17.5t-16.5 6.5t-18 -6.5t-8 -17.5q0 -12 8 -18.5t18 -6.5t16.5 6.5zM171.5 -196q20.5 15 33.5 46
q-32 28 -68 28q-26 0 -40 -12.5t-14 -34.5q0 -21 14 -31.5t34 -10.5t40.5 15z" />
    <glyph glyph-name="uni0E11" unicode="&#xe11;" horiz-adv-x="745" 
d="M116 234q66 28 115 71.5t49 98.5q0 32 -4.5 55t-17.5 39l-53 -36l-69 42q-29 -17 -42 -50q18 3 34 3q53 0 77 -26t24 -66q0 -43 -31.5 -70.5t-74.5 -27.5t-75.5 29.5t-32.5 83.5q0 52 27.5 106.5t79.5 77.5l80 -50l78 50q53 -16 85.5 -57t32.5 -106q0 -42 -14.5 -84.5
t-36.5 -74.5t-43 -44v-101l184 456h94q52 0 80.5 -27t28.5 -68v-458h-200v368q0 5 -4 5h-6l-138 -373h-227v234zM160 326.5q15 15.5 15 37.5q0 23 -13 38.5t-39 15.5q-23 0 -37 -15.5t-14 -38.5q0 -22 15 -37.5t36 -15.5q22 0 37 15.5z" />
    <glyph glyph-name="uni0E12" unicode="&#xe12;" horiz-adv-x="1018" 
d="M964 553v-553h-191q-1 20 -22 39t-57 38q-8 -42 -39 -64.5t-86 -22.5q-64 0 -95 30t-31 86q0 62 41 92q-15 18 -15 39v148q0 30 -5 48t-23 31l-88 -61l-86 60q-41 -29 -41 -89q0 -31 7 -77.5t8 -56.5q16 -100 16 -138q17 11 38.5 31t39.5 41q-40 6 -64.5 34t-24.5 66
q0 43 29 70t75 27q50 0 79 -28t29 -70q0 -79 -55.5 -152t-139.5 -121h-209q10 40 10 81q0 31 -4.5 60.5t-13.5 75.5q-10 52 -14.5 82.5t-4.5 64.5q0 71 59 120.5t162 68.5l105 -78l117 78q99 -17 149 -60t50 -102v-145q0 -15 12.5 -25.5t36.5 -24.5q18 -10 28.5 -17.5
t17.5 -16.5v391h200zM315 235.5q15 -15.5 36 -15.5q22 0 37 15.5t15 37.5q0 23 -13 38.5t-39 15.5q-23 0 -37 -15.5t-14 -38.5q0 -22 15 -37.5zM613 62.5q17 17.5 17 43.5t-17 43.5t-44 17.5q-29 0 -46 -17.5t-17 -43.5t17 -43.5t46 -17.5q27 0 44 17.5z" />
    <glyph glyph-name="uni0E13" unicode="&#xe13;" horiz-adv-x="965" 
d="M935 106q0 -56 -32 -86t-95 -30q-116 0 -125 98q-50 -25 -77 -45t-29 -43h-190v403q0 38 -32 61.5t-92 23.5q-61 0 -100 -29t-51 -81h195v-57q-35 -13 -50 -32t-15 -52v-25q44 -2 72.5 -34t28.5 -77q0 -52 -37.5 -81.5t-94.5 -29.5q-74 0 -121.5 34t-47.5 96v99
q0 34 22 62.5t66 44.5h-105q3 83 43.5 136t102.5 77t132 24q79 0 143 -21.5t102 -64t38 -104.5v-238q9 9 26 19t21 13q38 23 58 41t20 44v301h200v-283q0 -33 -29 -64q53 -29 53 -100zM852 62.5q17 17.5 17 43.5t-17 43.5t-44 17.5q-29 0 -46 -17.5t-17 -43.5t17 -43.5
t46 -17.5q27 0 44 17.5zM186 144.5q-17 -17.5 -17 -43.5t17 -43.5t46 -17.5q27 0 44 17.5t17 43.5t-17 43.5t-44 17.5q-29 0 -46 -17.5z" />
    <glyph glyph-name="uni0E14" unicode="&#xe14;" horiz-adv-x="734" 
d="M64 81q0 31 -4.5 60.5t-13.5 75.5q-10 52 -14.5 82.5t-4.5 64.5q0 92 85 145.5t248 53.5q162 0 241 -47t79 -125v-391h-200v385q0 103 -127 103q-126 0 -126 -114q0 -33 10 -127q12 -100 12 -144l-1 -13q23 13 51.5 38.5t41.5 45.5h-4q-35 0 -60 30.5t-25 69.5
q0 43 29 70t75 27q50 0 79 -28t29 -70q0 -77 -61 -150t-149 -123h-200q10 40 10 81zM394 235.5q15 15.5 15 37.5q0 23 -13 38.5t-39 15.5q-23 0 -37 -15.5t-14 -38.5q0 -22 15 -37.5t36 -15.5q22 0 37 15.5z" />
    <glyph glyph-name="uni0E15" unicode="&#xe15;" horiz-adv-x="734" 
d="M64 81q0 31 -4.5 60.5t-13.5 75.5q-10 52 -14.5 82.5t-4.5 64.5q0 70 59.5 120t162.5 69l110 -78l122 78q99 -17 149 -60t50 -102v-391h-200v385q0 52 -38 79l-83 -61l-91 60q-41 -29 -41 -89q0 -35 10 -137q11 -97 11 -147q23 13 51.5 38.5t41.5 45.5q-40 4 -64.5 32.5
t-24.5 67.5q0 43 29 70t75 27q50 0 79 -28t29 -70q0 -77 -61 -150t-149 -123h-200q10 40 10 81zM394 235.5q15 15.5 15 37.5q0 23 -13 38.5t-39 15.5q-23 0 -37 -15.5t-14 -38.5q0 -22 15 -37.5t36 -15.5q22 0 37 15.5z" />
    <glyph glyph-name="uni0E16" unicode="&#xe16;" horiz-adv-x="658" 
d="M89.5 24q-47.5 34 -47.5 96v99q0 34 22 62.5t66 44.5h-105q4 81 45.5 134.5t105.5 78t137 24.5q132 0 211.5 -48.5t79.5 -141.5v-373h-200v401q0 38 -34.5 62.5t-96.5 24.5q-65 0 -108.5 -31.5t-52.5 -78.5h195v-57q-35 -13 -50 -32t-15 -52v-25q44 -2 72.5 -34t28.5 -77
q0 -52 -37.5 -81.5t-94.5 -29.5q-74 0 -121.5 34zM276 57.5q17 17.5 17 43.5t-17 43.5t-44 17.5q-29 0 -46 -17.5t-17 -43.5t17 -43.5t46 -17.5q27 0 44 17.5z" />
    <glyph glyph-name="uni0E17" unicode="&#xe17;" horiz-adv-x="703" 
d="M103 341q-44 2 -72.5 34t-28.5 77q0 52 37.5 81.5t94.5 29.5q74 0 121.5 -34t47.5 -96v-192l131 312h106q52 0 80.5 -27t28.5 -67v-459h-200v373l-158 -373h-188v341zM159 408.5q17 17.5 17 43.5t-17 43.5t-46 17.5q-27 0 -44 -17.5t-17 -43.5t17 -43.5t44 -17.5
q29 0 46 17.5z" />
    <glyph glyph-name="uni0E18" unicode="&#xe18;" horiz-adv-x="656" 
d="M60 259h199v-183h144v176q0 41 -13 55.5t-53 14.5q-51 0 -140 -3t-138 -11v61q0 86 60.5 140t184.5 54q36 0 98 -12q43 -9 66 -9q22 0 41.5 8.5t47.5 34.5l56 -84q-36 -29 -65.5 -40.5t-59.5 -11.5q-23 0 -40.5 3t-40.5 9q-22 6 -40.5 9.5t-42.5 3.5q-22 0 -44.5 -21.5
t-24.5 -58.5l98 2q121 0 185 -29.5t64 -114.5v-252h-542v259z" />
    <glyph glyph-name="uni0E19" unicode="&#xe19;" horiz-adv-x="707" 
d="M670 106q0 -116 -140 -116q-125 0 -138 94q-41 -20 -66 -40t-31 -44h-192v341q-44 2 -72.5 34t-28.5 77q0 52 37.5 81.5t94.5 29.5q74 0 121.5 -34t47.5 -96v-298q9 8 25 16.5t32 16.5q45 21 69 41.5t24 53.5v290h200v-283q0 -36 -35 -68q52 -29 52 -96zM159 408.5
q17 17.5 17 43.5t-17 43.5t-46 17.5q-27 0 -44 -17.5t-17 -43.5t17 -43.5t44 -17.5q29 0 46 17.5zM562.5 67.5q12.5 13.5 12.5 40.5q0 28 -12.5 42t-32.5 14q-19 0 -32 -14.5t-13 -41.5q0 -26 13 -40t32 -14q20 0 32.5 13.5z" />
    <glyph glyph-name="uni0E1A" unicode="&#xe1a;" horiz-adv-x="711" 
d="M36 76h67v265q-44 2 -72.5 34t-28.5 77q0 52 37.5 81.5t94.5 29.5q74 0 121.5 -34t47.5 -96v-357h154v477h200v-553h-621v76zM159 408.5q17 17.5 17 43.5t-17 43.5t-46 17.5q-27 0 -44 -17.5t-17 -43.5t17 -43.5t44 -17.5q29 0 46 17.5z" />
    <glyph glyph-name="uni0E1B" unicode="&#xe1b;" horiz-adv-x="711" 
d="M36 76h67v265q-44 2 -72.5 34t-28.5 77q0 52 37.5 81.5t94.5 29.5q74 0 121.5 -34t47.5 -96v-357h154v619h200v-695h-621v76zM159 408.5q17 17.5 17 43.5t-17 43.5t-46 17.5q-27 0 -44 -17.5t-17 -43.5t17 -43.5t44 -17.5q29 0 46 17.5z" />
    <glyph glyph-name="uni0E1C" unicode="&#xe1c;" horiz-adv-x="725" 
d="M48 418q0 73 43.5 109t123.5 36q59 0 96.5 -29.5t37.5 -81.5q0 -45 -28.5 -77t-72.5 -34v-171l69 141h86l68 -139v381h200v-553h-201l-111 226l-112 -226h-199v418zM282 408.5q17 17.5 17 43.5t-17 43.5t-44 17.5q-29 0 -46 -17.5t-17 -43.5t17 -43.5t46 -17.5
q27 0 44 17.5z" />
    <glyph glyph-name="uni0E1D" unicode="&#xe1d;" horiz-adv-x="725" 
d="M48 418q0 73 43.5 109t123.5 36q59 0 96.5 -29.5t37.5 -81.5q0 -45 -28.5 -77t-72.5 -34v-171l69 141h86l68 -139v523h200v-695h-201l-111 226l-112 -226h-199v418zM282 408.5q17 17.5 17 43.5t-17 43.5t-44 17.5q-29 0 -46 -17.5t-17 -43.5t17 -43.5t46 -17.5
q27 0 44 17.5z" />
    <glyph glyph-name="uni0E1E" unicode="&#xe1e;" horiz-adv-x="777" 
d="M103 341q-44 2 -72.5 34t-28.5 77q0 52 37.5 81.5t94.5 29.5q74 0 121.5 -34t47.5 -96v-156l66 195h90l64 -196v277h200v-553h-201l-109 336l-110 -336h-200v341zM159 408.5q17 17.5 17 43.5t-17 43.5t-46 17.5q-27 0 -44 -17.5t-17 -43.5t17 -43.5t44 -17.5
q29 0 46 17.5z" />
    <glyph glyph-name="uni0E1F" unicode="&#xe1f;" horiz-adv-x="777" 
d="M103 341q-44 2 -72.5 34t-28.5 77q0 52 37.5 81.5t94.5 29.5q74 0 121.5 -34t47.5 -96v-156l66 195h90l64 -196v419h200v-695h-201l-109 336l-110 -336h-200v341zM159 408.5q17 17.5 17 43.5t-17 43.5t-46 17.5q-27 0 -44 -17.5t-17 -43.5t17 -43.5t44 -17.5
q29 0 46 17.5z" />
    <glyph glyph-name="uni0E20" unicode="&#xe20;" horiz-adv-x="689" 
d="M39.5 19.5q-37.5 29.5 -37.5 81.5q0 45 28.5 77t72.5 34v29q0 63 68 85h-115q4 81 45.5 134.5t105.5 78t137 24.5q132 0 211.5 -48.5t79.5 -141.5v-373h-200v401q0 38 -34.5 62.5t-96.5 24.5q-65 0 -108.5 -31.5t-52.5 -78.5h205v-57q-30 -12 -37.5 -40.5t-7.5 -85.5v-75
q0 -62 -47.5 -96t-121.5 -34q-57 0 -94.5 29.5zM159 57.5q17 17.5 17 43.5t-17 43.5t-46 17.5q-27 0 -44 -17.5t-17 -43.5t17 -43.5t44 -17.5q29 0 46 17.5z" />
    <glyph glyph-name="uni0E21" unicode="&#xe21;" horiz-adv-x="719" 
d="M64 25.5q-31 35.5 -31 88.5q0 51 19 88t81 37h3v102q-44 2 -72.5 34t-28.5 77q0 52 37.5 81.5t94.5 29.5q74 0 121.5 -34t47.5 -96v-206q33 -11 73.5 -36t55.5 -43v405h200v-553h-181q-51 85 -148 141v-29q0 -66 -39.5 -94t-125.5 -28q-76 0 -107 35.5zM192 408.5
q17 17.5 17 43.5t-17 43.5t-46 17.5q-27 0 -44 -17.5t-17 -43.5t17 -43.5t44 -17.5q29 0 46 17.5zM132.5 61.5q4.5 6.5 4.5 28.5v89h-2q-23 0 -32.5 -20.5t-9.5 -47.5q0 -26 7 -41t18 -15q10 0 14.5 6.5z" />
    <glyph glyph-name="uni0E22" unicode="&#xe22;" horiz-adv-x="669" 
d="M36 172q0 30 21.5 56t57.5 36q-39 20 -63 62.5t-24 91.5q0 73 43.5 109t123.5 36q59 0 96.5 -29.5t37.5 -81.5q0 -45 -28.5 -77t-72.5 -34q3 -15 26 -23.5t51 -8.5h68v-87h-74q-30 0 -46.5 -19t-16.5 -47v-80h179v477h200v-553h-579v172zM262 408.5q17 17.5 17 43.5
t-17 43.5t-44 17.5q-29 0 -46 -17.5t-17 -43.5t17 -43.5t46 -17.5q27 0 44 17.5z" />
    <glyph glyph-name="uni0E23" unicode="&#xe23;" horiz-adv-x="548" 
d="M225.5 19.5q-37.5 29.5 -37.5 81.5q0 45 28.5 77t72.5 34v59q0 25 -9 38t-40 13q-39 0 -105.5 -3t-116.5 -11v61q0 194 225 194q37 0 85 -12q34 -9 54 -9q22 0 42 8.5t48 34.5l55 -88q-34 -28 -62.5 -36t-62.5 -8q-33 0 -70 11q-40 10 -69 10q-14 0 -31 -9.5t-30 -27.5
t-14 -43l146 2q84 0 119.5 -21.5t35.5 -71.5v-183q0 -62 -47.5 -96t-121.5 -34q-57 0 -94.5 29.5zM345 57.5q17 17.5 17 43.5t-17 43.5t-46 17.5q-27 0 -44 -17.5t-17 -43.5t17 -43.5t44 -17.5q29 0 46 17.5z" />
    <glyph glyph-name="uni0E24" unicode="&#xe24;" horiz-adv-x="658" 
d="M404 401q0 38 -34.5 62.5t-96.5 24.5q-65 0 -108.5 -31.5t-52.5 -78.5h195v-57q-35 -13 -50 -32t-15 -52v-25q49 -4 75 -34.5t26 -76.5q0 -52 -37.5 -81.5t-94.5 -29.5q-74 0 -121.5 34t-47.5 96v99q0 34 22 62.5t66 44.5h-105q4 81 45.5 134.5t105.5 78t137 24.5
q132 0 211.5 -48.5t79.5 -141.5v-569h-200v597zM276 57.5q17 17.5 17 43.5t-17 43.5t-44 17.5q-29 0 -46 -17.5t-17 -43.5t17 -43.5t46 -17.5q27 0 44 17.5z" />
    <glyph glyph-name="uni0E25" unicode="&#xe25;" horiz-adv-x="659" 
d="M67.5 32q-50.5 42 -50.5 128q0 95 64 151.5t177 56.5q49 0 84 -11t63 -37v65q0 51 -21 77t-86 26q-55 0 -84.5 -22t-37.5 -68h-145q8 48 45.5 85.5t99 58.5t138.5 21q124 0 207.5 -43.5t83.5 -134.5v-385h-200v179q0 33 -18 59t-47.5 40.5t-61.5 14.5q-37 0 -63.5 -25
t-32.5 -67q18 11 45 11q46 0 73.5 -32.5t27.5 -78.5q0 -52 -37.5 -81.5t-94.5 -29.5q-78 0 -128.5 42zM261 57.5q17 17.5 17 43.5t-17 43.5t-44 17.5q-29 0 -46 -17.5t-17 -43.5t17 -43.5t46 -17.5q27 0 44 17.5z" />
    <glyph glyph-name="uni0E26" unicode="&#xe26;" horiz-adv-x="689" 
d="M435 401q0 38 -34.5 62.5t-96.5 24.5q-65 0 -108.5 -31.5t-52.5 -78.5h205v-57q-30 -12 -37.5 -40.5t-7.5 -85.5v-75q0 -62 -47.5 -96t-121.5 -34q-57 0 -94.5 29.5t-37.5 81.5q0 45 28.5 77t72.5 34v29q0 63 68 85h-115q4 81 45.5 134.5t105.5 78t137 24.5
q132 0 211.5 -48.5t79.5 -141.5v-569h-200v597zM159 57.5q17 17.5 17 43.5t-17 43.5t-46 17.5q-27 0 -44 -17.5t-17 -43.5t17 -43.5t44 -17.5q29 0 46 17.5z" />
    <glyph glyph-name="uni0E27" unicode="&#xe27;" horiz-adv-x="601" 
d="M283.5 19.5q-37.5 29.5 -37.5 81.5q0 45 28.5 77t72.5 34v174q0 52 -25.5 77t-71.5 25q-50 0 -81.5 -32.5t-34.5 -92.5h-144q1 62 37.5 107.5t98 69t136.5 23.5q142 0 213.5 -41.5t71.5 -133.5v-268q0 -62 -47.5 -96t-121.5 -34q-57 0 -94.5 29.5zM403 57.5
q17 17.5 17 43.5t-17 43.5t-46 17.5q-27 0 -44 -17.5t-17 -43.5t17 -43.5t44 -17.5q29 0 46 17.5z" />
    <glyph glyph-name="uni0E28" unicode="&#xe28;" horiz-adv-x="722" 
d="M647 462q21 -33 21 -71v-391h-200v385q0 46 -32 74.5t-101 28.5q-68 0 -102 -30.5t-34 -83.5q0 -24 13 -80q2 -8 6.5 -32.5t4.5 -37.5l18 74q20 85 113 85q50 0 79 -28t29 -70q0 -41 -29 -68.5t-78 -27.5q-40 0 -69 23l-43 -212h-189q10 40 10 81q0 31 -4.5 60.5
t-13.5 75.5q-10 52 -14.5 82.5t-4.5 64.5q0 93 77 146t238 53q122 0 204 -29q17 22 23 55h153q-17 -87 -75 -127zM318 323.5q-14 -15.5 -14 -38.5q0 -22 15 -37.5t36 -15.5q22 0 37 15.5t15 37.5q0 23 -13 38.5t-39 15.5q-23 0 -37 -15.5z" />
    <glyph glyph-name="uni0E29" unicode="&#xe29;" horiz-adv-x="762" 
d="M670 221v-221h-634v76h67v265q-44 2 -72.5 34t-28.5 77q0 52 37.5 81.5t94.5 29.5q74 0 121.5 -34t47.5 -96v-69q30 40 86 40q54 0 81 -29v178h200v-218q17 30 20 66h102q-14 -120 -122 -180zM159 408.5q17 17.5 17 43.5t-17 43.5t-46 17.5q-27 0 -44 -17.5t-17 -43.5
t17 -43.5t44 -17.5q29 0 46 17.5zM361 335.5q-11 -12.5 -11 -36.5t11.5 -37t28.5 -13t28.5 13t11.5 37t-11.5 36.5t-28.5 12.5q-18 0 -29 -12.5zM470 173h-14q-115 0 -153 54v-151h167v97z" />
    <glyph glyph-name="uni0E2A" unicode="&#xe2a;" horiz-adv-x="657" 
d="M583 462q21 -33 21 -77v-385h-199v179q0 33 -18 59t-47.5 40.5t-61.5 14.5q-37 0 -63.5 -25t-32.5 -67q18 11 45 11q46 0 73.5 -32.5t27.5 -78.5q0 -52 -37.5 -81.5t-94.5 -29.5q-78 0 -128.5 42t-50.5 128q0 95 64 151.5t177 56.5q49 0 84 -11t63 -37v65q0 51 -21 77
t-86 26q-55 0 -84.5 -22t-37.5 -68h-145q8 48 45.5 85.5t99 58.5t138.5 21q100 0 170 -27q17 24 21 53h153q-17 -87 -75 -127zM171 144.5q-17 -17.5 -17 -43.5t17 -43.5t46 -17.5q27 0 44 17.5t17 43.5t-17 43.5t-44 17.5q-29 0 -46 -17.5z" />
    <glyph glyph-name="uni0E2B" unicode="&#xe2b;" horiz-adv-x="702" 
d="M648 302v-302h-199v226l-159 -226h-187v341q-44 2 -72.5 34t-28.5 77q0 52 37.5 81.5t94.5 29.5q74 0 121.5 -34t47.5 -96v-227l95 127q13 19 27 28q-44 32 -44 95q0 107 140 107q141 0 141 -107q0 -63 -42 -93q28 -21 28 -61zM159 408.5q17 17.5 17 43.5t-17 43.5
t-46 17.5q-27 0 -44 -17.5t-17 -43.5t17 -43.5t44 -17.5q29 0 46 17.5zM477 495.5q-17 -17.5 -17 -43.5t17 -43.5t44 -17.5q29 0 46 17.5t17 43.5t-17 43.5t-46 17.5q-27 0 -44 -17.5z" />
    <glyph glyph-name="uni0E2C" unicode="&#xe2c;" horiz-adv-x="777" 
d="M687 685q36 -38 36 -84v-601h-201l-109 336l-110 -336h-200v341q-44 2 -72.5 34t-28.5 77q0 52 37.5 81.5t94.5 29.5q74 0 121.5 -34t47.5 -96v-156l66 195h90l64 -196v294q-59 -18 -129 -18q-105 0 -153 25.5t-48 78.5q0 55 61.5 85t163.5 30q90 0 162 -24q8 26 8 55
h149q-14 -67 -50 -117zM513 654q-16 25 -47.5 38t-64.5 13q-39 0 -62.5 -12t-23.5 -36q0 -18 17.5 -27.5t50.5 -9.5q77 0 130 34zM159 408.5q17 17.5 17 43.5t-17 43.5t-46 17.5q-27 0 -44 -17.5t-17 -43.5t17 -43.5t44 -17.5q29 0 46 17.5z" />
    <glyph glyph-name="uni0E2D" unicode="&#xe2d;" horiz-adv-x="659" 
d="M47 201q0 73 43.5 109t123.5 36q59 0 96.5 -29.5t37.5 -81.5q0 -45 -28.5 -77t-72.5 -34v-48h158v309q0 51 -21 77t-86 26q-55 0 -84.5 -22t-37.5 -68h-145q8 48 45.5 85.5t99 58.5t138.5 21q124 0 207.5 -43.5t83.5 -134.5v-385h-558v201zM281 191.5q17 17.5 17 43.5
t-17 43.5t-44 17.5q-29 0 -46 -17.5t-17 -43.5t17 -43.5t46 -17.5q27 0 44 17.5z" />
    <glyph glyph-name="uni0E2E" unicode="&#xe2e;" horiz-adv-x="659" 
d="M605 393v-393h-558v179q0 73 43.5 109t123.5 36q59 0 96.5 -29.5t37.5 -81.5q0 -45 -28.5 -77t-72.5 -34v-26h158v297q-77 -29 -167 -29q-105 0 -153 25.5t-48 78.5q0 57 63 86t182 29q40 0 86 -6.5t88 -19.5q8 24 10 57h152q-15 -63 -55 -113q42 -37 42 -88z
M309.5 420.5q42.5 8.5 77.5 29.5q-20 24 -56.5 35.5t-71.5 11.5q-43 0 -71.5 -12t-28.5 -36q0 -17 18 -27t51 -10q39 0 81.5 8.5zM191 169.5q17 -17.5 46 -17.5q27 0 44 17.5t17 43.5t-17 43.5t-44 17.5q-29 0 -46 -17.5t-17 -43.5t17 -43.5z" />
    <glyph glyph-name="uni0E2F" unicode="&#xe2f;" horiz-adv-x="575" 
d="M321 323q-17 -24 -49.5 -39.5t-68.5 -15.5q-82 0 -129 48t-47 129q0 52 30.5 85t87.5 33q58 0 85.5 -26.5t27.5 -66.5q0 -42 -23.5 -70t-65.5 -28q14 -14 41 -14q44 0 77 35t33 101v59h201v-553h-200v323zM184.5 423.5q15.5 15.5 15.5 39.5t-15.5 39.5t-39.5 15.5
q-26 0 -41.5 -15.5t-15.5 -39.5t15.5 -39.5t41.5 -15.5q24 0 39.5 15.5z" />
    <glyph glyph-name="uni0E30" unicode="&#xe30;" horiz-adv-x="474" 
d="M48 488q29 27 83 27q45 0 74 -27t29 -65q0 -60 -38 -84q68 11 99.5 59.5t35.5 108.5h118q-12 -111 -76.5 -165t-166.5 -54q-91 0 -139 36t-48 94q0 43 29 70zM83 375.5q15 -16.5 42 -16.5q28 0 43.5 16.5t15.5 40.5t-15.5 40.5t-43.5 16.5q-27 0 -42 -16.5t-15 -40.5
t15 -40.5zM48 211q29 27 83 27q45 0 74 -27t29 -65q0 -60 -38 -84q68 11 99.5 59.5t35.5 108.5h118q-12 -111 -76.5 -165t-166.5 -54q-91 0 -139 36t-48 94q0 43 29 70zM83 98.5q15 -16.5 42 -16.5q28 0 43.5 16.5t15.5 40.5t-15.5 40.5t-43.5 16.5q-27 0 -42 -16.5
t-15 -40.5t15 -40.5z" />
    <glyph glyph-name="uni0E31" unicode="&#xe31;" 
d="M-353.5 668.5q-49.5 35.5 -49.5 94.5q0 43 29 70t86 27q48 0 76.5 -27t28.5 -65q0 -37 -31 -69q73 5 107 49.5t38 103.5h136q-12 -109 -90 -164t-187 -55q-94 0 -143.5 35.5zM-256 728.5q14 14.5 14 36.5t-14 36.5t-37 14.5q-24 0 -38.5 -14.5t-14.5 -36.5t14.5 -36.5
t38.5 -14.5q23 0 37 14.5z" />
    <glyph glyph-name="uni0E32" unicode="&#xe32;" horiz-adv-x="574" 
d="M320 390q0 52 -20 75t-62 23q-85 0 -91 -125h-129q1 62 33 107.5t85.5 69t121.5 23.5q128 0 195 -41.5t67 -133.5v-388h-200v390z" />
    <glyph glyph-name="uni0E33" unicode="&#xe33;" horiz-adv-x="574" 
d="M-267 661q-34 27 -34 72t34 72t109 27t109 -27t34 -72t-34 -72t-109 -27t-109 27zM-114 689.5q17 17.5 17 43.5t-17 43.5t-44 17.5q-29 0 -46 -17.5t-17 -43.5t17 -43.5t46 -17.5q27 0 44 17.5zM320 390q0 52 -20 75t-62 23q-85 0 -91 -125h-129q1 62 33 107.5t85.5 69
t121.5 23.5q128 0 195 -41.5t67 -133.5v-388h-200v390z" />
    <glyph glyph-name="uni0E34" unicode="&#xe34;" 
d="M-526 769.5q63 51.5 180 51.5q113 0 189.5 -44.5t104.5 -136.5h-545q8 78 71 129.5zM-239 708q-36 47 -109 47q-45 0 -76 -13t-43 -34h228z" />
    <glyph glyph-name="uni0E35" unicode="&#xe35;" 
d="M-526 769.5q63 51.5 180 51.5q34 0 69 -10t57 -29v71h166v-213h-543q8 78 71 129.5zM-239 708q-36 47 -109 47q-45 0 -76 -13t-43 -34h228z" />
    <glyph glyph-name="uni0E36" unicode="&#xe36;" 
d="M-49 743q-12 -21 -36 -32q22 -32 33 -71h-545q8 78 71 129.5t180 51.5q62 0 116 -14q5 34 30 54.5t66 20.5q46 0 71.5 -25.5t25.5 -64.5q0 -28 -12 -49zM-170.5 825.5q-13.5 -13.5 -13.5 -35.5q0 -21 13.5 -35t37.5 -14q22 0 35.5 14t13.5 35t-13.5 35t-35.5 14
q-24 0 -37.5 -13.5zM-238 708q-37 47 -110 47q-45 0 -76 -13t-43 -34h229z" />
    <glyph glyph-name="uni0E37" unicode="&#xe37;" 
d="M-54 853v-213h-543q8 76 67 126.5t168 54.5v32h119v-52q32 -14 55 -38v90h134zM-239 708q-36 47 -109 47q-45 0 -76 -13t-43 -34h228z" />
    <glyph glyph-name="uni0E38" unicode="&#xe38;" 
d="M-209 -236q-47 1 -72.5 26t-25.5 68q0 42 30.5 66t87.5 24q83 0 109 -36t26 -93v-162h-155v107zM-161.5 -184.5q15.5 15.5 15.5 39.5t-15.5 39.5t-39.5 15.5q-26 0 -41.5 -15.5t-15.5 -39.5t15.5 -39.5t41.5 -15.5q24 0 39.5 15.5z" />
    <glyph glyph-name="uni0E39" unicode="&#xe39;" 
d="M-424 -285h36v47q-47 1 -72 25.5t-25 68.5q0 41 29 65.5t81 24.5q61 0 87 -31t26 -81v-119h63v221h145v-285h-370v64zM-344.5 -184.5q15.5 15.5 15.5 39.5t-15.5 39.5t-39.5 15.5q-26 0 -41.5 -15.5t-15.5 -39.5t15.5 -39.5t41.5 -15.5q24 0 39.5 15.5z" />
    <glyph glyph-name="uni0E3A" unicode="&#xe3a;" 
d="M-207 -212.5q-27 27.5 -27 67.5q0 39 27 66t68 27t67 -27t26 -66q0 -40 -26 -67.5t-67 -27.5t-68 27.5z" />
    <glyph glyph-name="uni0E3F" unicode="&#xe3f;" horiz-adv-x="713" 
d="M642.5 303.5q41.5 -50.5 41.5 -108.5q0 -93 -60 -144t-196 -51h-70v-98h-62v98h-285v48h32q54 0 54 40v524q0 40 -54 40h-32v48h285v79h62v-79h31q139 0 197.5 -41t58.5 -124q0 -58 -36 -104t-102 -61q94 -16 135.5 -66.5zM344 632h-39v-231h45q44 0 65 32.5t21 90.5
q0 108 -92 108zM449 104q27 36 27 102q0 63 -30.5 95.5t-85.5 32.5h-55v-266h67q50 0 77 36z" />
    <glyph glyph-name="uni0E40" unicode="&#xe40;" horiz-adv-x="342" 
d="M83.5 24q-47.5 34 -47.5 96v433h200v-341q44 -2 72.5 -34t28.5 -77q0 -52 -37.5 -81.5t-94.5 -29.5q-74 0 -121.5 34zM270 57.5q17 17.5 17 43.5t-17 43.5t-44 17.5q-29 0 -46 -17.5t-17 -43.5t17 -43.5t46 -17.5q27 0 44 17.5z" />
    <glyph glyph-name="uni0E41" unicode="&#xe41;" horiz-adv-x="674" 
d="M36 553h200v-341q44 -2 72.5 -34t28.5 -77q0 -52 -37.5 -81.5t-94.5 -29.5q-74 0 -121.5 34t-47.5 96v433zM368 553h200v-341q44 -2 72.5 -34t28.5 -77q0 -52 -37.5 -81.5t-94.5 -29.5q-74 0 -121.5 34t-47.5 96v433zM180 57.5q17 -17.5 46 -17.5q27 0 44 17.5t17 43.5
t-17 43.5t-44 17.5q-29 0 -46 -17.5t-17 -43.5t17 -43.5zM512 57.5q17 -17.5 46 -17.5q27 0 44 17.5t17 43.5t-17 43.5t-44 17.5q-29 0 -46 -17.5t-17 -43.5t17 -43.5z" />
    <glyph glyph-name="uni0E42" unicode="&#xe42;" horiz-adv-x="392" 
d="M132.5 24q-47.5 34 -47.5 96v457q0 34 -9 52.5t-33 27.5t-68 9h-20v54q0 74 49 117t158 43q30 0 52.5 -6.5t49.5 -18.5q3 -1 16.5 -6.5t23.5 -5.5q15 0 30 10t34 37l67 -57q-16 -32 -47 -53t-65 -21q-23 0 -41 5.5t-40 15.5q-3 1 -18.5 7.5t-28.5 6.5q-28 0 -53.5 -11
t-29.5 -45h7q76 0 121 -40t45 -121v-365q44 -2 72.5 -34t28.5 -77q0 -52 -37.5 -81.5t-94.5 -29.5q-74 0 -121.5 34zM319 57.5q17 17.5 17 43.5t-17 43.5t-44 17.5q-29 0 -46 -17.5t-17 -43.5t17 -43.5t46 -17.5q27 0 44 17.5z" />
    <glyph glyph-name="uni0E43" unicode="&#xe43;" horiz-adv-x="406" 
d="M146.5 24q-47.5 34 -47.5 96v380q0 32 18 59.5t53 64.5q32 35 47.5 58.5t15.5 49.5q0 39 -23 58t-58 19q-32 0 -56 -10.5t-33 -28.5h4q54 0 79 -27t25 -66q0 -42 -29.5 -67.5t-70.5 -25.5q-47 0 -82 31.5t-35 90.5q0 84 60.5 129t156.5 45q103 0 166.5 -38t63.5 -111
q0 -39 -13.5 -65.5t-40.5 -58.5q-24 -30 -36 -52.5t-12 -54.5v-288q44 -2 72.5 -34t28.5 -77q0 -52 -37.5 -81.5t-94.5 -29.5q-74 0 -121.5 34zM106 640.5q14 14.5 14 36.5t-14 36.5t-37 14.5q-24 0 -38.5 -14.5t-14.5 -36.5t14.5 -36.5t38.5 -14.5q23 0 37 14.5zM333 57.5
q17 17.5 17 43.5t-17 43.5t-44 17.5q-29 0 -46 -17.5t-17 -43.5t17 -43.5t46 -17.5q27 0 44 17.5z" />
    <glyph glyph-name="uni0E44" unicode="&#xe44;" horiz-adv-x="461" 
d="M199.5 24q-47.5 34 -47.5 96v597l-58 -83l-77 27q-5 26 -26 64.5t-46 72t-41 45.5l98 55q29 -26 58.5 -72.5t37.5 -79.5l96 134h158v-668q44 -2 72.5 -34t28.5 -77q0 -52 -37.5 -81.5t-94.5 -29.5q-74 0 -121.5 34zM386 57.5q17 17.5 17 43.5t-17 43.5t-44 17.5
q-29 0 -46 -17.5t-17 -43.5t17 -43.5t46 -17.5q27 0 44 17.5z" />
    <glyph glyph-name="uni0E45" unicode="&#xe45;" horiz-adv-x="573" 
d="M320 390q0 52 -20 75t-62 23q-85 0 -91 -125h-129q1 62 33 107.5t85.5 69t121.5 23.5q128 0 194.5 -41.5t66.5 -133.5v-584h-199v586z" />
    <glyph glyph-name="uni0E46" unicode="&#xe46;" horiz-adv-x="736" 
d="M452 400q0 25 -3 38t-12 23l-97 -71l-92 72q-33 -22 -47 -53.5t-14 -64.5q0 -11 2 -21q11 11 28.5 19t34.5 8q47 0 77.5 -24.5t30.5 -70.5q0 -51 -34.5 -82.5t-87.5 -31.5q-111 0 -149.5 62t-38.5 138q0 70 43.5 139.5t168.5 82.5l80 -64l102 64q92 -2 149.5 -51.5
t57.5 -133.5v-574h-199v596zM294.5 210.5q15.5 15.5 15.5 39.5t-15.5 39.5t-39.5 15.5q-26 0 -41.5 -15.5t-15.5 -39.5t15.5 -39.5t41.5 -15.5q24 0 39.5 15.5z" />
    <glyph glyph-name="uni0E47" unicode="&#xe47;" 
d="M-496 681.5q-30 38.5 -30 87.5q0 60 35.5 100.5t106.5 40.5h137q32 0 41 9.5t11 41.5h124q0 -50 -24 -88t-76 -38h-166q-32 0 -47.5 -16t-15.5 -44q0 -25 6 -41q15 14 43 27.5t47 16.5q6 -6 18.5 -20.5t24.5 -22.5q3 29 25.5 48.5t56.5 19.5q45 0 66.5 -22.5t21.5 -56.5
q0 -35 -22.5 -63t-68.5 -28q-34 0 -65 15.5t-65 50.5q-25 -10 -53.5 -28.5t-42.5 -38.5q-58 11 -88 49.5zM-146.5 688q11.5 12 11.5 31t-11.5 31t-31.5 12q-21 0 -33 -12t-12 -31t12 -31t33 -12q20 0 31.5 12z" />
    <glyph glyph-name="uni0E48" unicode="&#xe48;" 
d="M-232 852h174v-212h-174v212z" />
    <glyph glyph-name="uni0E49" unicode="&#xe49;" 
d="M-429 688q14 4 31 13.5t29 21.5q-37 7 -54.5 33.5t-17.5 56.5q0 36 25.5 65t81.5 29q59 0 90.5 -28t31.5 -70q0 -36 -14.5 -62t-36.5 -43q82 9 115.5 55t37.5 126h120q-7 -135 -76.5 -190t-194.5 -55h-168v48zM-299 777.5q14 14.5 14 36.5t-14 36.5t-37 14.5
q-24 0 -38.5 -14.5t-14.5 -36.5t14.5 -36.5t38.5 -14.5q23 0 37 14.5z" />
    <glyph glyph-name="uni0E4A" unicode="&#xe4a;" 
d="M-505 659q-26 29 -26 78q0 119 131 167l72 -61l73 58q67 -14 93.5 -44t26.5 -72q0 -37 -27 -71q35 14 51.5 63t16.5 109h115q-5 -108 -54 -177t-130 -69h-127v47l2 4q21 14 33.5 38.5t12.5 50.5t-15 47l-71 -55l-68 56q-8 -6 -16 -16.5t-12 -19.5h6q35 0 56.5 -22
t21.5 -58q0 -34 -25 -58t-65 -24q-49 0 -75 29zM-395 679.5q12 12.5 12 32.5t-12 32.5t-33 12.5q-22 0 -34.5 -12.5t-12.5 -32.5t12.5 -32.5t34.5 -12.5q21 0 33 12.5z" />
    <glyph glyph-name="uni0E4B" unicode="&#xe4b;" 
d="M1 713h-100v-73h-173v73h-100v71h100v68h173v-68h100v-71z" />
    <glyph glyph-name="uni0E4C" unicode="&#xe4c;" 
d="M-323.5 659.5q-33.5 29.5 -33.5 86.5q0 41 25.5 73.5t63.5 45.5l88 30q20 7 29.5 22t9.5 29h113q0 -37 -14.5 -65t-46.5 -39l-99 -34q31 -8 46 -30.5t15 -54.5q0 -42 -33 -67.5t-78 -25.5q-52 0 -85.5 29.5zM-197 691q13 13 13 34t-13 34t-34 13q-23 0 -36 -13t-13 -34
t13 -34t36 -13q21 0 34 13z" />
    <glyph glyph-name="uni0E4D" unicode="&#xe4d;" 
d="M-267 661q-34 27 -34 72t34 72t109 27t109 -27t34 -72t-34 -72t-109 -27t-109 27zM-114 689.5q17 17.5 17 43.5t-17 43.5t-44 17.5q-29 0 -46 -17.5t-17 -43.5t17 -43.5t46 -17.5q27 0 44 17.5z" />
    <glyph glyph-name="uni0E4E" unicode="&#xe4e;" 
d="M-269 657.5q-33 19.5 -33 60.5q0 20 10.5 36t33.5 24q-10 9 -14.5 21.5t-4.5 22.5q0 35 23 54.5t66 19.5h132v-54h-80q-25 0 -25 -21q0 -14 16 -18.5t32.5 -5t22.5 -1.5v-49q-53 0 -73.5 -5t-20.5 -20q0 -13 22 -13q15 0 35 5.5t28 9.5l33 -46q-17 -17 -54 -28.5
t-71 -11.5q-45 0 -78 19.5z" />
    <glyph glyph-name="uni0E4F" unicode="&#xe4f;" horiz-adv-x="695" 
d="M209 24.5q-61 32.5 -95.5 92.5t-34.5 137t35 136.5t95.5 92.5t135.5 33t135.5 -33t95 -92.5t34.5 -136.5t-34.5 -137t-95 -92.5t-135.5 -32.5t-136 32.5zM443 86q44 24 69.5 67.5t25.5 100.5t-25.5 101t-69.5 68t-98 24q-55 0 -100 -24t-70.5 -68t-25.5 -101t25.5 -100.5
t70.5 -67.5t100 -24q54 0 98 24zM238.5 149q-41.5 40 -41.5 105t42 105t106 40q63 0 104.5 -40.5t41.5 -104.5q0 -65 -41.5 -105t-104.5 -40q-65 0 -106.5 40zM409 189.5q24 23.5 24 64.5q0 40 -24.5 63.5t-63.5 23.5q-40 0 -64.5 -23.5t-24.5 -63.5q0 -41 24.5 -64.5
t64.5 -23.5t64 23.5z" />
    <glyph glyph-name="uni0E50" unicode="&#xe50;" horiz-adv-x="704" 
d="M106 49.5q-78 59.5 -78 164.5q0 104 78 163.5t243 59.5q164 0 242 -59.5t78 -163.5q0 -105 -78 -164.5t-242 -59.5q-165 0 -243 59.5zM445.5 100.5q34.5 43.5 34.5 113.5t-34.5 113.5t-96.5 43.5q-63 0 -97.5 -43.5t-34.5 -113.5t34.5 -113.5t97.5 -43.5q62 0 96.5 43.5z
" />
    <glyph glyph-name="uni0E51" unicode="&#xe51;" horiz-adv-x="719" 
d="M470.5 65.5q28.5 62.5 28.5 133.5q0 77 -35.5 124.5t-102.5 47.5q-66 0 -104.5 -45t-38.5 -120q0 -66 23.5 -105.5t59.5 -39.5q38 0 60 39q-56 0 -84 29t-28 77q0 39 29.5 66.5t79.5 27.5q52 0 82.5 -27.5t30.5 -79.5q0 -51 -23 -97.5t-69 -76t-111 -29.5
q-133 0 -186.5 56.5t-53.5 154.5q0 113 87 174.5t239 61.5q161 0 245.5 -64t84.5 -179q0 -56 -20.5 -115t-62.5 -105h-188q29 29 57.5 91.5zM395 161.5q14 14.5 14 36.5t-14 36.5t-37 14.5q-24 0 -38.5 -14.5t-14.5 -36.5t14.5 -36.5t38.5 -14.5q23 0 37 14.5z" />
    <glyph glyph-name="uni0E52" unicode="&#xe52;" horiz-adv-x="853" 
d="M107 22q-39 22 -39 86v532h189v-498q0 -36 15 -54t50 -18h234q34 0 46.5 17t12.5 55v164q0 65 -16 65q-17 0 -26.5 -30t-9.5 -72h-76q0 46 -12 72.5t-38 26.5q-19 0 -30.5 -21.5t-13.5 -49.5q6 1 14 1q37 0 59 -26t22 -67q0 -40 -28 -66t-70 -26q-57 0 -84 34.5t-27 90.5
q0 84 33.5 141.5t120.5 57.5q30 0 58 -14.5t36 -40.5q10 28 41.5 41.5t67.5 13.5q81 0 124.5 -33.5t43.5 -91.5v-204q0 -64 -35.5 -86t-101.5 -22h-453q-68 0 -107 22zM426 169.5q14 14.5 14 36.5t-14 36.5t-37 14.5q-24 0 -38.5 -14.5t-14.5 -36.5t14.5 -36.5t38.5 -14.5
q23 0 37 14.5z" />
    <glyph glyph-name="uni0E53" unicode="&#xe53;" horiz-adv-x="772" 
d="M67.5 42q-39.5 52 -39.5 157q0 60 25.5 114.5t79 89t132.5 34.5q42 0 83 -17t56 -53q13 33 50.5 51.5t85.5 18.5q87 0 131.5 -33t44.5 -105v-299h-189v321q0 16 -7.5 23t-18.5 7q-10 0 -17.5 -7.5t-7.5 -22.5v-321h-148v303q0 21 -9 34.5t-29 13.5q-37 0 -57 -32t-20 -82
q0 -25 3 -38q37 -5 64.5 -32.5t27.5 -66.5q0 -46 -27.5 -78t-96.5 -32q-77 0 -116.5 52zM236 59.5q14 14.5 14 36.5t-14 36.5t-37 14.5q-24 0 -38.5 -14.5t-14.5 -36.5t14.5 -36.5t38.5 -14.5q23 0 37 14.5z" />
    <glyph glyph-name="uni0E54" unicode="&#xe54;" horiz-adv-x="769" 
d="M519 19q-38 0 -112 -14q-73 -15 -120 -15q-120 0 -189 55t-69 153q0 116 69 172.5t233 56.5h198q47 0 74 28t29 108h154q-4 -84 -29.5 -127.5t-76 -59t-141.5 -15.5h-170q-41 0 -75.5 -19t-55 -55.5t-20.5 -87.5q0 -41 17 -72.5t43 -48.5t52 -17q42 0 104 20
q-54 15 -82 47.5t-28 75.5q0 52 38.5 82.5t108.5 30.5q61 0 99 -29.5t38 -74.5q0 -69 -65 -92q14 -8 64 -27q71 -28 118 -49l-44 -73q-93 47 -162 47zM505 174.5q14 14.5 14 36.5t-14 36.5t-37 14.5q-24 0 -38.5 -14.5t-14.5 -36.5t14.5 -36.5t38.5 -14.5q23 0 37 14.5z" />
    <glyph glyph-name="uni0E55" unicode="&#xe55;" horiz-adv-x="769" 
d="M293.5 342q-34.5 -19 -55 -55.5t-20.5 -87.5q0 -41 17 -72.5t43 -48.5t52 -17q42 0 104 20q-54 15 -82 47.5t-28 75.5q0 52 38.5 82.5t108.5 30.5q61 0 99 -29.5t38 -74.5q0 -69 -65 -92q14 -8 64 -27q71 -28 118 -49l-44 -73q-93 47 -162 47q-38 0 -112 -14
q-73 -15 -120 -15q-120 0 -189 55t-69 153q0 109 61.5 165.5t205.5 62.5q-14 20 -14 45q0 39 35 64t100 25t99.5 -25t34.5 -64q0 -25 -13 -44q42 3 67 32t27 104h154q-4 -84 -29.5 -127.5t-76 -59t-141.5 -15.5h-170q-41 0 -75.5 -19zM377.5 509.5q-14.5 -14.5 -14.5 -36.5
t14.5 -36.5t38.5 -14.5q23 0 37 14.5t14 36.5t-14 36.5t-37 14.5q-24 0 -38.5 -14.5zM429.5 174.5q14.5 -14.5 38.5 -14.5q23 0 37 14.5t14 36.5t-14 36.5t-37 14.5q-24 0 -38.5 -14.5t-14.5 -36.5t14.5 -36.5z" />
    <glyph glyph-name="uni0E56" unicode="&#xe56;" horiz-adv-x="716" 
d="M187 27q-57 37 -57 106q0 48 35 78.5t103 30.5q59 0 95 -29t36 -74q0 -26 -9 -47.5t-28 -34.5h15q48 0 81.5 42.5t33.5 120.5q0 73 -35 112.5t-89 39.5q-108 0 -176 -95h-100q0 71 -32.5 161.5t-68.5 151.5h168q23 -41 39 -103t19 -107q68 57 189 57q72 0 135 -25
t101.5 -74t38.5 -117q0 -63 -31 -115t-100 -84t-179 -32q-127 0 -184 37zM304 101.5q14 14.5 14 36.5t-14 36.5t-37 14.5q-24 0 -38.5 -14.5t-14.5 -36.5t14.5 -36.5t38.5 -14.5q23 0 37 14.5z" />
    <glyph glyph-name="uni0E57" unicode="&#xe57;" horiz-adv-x="947" 
d="M28 194q0 103 43.5 173t152.5 70q93 0 133 -53q39 53 145 53q86 0 124 -32.5t38 -105.5v-218q23 5 30 58.5t9 149.5l1 35q3 102 11 168t32 98h173q-14 -42 -19.5 -104.5t-5.5 -174.5q0 -76 -13 -142.5t-60.5 -117.5t-141.5 -51h-199v341q0 16 -7.5 23t-18.5 7
q-10 0 -17.5 -7.5t-7.5 -22.5v-162h-148v161q0 31 -28 31q-20 0 -30.5 -38.5t-10.5 -90.5q0 -23 3 -43q37 -5 64.5 -32.5t27.5 -66.5q0 -46 -27.5 -78t-96.5 -32q-156 0 -156 204zM236 59.5q14 14.5 14 36.5t-14 36.5t-37 14.5q-24 0 -38.5 -14.5t-14.5 -36.5t14.5 -36.5
t38.5 -14.5q23 0 37 14.5z" />
    <glyph glyph-name="uni0E58" unicode="&#xe58;" horiz-adv-x="731" 
d="M69 67.5q-41 61.5 -41 130.5q0 112 70.5 170.5t227.5 58.5h115q47 0 74 28t29 108h154q-5 -84 -30.5 -127.5t-76 -59t-140.5 -15.5h-119q-58 0 -86.5 -43t-28.5 -119q0 -16 5 -35t12 -34q22 33 56.5 58.5t73.5 38.5q13 -47 43.5 -94t64.5 -64q-27 31 -27 70
q0 38 31.5 66.5t82.5 28.5q64 0 92.5 -31.5t28.5 -78.5q0 -42 -23 -72.5t-61 -46t-82 -15.5q-66 0 -121 35t-69 96q-31 -26 -59 -66t-39 -66q-116 17 -157 78.5zM598 91.5q14 14.5 14 36.5t-14 36.5t-37 14.5q-24 0 -38.5 -14.5t-14.5 -36.5t14.5 -36.5t38.5 -14.5
q23 0 37 14.5z" />
    <glyph glyph-name="uni0E59" unicode="&#xe59;" horiz-adv-x="749" 
d="M401 130.5q-38 78.5 -64 171.5q-20 69 -47 69q-38 0 -56.5 -52t-18.5 -114q0 -25 3 -42q12 13 30 19t35 6q44 0 70.5 -25.5t26.5 -69.5q0 -48 -36 -75.5t-115 -27.5q-49 0 -95.5 21t-76 66t-29.5 111q0 77 32 133.5t86 86t118 29.5q50 0 83 -9t60 -39q13 25 30.5 36.5
t35.5 11.5t31.5 -10.5t28.5 -29.5q16 -22 24 -22q15 0 20 17t5 56q0 63 -14 150h130q20 -69 20 -145q0 -79 -27 -130t-85 -51q-42 0 -95 43q-20 16 -26 16q-15 0 -15 -33q0 -54 54.5 -138t122.5 -150l-144 -27q-64 69 -102 147.5zM314 57.5q14 14.5 14 36.5t-14 36.5
t-37 14.5q-24 0 -38.5 -14.5t-14.5 -36.5t14.5 -36.5t38.5 -14.5q23 0 37 14.5z" />
    <glyph glyph-name="uni0E5A" unicode="&#xe5a;" horiz-adv-x="880" 
d="M826 553v-553h-199v323q-16 -24 -44.5 -39t-62.5 -16v-268h-199v323q-17 -24 -49.5 -39.5t-68.5 -15.5q-82 0 -129 48t-47 129q0 52 30.5 85t87.5 33q58 0 85.5 -26.5t27.5 -66.5q0 -42 -23.5 -70t-65.5 -28q14 -14 41 -14q44 0 77 35t33 101v59h200v-195q43 2 74.5 36.5
t31.5 99.5v59h200zM103.5 423.5q15.5 -15.5 41.5 -15.5q24 0 39.5 15.5t15.5 39.5t-15.5 39.5t-39.5 15.5q-26 0 -41.5 -15.5t-15.5 -39.5t15.5 -39.5z" />
    <glyph glyph-name="uni0E5B" unicode="&#xe5b;" horiz-adv-x="1101" 
d="M156 53.5q-51 30.5 -80.5 86.5t-29.5 130q0 120 52.5 182.5t142.5 62.5t137 -57t47 -140q0 -62 -30.5 -103t-88.5 -41q-55 0 -84.5 31.5t-29.5 76.5q0 38 26 69t80 31q44 0 64 -18q-11 43 -38 63.5t-65 20.5q-54 0 -83.5 -51t-29.5 -128q0 -81 38.5 -127.5t99.5 -46.5
q102 0 142 88.5t40 217.5h90l34 -93l11 83h80l22 -59l14 36h61l29 -56l10 37h50l41 -45l150 -20v-30l-174 -21l-34 23l-10 -53h-62l-30 46l-17 -65h-59l-27 70l-17 -92h-73l-35 93q-25 -117 -85.5 -174.5t-163.5 -57.5q-64 0 -115 30.5zM346 236q17 17 17 44t-17 44t-44 17
q-29 0 -46 -17t-17 -44t17 -44t46 -17q27 0 44 17z" />
    <glyph glyph-name="uni1E0C" unicode="&#x1e0c;" horiz-adv-x="789" 
d="M10 48h32q54 0 54 40v524q0 40 -54 40h-32v48h370q191 0 279.5 -86t88.5 -264q0 -179 -88.5 -264.5t-280.5 -85.5h-369v48zM378 68q75 0 117 71t42 211q0 139 -41 210.5t-117 71.5h-75v-564h74zM339 -194.5q-21 21.5 -21 53.5q0 33 21 55t55 22t55 -22t21 -55
q0 -32 -21 -53.5t-55 -21.5t-55 21.5z" />
    <glyph glyph-name="uni1E0D" unicode="&#x1e0d;" horiz-adv-x="684" 
d="M30 246q0 75 29 128t80 79.5t116 26.5q99 0 148 -51v145q0 20 -10 28.5t-25 8.5q-5 0 -19 -3l-10 40l225 69h39v-619q0 -21 9 -30t36 -9h32v-48l-240 -21l-6 79q-26 -39 -68.5 -59t-107.5 -20q-228 0 -228 256zM381.5 91q22.5 34 22.5 83v137q0 31 -12.5 54t-31.5 35.5
t-36 12.5q-51 0 -73.5 -41t-22.5 -131q0 -88 21.5 -136t70.5 -48q39 0 61.5 34zM289 -194.5q-21 21.5 -21 53.5q0 33 21 55t55 22t55 -22t21 -55q0 -32 -21 -53.5t-55 -21.5t-55 21.5z" />
    <glyph glyph-name="uni1E0E" unicode="&#x1e0e;" horiz-adv-x="789" 
d="M10 48h32q54 0 54 40v524q0 40 -54 40h-32v48h370q191 0 279.5 -86t88.5 -264q0 -179 -88.5 -264.5t-280.5 -85.5h-369v48zM378 68q75 0 117 71t42 211q0 139 -41 210.5t-117 71.5h-75v-564h74zM157 -64h430v-66h-430v66z" />
    <glyph glyph-name="uni1E0F" unicode="&#x1e0f;" horiz-adv-x="684" 
d="M30 246q0 75 29 128t80 79.5t116 26.5q99 0 148 -51v145q0 20 -10 28.5t-25 8.5q-5 0 -19 -3l-10 40l225 69h39v-619q0 -21 9 -30t36 -9h32v-48l-240 -21l-6 79q-26 -39 -68.5 -59t-107.5 -20q-228 0 -228 256zM381.5 91q22.5 34 22.5 83v137q0 31 -12.5 54t-31.5 35.5
t-36 12.5q-51 0 -73.5 -41t-22.5 -131q0 -88 21.5 -136t70.5 -48q39 0 61.5 34zM127 -64h430v-66h-430v66z" />
    <glyph glyph-name="uni1E20" unicode="&#x1e20;" horiz-adv-x="791" 
d="M180 878h430v-75h-430v75zM196.5 35q-83.5 45 -124.5 126t-41 189t42 189t125.5 126t204.5 45q70 0 125.5 -16t93.5 -40q3 -3 9 -3q8 0 8 8v46h65v-219h-57q-11 81 -67.5 117t-127.5 36q-61 0 -108.5 -34t-74.5 -99.5t-27 -155.5q0 -139 49 -214t138 -75q49 0 87 11v188
q0 49 -60 49h-17v39h346v-31h-19q-23 0 -36 -12t-13 -29v-212q-80 -46 -150.5 -60t-162.5 -14q-124 0 -207.5 45z" />
    <glyph glyph-name="uni1E21" unicode="&#x1e21;" horiz-adv-x="608" 
d="M497 553h-430v75h430v-75zM635 461.5q29 -18.5 29 -47.5q0 -28 -15 -43.5t-43 -15.5q-17 0 -25 6.5t-16 20.5t-16.5 21t-25.5 7q-7 0 -25 -5q28 -35 28 -88q0 -79 -64.5 -119.5t-187.5 -40.5q-66 0 -114 12q-16 -15 -16 -30q0 -12 8.5 -18.5t24.5 -6.5h207
q79 0 127 -34.5t48 -97.5q0 -76 -73 -122.5t-219 -46.5q-249 0 -249 123q0 29 19.5 48.5t51.5 29.5q-31 11 -44.5 33t-13.5 49q0 49 69 94q-78 40 -78 127q0 80 64.5 121.5t187.5 41.5q115 0 178 -36q28 21 55 28.5t58 7.5q41 0 70 -18.5zM328 317q0 98 -54 98t-54 -98
q0 -97 54 -97t54 97zM151 -59q0 -33 31 -50.5t87 -17.5q54 0 84.5 18t30.5 51q0 19 -14 32t-43 13h-157q-19 -14 -19 -46z" />
    <glyph glyph-name="uni1E24" unicode="&#x1e24;" horiz-adv-x="858" 
d="M762 612v-524q0 -40 54 -40h32v-48h-380v48h32q54 0 54 40v233h-250v-233q0 -40 54 -40h32v-48h-380v48h32q54 0 54 40v524q0 40 -54 40h-32v48h380v-48h-32q-54 0 -54 -40v-223h250v223q0 40 -54 40h-32v48h380v-48h-32q-54 0 -54 -40zM482 -86q21 -22 21 -55
q0 -32 -21 -53.5t-55 -21.5t-55 21.5t-21 53.5q0 33 21 55t55 22t55 -22z" />
    <glyph glyph-name="uni1E25" unicode="&#x1e25;" horiz-adv-x="758" 
d="M748 48v-48h-358v48h22q50 0 50 40v236q0 84 -69 84q-19 0 -41.5 -15t-39 -49t-16.5 -88v-168q0 -40 50 -40h22v-48h-358v48h32q54 0 54 40v486q0 20 -10 28.5t-25 8.5q-5 0 -19 -3l-10 40l225 69h39v-312q25 38 72.5 56.5t97.5 18.5q98 0 147 -38t49 -103v-251
q0 -40 54 -40h32zM441 -86q21 -22 21 -55q0 -32 -21 -53.5t-55 -21.5t-55 21.5t-21 53.5q0 33 21 55t55 22t55 -22z" />
    <glyph glyph-name="uni1E2A" unicode="&#x1e2a;" horiz-adv-x="858" 
d="M762 612v-524q0 -40 54 -40h32v-48h-380v48h32q54 0 54 40v233h-250v-233q0 -40 54 -40h32v-48h-380v48h32q54 0 54 40v524q0 40 -54 40h-32v48h380v-48h-32q-54 0 -54 -40v-223h250v223q0 40 -54 40h-32v48h380v-48h-32q-54 0 -54 -40zM520.5 -105.5
q28.5 24.5 30.5 52.5h46q0 -160 -173 -160q-101 0 -137.5 45t-36.5 115h45q2 -28 30.5 -52.5t97.5 -24.5t97.5 24.5z" />
    <glyph glyph-name="uni1E2B" unicode="&#x1e2b;" horiz-adv-x="758" 
d="M748 48v-48h-358v48h22q50 0 50 40v236q0 84 -69 84q-19 0 -41.5 -15t-39 -49t-16.5 -88v-168q0 -40 50 -40h22v-48h-358v48h32q54 0 54 40v486q0 20 -10 28.5t-25 8.5q-5 0 -19 -3l-10 40l225 69h39v-312q25 38 72.5 56.5t97.5 18.5q98 0 147 -38t49 -103v-251
q0 -40 54 -40h32zM480.5 -105.5q28.5 24.5 30.5 52.5h46q0 -160 -173 -160q-101 0 -137.5 45t-36.5 115h45q2 -28 30.5 -52.5t97.5 -24.5t97.5 24.5z" />
    <glyph glyph-name="uni1E36" unicode="&#x1e36;" horiz-adv-x="717" 
d="M16 48h32q54 0 54 40v524q0 40 -54 40h-32v48h380v-48h-32q-54 0 -54 -40v-490q0 -54 59 -54h168q46 0 72 51t35 102h53l-22 -221h-659v48zM303 -194.5q-21 21.5 -21 53.5q0 33 21 55t55 22t55 -22t21 -55q0 -32 -21 -53.5t-55 -21.5t-55 21.5z" />
    <glyph glyph-name="uni1E37" unicode="&#x1e37;" horiz-adv-x="389" 
d="M11 48h32q54 0 54 40v486q0 20 -10 28.5t-25 8.5q-5 0 -19 -3l-10 40l225 69h39v-628q0 -41 54 -41h27v-48h-367v48zM139 -194.5q-21 21.5 -21 53.5q0 33 21 55t55 22t55 -22t21 -55q0 -32 -21 -53.5t-55 -21.5t-55 21.5z" />
    <glyph glyph-name="uni1E38" unicode="&#x1e38;" horiz-adv-x="717" 
d="M16 849h430v-75h-430v75zM16 48h32q54 0 54 40v524q0 40 -54 40h-32v48h380v-48h-32q-54 0 -54 -40v-490q0 -54 59 -54h168q46 0 72 51t35 102h53l-22 -221h-659v48zM303 -194.5q-21 21.5 -21 53.5q0 33 21 55t55 22t55 -22t21 -55q0 -32 -21 -53.5t-55 -21.5t-55 21.5z
" />
    <glyph glyph-name="uni1E39" unicode="&#x1e39;" horiz-adv-x="389" 
d="M-21 849h430v-75h-430v75zM11 48h32q54 0 54 40v486q0 20 -10 28.5t-25 8.5q-5 0 -19 -3l-10 40l225 69h39v-628q0 -41 54 -41h27v-48h-367v48zM139 -194.5q-21 21.5 -21 53.5q0 33 21 55t55 22t55 -22t21 -55q0 -32 -21 -53.5t-55 -21.5t-55 21.5z" />
    <glyph glyph-name="uni1E3A" unicode="&#x1e3a;" horiz-adv-x="717" 
d="M16 48h32q54 0 54 40v524q0 40 -54 40h-32v48h380v-48h-32q-54 0 -54 -40v-490q0 -54 59 -54h168q46 0 72 51t35 102h53l-22 -221h-659v48zM124 -64h430v-66h-430v66z" />
    <glyph glyph-name="uni1E3B" unicode="&#x1e3b;" horiz-adv-x="389" 
d="M11 48h32q54 0 54 40v486q0 20 -10 28.5t-25 8.5q-5 0 -19 -3l-10 40l225 69h39v-628q0 -41 54 -41h27v-48h-367v48zM-21 -64h430v-66h-430v66z" />
    <glyph glyph-name="uni1E42" unicode="&#x1e42;" horiz-adv-x="1000" 
d="M10 48h32q54 0 54 40v524q0 40 -54 40h-32v48h283l192 -465l199 465h306v-48h-32q-54 0 -54 -40v-524q0 -40 54 -40h32v-48h-380v48h32q54 0 54 40v452l-202 -466h-123l-195 463v-449q0 -40 54 -40h32v-48h-252v48zM445 -194.5q-21 21.5 -21 53.5q0 33 21 55t55 22
t55 -22t21 -55q0 -32 -21 -53.5t-55 -21.5t-55 21.5z" />
    <glyph glyph-name="uni1E43" unicode="&#x1e43;" horiz-adv-x="1100" 
d="M1090 48v-48h-367v48h32q54 0 54 40v236q0 44 -17 64t-50 20q-19 0 -41 -14.5t-38 -49t-16 -88.5v-167q0 -41 54 -41h7v-48h-318v48h12q54 0 54 40v236q0 44 -17 64t-50 20q-19 0 -40.5 -14.5t-37 -49t-15.5 -88.5v-167q0 -41 54 -41h27v-48h-367v48h32q54 0 54 40v249
q0 20 -10 28.5t-25 8.5q-5 0 -19 -3l-10 40l225 69h39v-74q24 38 70.5 56t95.5 18q146 0 177 -89q21 46 71 67.5t105 21.5q98 0 146 -38t48 -103v-250q0 -41 54 -41h27zM605 -86q21 -22 21 -55q0 -32 -21 -53.5t-55 -21.5t-55 21.5t-21 53.5q0 33 21 55t55 22t55 -22z" />
    <glyph glyph-name="uni1E44" unicode="&#x1e44;" horiz-adv-x="803" 
d="M346.5 796.5q-20.5 21.5 -20.5 53.5q0 33 20.5 54.5t54.5 21.5t55 -22t21 -54t-21 -53.5t-55 -21.5t-54.5 21.5zM10 48h32q54 0 54 40v524q0 40 -54 40h-32v48h283l334 -449v361q0 40 -54 40h-32v48h252v-48h-32q-54 0 -54 -40v-612h-104l-427 581v-493q0 -40 54 -40h32
v-48h-252v48z" />
    <glyph glyph-name="uni1E45" unicode="&#x1e45;" horiz-adv-x="758" 
d="M324.5 574.5q-20.5 21.5 -20.5 53.5q0 33 20.5 54.5t54.5 21.5t55 -22t21 -54t-21 -53.5t-55 -21.5t-54.5 21.5zM748 48v-48h-358v48h22q50 0 50 40v236q0 84 -69 84q-19 0 -41.5 -15t-39 -49t-16.5 -88v-168q0 -40 50 -40h22v-48h-358v48h32q54 0 54 40v249
q0 20 -10 28.5t-25 8.5q-5 0 -19 -3l-10 40l225 69h39v-75q25 38 72.5 56.5t97.5 18.5q98 0 147 -38t49 -103v-251q0 -40 54 -40h32z" />
    <glyph glyph-name="uni1E46" unicode="&#x1e46;" horiz-adv-x="803" 
d="M10 48h32q54 0 54 40v524q0 40 -54 40h-32v48h283l334 -449v361q0 40 -54 40h-32v48h252v-48h-32q-54 0 -54 -40v-612h-104l-427 581v-493q0 -40 54 -40h32v-48h-252v48zM346 -194.5q-21 21.5 -21 53.5q0 33 21 55t55 22t55 -22t21 -55q0 -32 -21 -53.5t-55 -21.5
t-55 21.5z" />
    <glyph glyph-name="uni1E47" unicode="&#x1e47;" horiz-adv-x="758" 
d="M748 48v-48h-358v48h22q50 0 50 40v236q0 84 -69 84q-19 0 -41.5 -15t-39 -49t-16.5 -88v-168q0 -40 50 -40h22v-48h-358v48h32q54 0 54 40v249q0 20 -10 28.5t-25 8.5q-5 0 -19 -3l-10 40l225 69h39v-75q25 38 72.5 56.5t97.5 18.5q98 0 147 -38t49 -103v-251
q0 -40 54 -40h32zM434 -86q21 -22 21 -55q0 -32 -21 -53.5t-55 -21.5t-55 21.5t-21 53.5q0 33 21 55t55 22t55 -22z" />
    <glyph glyph-name="uni1E48" unicode="&#x1e48;" horiz-adv-x="803" 
d="M10 48h32q54 0 54 40v524q0 40 -54 40h-32v48h283l334 -449v361q0 40 -54 40h-32v48h252v-48h-32q-54 0 -54 -40v-612h-104l-427 581v-493q0 -40 54 -40h32v-48h-252v48zM186 -64h430v-66h-430v66z" />
    <glyph glyph-name="uni1E49" unicode="&#x1e49;" horiz-adv-x="758" 
d="M748 48v-48h-358v48h22q50 0 50 40v236q0 84 -69 84q-19 0 -41.5 -15t-39 -49t-16.5 -88v-168q0 -40 50 -40h22v-48h-358v48h32q54 0 54 40v249q0 20 -10 28.5t-25 8.5q-5 0 -19 -3l-10 40l225 69h39v-75q25 38 72.5 56.5t97.5 18.5q98 0 147 -38t49 -103v-251
q0 -40 54 -40h32zM165 -64h430v-66h-430v66z" />
    </font>
</defs>
</svg>
